<svg width="125" height="21" viewBox="0 0 125 21" fill="none" xmlns="http://www.w3.org/2000/svg">
<path d="M0.696023 10.0057V8.94034C1.49621 8.94034 2.05492 8.77699 2.37216 8.45028C2.68939 8.11884 2.84801 7.57197 2.84801 6.80966V4.77131C2.84801 4.04687 2.9285 3.43845 3.08949 2.94602C3.25521 2.44886 3.50616 2.05114 3.84233 1.75284C4.1785 1.45455 4.60464 1.23911 5.12074 1.10653C5.63684 0.973958 6.24527 0.90767 6.94602 0.90767V2.59091C6.39678 2.59091 5.96828 2.6714 5.66051 2.83239C5.35275 2.99337 5.13731 3.24432 5.0142 3.58523C4.89583 3.9214 4.83665 4.35227 4.83665 4.87784V7.46307C4.83665 7.82765 4.7822 8.16619 4.6733 8.47869C4.56439 8.78646 4.36316 9.05398 4.0696 9.28125C3.77604 9.50852 3.35701 9.68608 2.8125 9.81392C2.26799 9.94176 1.5625 10.0057 0.696023 10.0057ZM6.94602 19.0256C6.24527 19.0256 5.63684 18.9593 5.12074 18.8267C4.60464 18.6941 4.1785 18.4787 3.84233 18.1804C3.50616 17.8821 3.25521 17.4844 3.08949 16.9872C2.9285 16.4948 2.84801 15.8864 2.84801 15.1619V13.1165C2.84801 12.3589 2.68939 11.8144 2.37216 11.483C2.05492 11.1515 1.49621 10.9858 0.696023 10.9858V9.92756C1.5625 9.92756 2.26799 9.99148 2.8125 10.1193C3.35701 10.2424 3.77604 10.42 4.0696 10.652C4.36316 10.8793 4.56439 11.1491 4.6733 11.4616C4.7822 11.7694 4.83665 12.1056 4.83665 12.4702V15.0554C4.83665 15.5762 4.89583 16.0047 5.0142 16.3409C5.13731 16.6818 5.35275 16.9328 5.66051 17.0938C5.96828 17.2595 6.39678 17.3423 6.94602 17.3423V19.0256ZM0.696023 10.9858V8.94034H2.66335V10.9858H0.696023ZM12.6791 16V5.09091H14.8027V16H12.6791ZM13.7516 3.40767C13.3822 3.40767 13.065 3.28456 12.7999 3.03835C12.5394 2.7874 12.4092 2.48911 12.4092 2.14347C12.4092 1.79309 12.5394 1.49479 12.7999 1.24858C13.065 0.997632 13.3822 0.872159 13.7516 0.872159C14.1209 0.872159 14.4357 0.997632 14.6962 1.24858C14.9613 1.49479 15.0939 1.79309 15.0939 2.14347C15.0939 2.48911 14.9613 2.7874 14.6962 3.03835C14.4357 3.28456 14.1209 3.40767 13.7516 3.40767ZM18.9832 9.52273V16H16.8596V5.09091H18.8979V6.86648H19.0329C19.2838 6.28883 19.6768 5.82481 20.2119 5.47443C20.7516 5.12405 21.4311 4.94886 22.2502 4.94886C22.9936 4.94886 23.6446 5.10511 24.2033 5.41761C24.7621 5.72538 25.1953 6.18466 25.5031 6.79545C25.8108 7.40625 25.9647 8.16146 25.9647 9.06108V16H23.8411V9.31676C23.8411 8.52604 23.6352 7.90814 23.2232 7.46307C22.8113 7.01326 22.2455 6.78835 21.5258 6.78835C21.0334 6.78835 20.5954 6.89489 20.2119 7.10795C19.8331 7.32102 19.5324 7.63352 19.3099 8.04545C19.0921 8.45265 18.9832 8.94508 18.9832 9.52273ZM30.1363 9.52273V16H28.0127V5.09091H30.0511V6.86648H30.186C30.437 6.28883 30.8299 5.82481 31.365 5.47443C31.9048 5.12405 32.5842 4.94886 33.4033 4.94886C34.1467 4.94886 34.7978 5.10511 35.3565 5.41761C35.9152 5.72538 36.3484 6.18466 36.6562 6.79545C36.9639 7.40625 37.1178 8.16146 37.1178 9.06108V16H34.9942V9.31676C34.9942 8.52604 34.7883 7.90814 34.3763 7.46307C33.9644 7.01326 33.3986 6.78835 32.6789 6.78835C32.1865 6.78835 31.7485 6.89489 31.365 7.10795C30.9862 7.32102 30.6855 7.63352 30.463 8.04545C30.2452 8.45265 30.1363 8.94508 30.1363 9.52273ZM43.761 16.2202C42.7383 16.2202 41.8458 15.9858 41.0835 15.517C40.3211 15.0483 39.7293 14.3925 39.3079 13.5497C38.8865 12.7069 38.6758 11.7221 38.6758 10.5952C38.6758 9.46354 38.8865 8.47396 39.3079 7.62642C39.7293 6.77888 40.3211 6.12074 41.0835 5.65199C41.8458 5.18324 42.7383 4.94886 43.761 4.94886C44.7837 4.94886 45.6763 5.18324 46.4386 5.65199C47.2009 6.12074 47.7927 6.77888 48.2141 7.62642C48.6355 8.47396 48.8462 9.46354 48.8462 10.5952C48.8462 11.7221 48.6355 12.7069 48.2141 13.5497C47.7927 14.3925 47.2009 15.0483 46.4386 15.517C45.6763 15.9858 44.7837 16.2202 43.761 16.2202ZM43.7681 14.4375C44.431 14.4375 44.9802 14.2623 45.4158 13.9119C45.8514 13.5616 46.1734 13.0952 46.3817 12.5128C46.5948 11.9304 46.7013 11.2888 46.7013 10.5881C46.7013 9.89205 46.5948 9.25284 46.3817 8.67045C46.1734 8.08333 45.8514 7.61222 45.4158 7.2571C44.9802 6.90199 44.431 6.72443 43.7681 6.72443C43.1005 6.72443 42.5465 6.90199 42.1062 7.2571C41.6706 7.61222 41.3462 8.08333 41.1332 8.67045C40.9248 9.25284 40.8207 9.89205 40.8207 10.5881C40.8207 11.2888 40.9248 11.9304 41.1332 12.5128C41.3462 13.0952 41.6706 13.5616 42.1062 13.9119C42.5465 14.2623 43.1005 14.4375 43.7681 14.4375ZM50.4166 20.0909V5.09091H52.4905V6.85938H52.668C52.7911 6.6321 52.9687 6.36932 53.2007 6.07102C53.4327 5.77273 53.7547 5.51231 54.1666 5.28977C54.5786 5.0625 55.1231 4.94886 55.8001 4.94886C56.6808 4.94886 57.4668 5.1714 58.1581 5.61648C58.8494 6.06155 59.3915 6.70312 59.7845 7.54119C60.1822 8.37926 60.3811 9.38778 60.3811 10.5668C60.3811 11.7457 60.1846 12.7566 59.7916 13.5994C59.3986 14.4375 58.8589 15.0838 58.1723 15.5384C57.4857 15.9882 56.7021 16.2131 55.8215 16.2131C55.1586 16.2131 54.6164 16.1018 54.195 15.8793C53.7784 15.6567 53.4517 15.3963 53.2149 15.098C52.9782 14.7997 52.7959 14.5346 52.668 14.3026H52.5402V20.0909H50.4166ZM52.4976 10.5455C52.4976 11.3125 52.6089 11.9848 52.8314 12.5625C53.0539 13.1402 53.3759 13.5923 53.7973 13.919C54.2187 14.241 54.7348 14.402 55.3456 14.402C55.9801 14.402 56.5104 14.2339 56.9365 13.8977C57.3626 13.5568 57.6846 13.0952 57.9024 12.5128C58.125 11.9304 58.2362 11.2746 58.2362 10.5455C58.2362 9.82576 58.1273 9.17945 57.9095 8.60653C57.6964 8.03362 57.3745 7.58144 56.9436 7.25C56.5175 6.91856 55.9848 6.75284 55.3456 6.75284C54.7301 6.75284 54.2092 6.91146 53.7831 7.22869C53.3617 7.54593 53.0421 7.98864 52.8243 8.55682C52.6065 9.125 52.4976 9.78788 52.4976 10.5455ZM61.9604 16V5.09091H64.0129V6.82386H64.1266C64.3254 6.23674 64.6758 5.77509 65.1777 5.43892C65.6843 5.09801 66.2572 4.92756 66.8965 4.92756C67.029 4.92756 67.1853 4.93229 67.3652 4.94176C67.5499 4.95123 67.6943 4.96307 67.7984 4.97727V7.00852C67.7132 6.98485 67.5617 6.95881 67.3439 6.9304C67.1261 6.89725 66.9083 6.88068 66.6905 6.88068C66.1886 6.88068 65.7411 6.98722 65.3482 7.20028C64.9599 7.40862 64.6521 7.69981 64.4249 8.07386C64.1976 8.44318 64.084 8.86458 64.084 9.33807V16H61.9604ZM73.0407 16.2202C72.018 16.2202 71.1254 15.9858 70.3631 15.517C69.6008 15.0483 69.009 14.3925 68.5876 13.5497C68.1662 12.7069 67.9555 11.7221 67.9555 10.5952C67.9555 9.46354 68.1662 8.47396 68.5876 7.62642C69.009 6.77888 69.6008 6.12074 70.3631 5.65199C71.1254 5.18324 72.018 4.94886 73.0407 4.94886C74.0634 4.94886 74.9559 5.18324 75.7183 5.65199C76.4806 6.12074 77.0724 6.77888 77.4938 7.62642C77.9152 8.47396 78.1259 9.46354 78.1259 10.5952C78.1259 11.7221 77.9152 12.7069 77.4938 13.5497C77.0724 14.3925 76.4806 15.0483 75.7183 15.517C74.9559 15.9858 74.0634 16.2202 73.0407 16.2202ZM73.0478 14.4375C73.7107 14.4375 74.2599 14.2623 74.6955 13.9119C75.1311 13.5616 75.4531 13.0952 75.6614 12.5128C75.8745 11.9304 75.981 11.2888 75.981 10.5881C75.981 9.89205 75.8745 9.25284 75.6614 8.67045C75.4531 8.08333 75.1311 7.61222 74.6955 7.2571C74.2599 6.90199 73.7107 6.72443 73.0478 6.72443C72.3802 6.72443 71.8262 6.90199 71.3859 7.2571C70.9503 7.61222 70.6259 8.08333 70.4129 8.67045C70.2045 9.25284 70.1004 9.89205 70.1004 10.5881C70.1004 11.2888 70.2045 11.9304 70.4129 12.5128C70.6259 13.0952 70.9503 13.5616 71.3859 13.9119C71.8262 14.2623 72.3802 14.4375 73.0478 14.4375ZM79.6963 16V5.09091H81.7347V6.86648H81.8696C82.0969 6.26515 82.4686 5.7964 82.9847 5.46023C83.5008 5.11932 84.1187 4.94886 84.8384 4.94886C85.5675 4.94886 86.1783 5.11932 86.6707 5.46023C87.1679 5.80114 87.5349 6.26989 87.7716 6.86648H87.8852C88.1456 6.28409 88.5599 5.82008 89.1281 5.47443C89.6963 5.12405 90.3734 4.94886 91.1594 4.94886C92.149 4.94886 92.9563 5.259 93.5813 5.87926C94.211 6.49953 94.5259 7.43466 94.5259 8.68466V16H92.4023V8.88352C92.4023 8.14489 92.201 7.60985 91.7986 7.27841C91.3961 6.94697 90.9155 6.78125 90.3568 6.78125C89.6655 6.78125 89.1281 6.99432 88.7446 7.42045C88.3611 7.84186 88.1693 8.384 88.1693 9.04688V16H86.0528V8.74858C86.0528 8.15672 85.8682 7.68087 85.4989 7.32102C85.1295 6.96117 84.649 6.78125 84.0571 6.78125C83.6546 6.78125 83.283 6.88778 82.942 7.10085C82.6059 7.30919 82.3336 7.60038 82.1253 7.97443C81.9217 8.34848 81.8199 8.78172 81.8199 9.27415V16H79.6963ZM96.5721 20.0909V5.09091H98.646V6.85938H98.8235C98.9466 6.6321 99.1242 6.36932 99.3562 6.07102C99.5882 5.77273 99.9102 5.51231 100.322 5.28977C100.734 5.0625 101.279 4.94886 101.956 4.94886C102.836 4.94886 103.622 5.1714 104.314 5.61648C105.005 6.06155 105.547 6.70312 105.94 7.54119C106.338 8.37926 106.537 9.38778 106.537 10.5668C106.537 11.7457 106.34 12.7566 105.947 13.5994C105.554 14.4375 105.014 15.0838 104.328 15.5384C103.641 15.9882 102.858 16.2131 101.977 16.2131C101.314 16.2131 100.772 16.1018 100.35 15.8793C99.9338 15.6567 99.6071 15.3963 99.3704 15.098C99.1336 14.7997 98.9513 14.5346 98.8235 14.3026H98.6957V20.0909H96.5721ZM98.6531 10.5455C98.6531 11.3125 98.7643 11.9848 98.9869 12.5625C99.2094 13.1402 99.5314 13.5923 99.9528 13.919C100.374 14.241 100.89 14.402 101.501 14.402C102.136 14.402 102.666 14.2339 103.092 13.8977C103.518 13.5568 103.84 13.0952 104.058 12.5128C104.28 11.9304 104.392 11.2746 104.392 10.5455C104.392 9.82576 104.283 9.17945 104.065 8.60653C103.852 8.03362 103.53 7.58144 103.099 7.25C102.673 6.91856 102.14 6.75284 101.501 6.75284C100.886 6.75284 100.365 6.91146 99.9386 7.22869C99.5172 7.54593 99.1976 7.98864 98.9798 8.55682C98.762 9.125 98.6531 9.78788 98.6531 10.5455ZM113.208 5.09091V6.79545H107.249V5.09091H113.208ZM108.847 2.47727H110.971V12.7969C110.971 13.2088 111.033 13.5189 111.156 13.7273C111.279 13.9309 111.437 14.0705 111.631 14.1463C111.83 14.2173 112.046 14.2528 112.278 14.2528C112.448 14.2528 112.597 14.241 112.725 14.2173C112.853 14.1937 112.952 14.1747 113.024 14.1605L113.407 15.9148C113.284 15.9621 113.109 16.0095 112.881 16.0568C112.654 16.1089 112.37 16.1373 112.029 16.142C111.47 16.1515 110.95 16.0521 110.467 15.8438C109.984 15.6354 109.593 15.3134 109.295 14.8778C108.997 14.4422 108.847 13.8954 108.847 13.2372V2.47727ZM124.683 9.92756V10.9858C123.883 10.9858 123.325 11.1515 123.007 11.483C122.69 11.8144 122.531 12.3589 122.531 13.1165V15.1619C122.531 15.8864 122.449 16.4948 122.283 16.9872C122.122 17.4844 121.873 17.8821 121.537 18.1804C121.201 18.4787 120.775 18.6941 120.259 18.8267C119.743 18.9593 119.134 19.0256 118.433 19.0256V17.3423C118.983 17.3423 119.411 17.2595 119.719 17.0938C120.027 16.9328 120.24 16.6818 120.358 16.3409C120.481 16.0047 120.543 15.5762 120.543 15.0554V12.4702C120.543 12.1056 120.597 11.7694 120.706 11.4616C120.815 11.1491 121.016 10.8793 121.31 10.652C121.603 10.42 122.022 10.2424 122.567 10.1193C123.111 9.99148 123.817 9.92756 124.683 9.92756ZM118.433 0.90767C119.134 0.90767 119.743 0.973958 120.259 1.10653C120.775 1.23911 121.201 1.45455 121.537 1.75284C121.873 2.05114 122.122 2.44886 122.283 2.94602C122.449 3.43845 122.531 4.04687 122.531 4.77131V6.80966C122.531 7.57197 122.69 8.11884 123.007 8.45028C123.325 8.77699 123.883 8.94034 124.683 8.94034V10.0057C123.817 10.0057 123.111 9.94176 122.567 9.81392C122.022 9.68608 121.603 9.50852 121.31 9.28125C121.016 9.05398 120.815 8.78646 120.706 8.47869C120.597 8.16619 120.543 7.82765 120.543 7.46307V4.87784C120.543 4.35227 120.481 3.9214 120.358 3.58523C120.24 3.24432 120.027 2.99337 119.719 2.83239C119.411 2.6714 118.983 2.59091 118.433 2.59091V0.90767ZM124.683 8.94034V10.9858H122.716V8.94034H124.683Z" fill="#2E2E2E"/>
</svg>
