<svg width="125" height="19" viewBox="0 0 125 19" fill="none" xmlns="http://www.w3.org/2000/svg">
<path d="M17 5.76C17 5.96 16.9 6.08 16.7 6.12C16.66 6.12 16.6 6.13333 16.52 6.16C16.44 6.17333 16.3333 6.19333 16.2 6.22C16.0533 6.24667 15.94 6.27333 15.86 6.3C15.7933 6.31333 15.74 6.32 15.7 6.32L12.88 15H11.48C11.2933 15 11.1733 14.8933 11.12 14.68L8.88 7.8C8.84 7.69333 8.79333 7.53333 8.74 7.32C8.72667 7.25333 8.71333 7.18667 8.7 7.12C8.68667 7.04 8.66667 6.96 8.64 6.88C8.62667 6.96 8.61333 7.04 8.6 7.12C8.58667 7.2 8.57333 7.28 8.56 7.36L8.44 7.8L6.16 14.66C6.08 14.8867 5.94667 15 5.76 15H4.4L1.6 6.3C1.53333 6.3 1.42 6.28 1.26 6.24C1.08667 6.2 0.946667 6.16667 0.84 6.14C0.733333 6.11333 0.653333 6.1 0.6 6.1C0.386667 6.06 0.28 5.93333 0.28 5.72V4.88H4.8V5.72C4.8 5.93333 4.7 6.06 4.5 6.1C4.34 6.14 4.17333 6.17333 4 6.2L3.4 6.32L5 11.76C5.02667 11.8933 5.05333 12.0133 5.08 12.12C5.10667 12.2267 5.12667 12.32 5.14 12.4C5.23333 12.84 5.28 13.0867 5.28 13.14C5.32 12.9267 5.45333 12.4667 5.68 11.76L7.8 5.2C7.88 4.96 8.04 4.84 8.28 4.84H9.06C9.31333 4.84 9.48 4.96 9.56 5.2L11.66 11.76L12.02 13.12C12.1 12.64 12.2 12.1867 12.32 11.76L13.96 6.32C13.8933 6.32 13.5067 6.24667 12.8 6.1C12.5867 6.06 12.48 5.93333 12.48 5.72V4.88L17 4.9V5.76ZM22.7228 4.72C23.3095 4.72 23.8628 4.82 24.3828 5.02C24.9161 5.22 25.3561 5.50667 25.7028 5.88C26.1028 6.30667 26.3961 6.78 26.5828 7.3C26.7961 7.9 26.9028 8.54 26.9028 9.22C26.9028 9.52667 26.8761 9.71333 26.8228 9.78C26.7561 9.87333 26.6361 9.92 26.4628 9.92H19.7428C19.7428 10.56 19.8228 11.12 19.9828 11.6C20.1161 12.0133 20.3428 12.4 20.6628 12.76C20.9561 13.0933 21.2895 13.3333 21.6628 13.48C22.0628 13.64 22.4895 13.72 22.9428 13.72C23.4228 13.72 23.8095 13.6733 24.1028 13.58C24.3828 13.4867 24.6628 13.3733 24.9428 13.24C25.2361 13.0933 25.4361 12.9867 25.5428 12.92C25.7161 12.8133 25.8495 12.76 25.9428 12.76C26.0895 12.76 26.2028 12.82 26.2828 12.94L26.7828 13.6C26.5961 13.84 26.3295 14.0667 25.9828 14.28C25.5828 14.5333 25.2561 14.7 25.0028 14.78C24.6028 14.9133 24.2428 15.0067 23.9228 15.06C23.5228 15.1267 23.1561 15.16 22.8228 15.16C22.1295 15.16 21.4828 15.04 20.8828 14.8C20.3095 14.5733 19.7961 14.22 19.3428 13.74C18.9161 13.3 18.5828 12.7333 18.3428 12.04C18.1028 11.36 17.9828 10.5867 17.9828 9.72C17.9828 9.02667 18.0961 8.37333 18.3228 7.76C18.5495 7.13333 18.8628 6.6 19.2628 6.16C19.6761 5.70667 20.1761 5.35333 20.7628 5.1C21.3495 4.84667 22.0028 4.72 22.7228 4.72ZM22.7628 6.02C21.8961 6.02 21.2228 6.26667 20.7428 6.76C20.2495 7.28 19.9428 7.97333 19.8228 8.84H25.3228C25.3228 8.42667 25.2628 8.05333 25.1428 7.72C24.9961 7.30667 24.8361 7.00667 24.6628 6.82C24.4361 6.58 24.1628 6.38667 23.8428 6.24C23.5361 6.10667 23.1695 6.04 22.7428 6.04L22.7628 6.02ZM38.5066 9.94C38.5066 10.78 38.3866 11.52 38.1466 12.16C37.8932 12.8267 37.5732 13.3733 37.1866 13.8C36.7999 14.2267 36.3332 14.56 35.7866 14.8C35.2532 15.04 34.6666 15.16 34.0266 15.16C32.8932 15.16 31.3999 14.9733 29.5466 14.6V1.72L29.1066 1.66L28.2666 1.52C28.1732 1.50667 28.0999 1.46667 28.0466 1.4C27.9932 1.32 27.9666 1.23333 27.9666 1.14V0.279999H31.3466V6.34C31.7732 5.84667 32.2532 5.45333 32.7866 5.16C33.3199 4.86667 33.9332 4.72 34.6266 4.72C35.2266 4.72 35.7599 4.82667 36.2266 5.04C36.6932 5.25333 37.0932 5.58667 37.4266 6.04C37.7599 6.50667 38.0132 7.04 38.1866 7.64C38.3732 8.30667 38.4666 9.05333 38.4666 9.88H38.5066V9.94ZM35.8866 12.72C36.1399 12.3867 36.3332 11.9867 36.4666 11.52C36.5999 11.0267 36.6666 10.52 36.6666 10V9.84C36.6666 9.14667 36.6132 8.58667 36.5066 8.16C36.3866 7.70667 36.2132 7.32 35.9866 7C35.7466 6.68 35.4799 6.45333 35.1866 6.32C34.8799 6.18667 34.5132 6.12 34.0866 6.12C33.4732 6.12 32.9599 6.25333 32.5466 6.52C32.1066 6.8 31.7066 7.18 31.3466 7.66V13.44C31.5332 13.4933 31.8132 13.56 32.1866 13.64C32.5732 13.7067 32.9599 13.7467 33.3466 13.76H33.8666C34.3066 13.7333 34.6666 13.6533 34.9466 13.52C35.2932 13.36 35.5999 13.1067 35.8666 12.76L35.8866 12.72ZM44.7152 0.519999C45.3152 0.519999 45.8752 0.599999 46.3952 0.76C46.8752 0.906666 47.3152 1.16 47.7152 1.52C48.0885 1.85333 48.3752 2.24 48.5752 2.68C48.7885 3.14667 48.8952 3.64 48.8952 4.16C48.8952 4.61333 48.8352 5.02 48.7152 5.38C48.5952 5.72667 48.4285 6.04 48.2152 6.32C48.0285 6.56 47.7618 6.78667 47.4152 7C47.1352 7.17333 46.7885 7.32667 46.3752 7.46C47.3085 7.7 48.0152 8.11333 48.4952 8.7C48.9618 9.26 49.1952 9.98667 49.1952 10.88C49.1952 11.52 49.0685 12.1133 48.8152 12.66C48.5618 13.22 48.2285 13.6667 47.8152 14C47.3485 14.3867 46.8418 14.6733 46.2952 14.86C45.7218 15.06 45.1018 15.16 44.4352 15.16C43.6485 15.16 43.0018 15.0667 42.4952 14.88C41.9485 14.68 41.4885 14.4133 41.1152 14.08C40.7418 13.7467 40.4352 13.3533 40.1952 12.9C39.9418 12.4067 39.7352 11.9067 39.5752 11.4L40.3352 11.08C40.4552 11.0267 40.6018 11 40.7752 11C40.9085 11 41.0218 11.0267 41.1152 11.08C41.2218 11.1467 41.2952 11.24 41.3352 11.36C41.3352 11.3733 41.3418 11.3867 41.3552 11.4C41.3685 11.4133 41.3752 11.4267 41.3752 11.44C41.3752 11.4533 41.3818 11.4733 41.3952 11.5C41.4085 11.5133 41.4152 11.5267 41.4152 11.54C41.4418 11.6067 41.5485 11.8267 41.7352 12.2C41.8685 12.4667 42.0485 12.6933 42.2752 12.88C42.4885 13.0533 42.7752 13.2267 43.1352 13.4C43.4818 13.56 43.8952 13.64 44.3752 13.64C44.8818 13.64 45.3218 13.56 45.6952 13.4C46.0952 13.2267 46.4152 13.0133 46.6552 12.76C46.9085 12.48 47.0952 12.1867 47.2152 11.88C47.3485 11.52 47.4152 11.2067 47.4152 10.94C47.4152 10.58 47.3618 10.2267 47.2552 9.88C47.1485 9.54667 46.9618 9.26667 46.6952 9.04C46.4285 8.81333 46.0552 8.64 45.5752 8.52C45.0418 8.38667 44.4285 8.32 43.7352 8.32V7.02C44.2418 7.02 44.7618 6.94667 45.2952 6.8C45.6818 6.69333 46.0285 6.52 46.3352 6.28C46.6285 6.05333 46.8285 5.79333 46.9352 5.5C47.0552 5.18 47.1152 4.84 47.1152 4.48C47.1152 4.08 47.0552 3.72 46.9352 3.4C46.8285 3.12 46.6418 2.86667 46.3752 2.64C46.1352 2.44 45.8685 2.29333 45.5752 2.2C45.2285 2.09333 44.8952 2.04 44.5752 2.04C44.1885 2.04 43.8552 2.09333 43.5752 2.2C43.2152 2.33333 42.9418 2.48 42.7552 2.64C42.5018 2.85333 42.3018 3.08 42.1552 3.32C41.9952 3.58667 41.8752 3.87333 41.7952 4.18C41.7552 4.38 41.6752 4.52 41.5552 4.6C41.4352 4.68 41.2952 4.72 41.1352 4.72H40.8952L39.9752 4.56C40.0552 3.89333 40.2352 3.31333 40.5152 2.82C40.7952 2.32667 41.1352 1.90667 41.5352 1.56C41.9218 1.22667 42.3885 0.966666 42.9352 0.779999C43.4418 0.606666 44.0152 0.519999 44.6552 0.519999H44.7152ZM54.5606 4.72C55.254 4.72 56.134 4.9 57.2006 5.26V7.86H56.4206C56.234 7.86 56.1206 7.76667 56.0806 7.58L55.9606 6.26C55.334 6.11333 54.814 6.04 54.4006 6.04H54.3806C53.834 6.04 53.374 6.18667 53.0006 6.48C52.6406 6.76 52.4606 7.06667 52.4606 7.4C52.4606 7.74667 52.5406 8 52.7006 8.16C52.9673 8.46667 53.354 8.7 53.8606 8.86L54.4606 9.04C54.5673 9.06667 54.7806 9.13333 55.1006 9.24L56.0606 9.6C56.3273 9.69333 56.6073 9.86667 56.9006 10.12C57.4473 10.5467 57.7206 11.1333 57.7206 11.88C57.7206 12.8533 57.394 13.6267 56.7406 14.2C56.034 14.8267 55.1406 15.14 54.0606 15.14C52.954 15.14 51.8606 14.96 50.7806 14.6V11.96H51.5006C51.6606 11.96 51.7606 12.04 51.8006 12.2L51.9206 13.48C52.454 13.7467 53.1406 13.88 53.9806 13.88C54.6206 13.88 55.1406 13.7133 55.5406 13.38C55.8873 13.0733 56.0606 12.7333 56.0606 12.36C56.0606 11.9733 55.9806 11.6933 55.8206 11.52C55.634 11.3067 55.434 11.1467 55.2206 11.04C54.9273 10.8933 54.6473 10.7867 54.3806 10.72C53.394 10.4 52.774 10.1867 52.5206 10.08C52.2006 9.93333 51.9006 9.74667 51.6206 9.52C51.0606 9.05333 50.7806 8.42667 50.7806 7.64C50.7806 6.84 51.1006 6.16 51.7406 5.6C52.4073 5.01333 53.3473 4.72 54.5606 4.72ZM61.7838 6.44C62.7571 5.26667 63.8904 4.68 65.1838 4.68C66.3704 4.68 67.3038 5.12 67.9838 6C68.6771 6.93333 69.0238 8.22667 69.0238 9.88C69.0238 11.4 68.6371 12.6467 67.8638 13.62C67.0504 14.6333 66.0238 15.14 64.7838 15.14C63.5438 15.14 62.5704 14.7467 61.8638 13.96V16.96L62.4038 17.08L62.9838 17.2C63.1971 17.24 63.3038 17.3667 63.3038 17.58V18.44H58.6238V17.58C58.6238 17.3667 58.7304 17.24 58.9438 17.2L60.0638 16.98V6.34C59.4504 6.22 59.0771 6.14 58.9438 6.1C58.7304 6.06 58.6238 5.93333 58.6238 5.72V4.88H61.1438C61.3838 4.88 61.5438 5 61.6238 5.24L61.7638 6.44H61.7838ZM61.8638 12.56C62.4638 13.36 63.2371 13.76 64.1838 13.76C65.1704 13.76 65.9171 13.4267 66.4238 12.76C66.9304 12.0933 67.1838 11.1333 67.1838 9.88C67.1838 8.64 66.9638 7.70667 66.5238 7.08C66.0838 6.44 65.4371 6.12 64.5838 6.12C63.5304 6.12 62.6238 6.63333 61.8638 7.66V12.56ZM75.3048 4.72C75.8915 4.72 76.4448 4.82 76.9648 5.02C77.4982 5.22 77.9382 5.50667 78.2848 5.88C78.6848 6.30667 78.9782 6.78 79.1648 7.3C79.3782 7.9 79.4848 8.54 79.4848 9.22C79.4848 9.52667 79.4582 9.71333 79.4048 9.78C79.3382 9.87333 79.2182 9.92 79.0448 9.92H72.3248C72.3248 10.56 72.4048 11.12 72.5648 11.6C72.6982 12.0133 72.9248 12.4 73.2448 12.76C73.5382 13.0933 73.8715 13.3333 74.2448 13.48C74.6448 13.64 75.0715 13.72 75.5248 13.72C76.0048 13.72 76.3915 13.6733 76.6848 13.58C76.9648 13.4867 77.2448 13.3733 77.5248 13.24C77.8182 13.0933 78.0182 12.9867 78.1248 12.92C78.2982 12.8133 78.4315 12.76 78.5248 12.76C78.6715 12.76 78.7848 12.82 78.8648 12.94L79.3648 13.6C79.1782 13.84 78.9115 14.0667 78.5648 14.28C78.1648 14.5333 77.8382 14.7 77.5848 14.78C77.1848 14.9133 76.8248 15.0067 76.5048 15.06C76.1048 15.1267 75.7382 15.16 75.4048 15.16C74.7115 15.16 74.0648 15.04 73.4648 14.8C72.8915 14.5733 72.3782 14.22 71.9248 13.74C71.4982 13.3 71.1648 12.7333 70.9248 12.04C70.6848 11.36 70.5648 10.5867 70.5648 9.72C70.5648 9.02667 70.6782 8.37333 70.9048 7.76C71.1315 7.13333 71.4448 6.6 71.8448 6.16C72.2582 5.70667 72.7582 5.35333 73.3448 5.1C73.9315 4.84667 74.5848 4.72 75.3048 4.72ZM75.3448 6.02C74.4782 6.02 73.8048 6.26667 73.3248 6.76C72.8315 7.28 72.5248 7.97333 72.4048 8.84H77.9048C77.9048 8.42667 77.8448 8.05333 77.7248 7.72C77.5782 7.30667 77.4182 7.00667 77.2448 6.82C77.0182 6.58 76.7448 6.38667 76.4248 6.24C76.1182 6.10667 75.7515 6.04 75.3248 6.04L75.3448 6.02ZM89.3759 13.58C88.5359 14.62 87.2826 15.14 85.6159 15.14C84.3359 15.14 83.2826 14.68 82.4559 13.76C81.5893 12.7867 81.1559 11.5067 81.1559 9.92C81.1559 8.37333 81.5626 7.12667 82.3759 6.18C83.2293 5.20667 84.4159 4.72 85.9359 4.72C86.6959 4.72 87.6959 4.96 88.9359 5.44V8.08H88.1359C87.9493 8.08 87.8359 7.98667 87.7959 7.8C87.7826 7.76 87.7559 7.50667 87.7159 7.04L87.6559 6.38C87.5093 6.32667 87.3626 6.28667 87.2159 6.26C87.0826 6.23333 86.9893 6.21333 86.9359 6.2C86.5759 6.14667 86.2026 6.12 85.8159 6.12C85.4693 6.12 85.1026 6.20667 84.7159 6.38C84.3559 6.54 84.0426 6.78667 83.7759 7.12C83.2693 7.78667 83.0159 8.72 83.0159 9.92C83.0159 11.12 83.2826 12.0667 83.8159 12.76C84.3359 13.4267 85.0493 13.76 85.9559 13.76C86.7959 13.76 87.5359 13.48 88.1759 12.92C88.2826 12.8133 88.4159 12.76 88.5759 12.76C88.7226 12.76 88.8293 12.8133 88.8959 12.92L89.3759 13.58ZM94.3384 15.16C93.5651 15.16 92.9518 14.9333 92.4984 14.48C92.0718 14.0533 91.8584 13.4133 91.8584 12.56V6.36H90.6384C90.5184 6.36 90.4251 6.33333 90.3584 6.28C90.2918 6.22667 90.2584 6.12667 90.2584 5.98V5.28L91.9184 5.06L92.3184 1.92C92.3184 1.81333 92.3584 1.73333 92.4384 1.68C92.5051 1.62667 92.5984 1.6 92.7184 1.6H93.6184V5.08H96.5184V6.38H93.6184V12.46C93.6184 12.9 93.7184 13.22 93.9184 13.42C94.1184 13.62 94.3918 13.72 94.7384 13.72C94.8851 13.72 95.0518 13.6933 95.2384 13.64C95.3584 13.6 95.4784 13.5467 95.5984 13.48C95.6384 13.4533 95.6784 13.4267 95.7184 13.4C95.7584 13.3733 95.7984 13.3467 95.8384 13.32C95.9451 13.2667 96.0118 13.24 96.0384 13.24C96.1318 13.24 96.2118 13.2933 96.2784 13.4L96.7984 14.24C96.4384 14.5467 96.0651 14.7733 95.6784 14.92C95.2384 15.08 94.7918 15.16 94.3384 15.16ZM99.5441 2.58C99.4374 2.47333 99.3441 2.34 99.2641 2.18C99.1974 2.04667 99.1641 1.88667 99.1641 1.7C99.1641 1.5 99.1974 1.33333 99.2641 1.2C99.3574 1.01333 99.4507 0.873332 99.5441 0.779999C99.6507 0.673333 99.7841 0.579999 99.9441 0.5C100.077 0.433333 100.237 0.4 100.424 0.4C100.611 0.4 100.771 0.433333 100.904 0.5C101.064 0.579999 101.197 0.673333 101.304 0.779999C101.397 0.873332 101.491 1.01333 101.584 1.2C101.664 1.36 101.704 1.52667 101.704 1.7C101.704 1.86 101.664 2.02 101.584 2.18C101.504 2.34 101.411 2.47333 101.304 2.58C101.197 2.68667 101.064 2.78 100.904 2.86C100.771 2.92667 100.611 2.96 100.424 2.96C100.237 2.96 100.077 2.92667 99.9441 2.86C99.7841 2.78 99.6507 2.68667 99.5441 2.58ZM102.444 13.76C102.537 13.7733 102.611 13.82 102.664 13.9C102.717 13.9667 102.744 14.0467 102.744 14.14V15H98.0841V14.14C98.0841 14.0467 98.1107 13.9667 98.1641 13.9C98.2174 13.82 98.2907 13.7733 98.3841 13.76L99.5441 13.54V6.32L98.3841 6.1C98.2907 6.08667 98.2174 6.04667 98.1641 5.98C98.1107 5.9 98.0841 5.81333 98.0841 5.72V4.88H101.304V13.54L102.444 13.76ZM115.005 5.76C115.005 5.96 114.905 6.08 114.705 6.12C114.665 6.12 114.605 6.13333 114.525 6.16C114.459 6.17333 114.372 6.18667 114.265 6.2L113.725 6.32L110.185 15.02H108.565L105.025 6.32C104.892 6.28 104.712 6.24 104.485 6.2L104.045 6.12C103.845 6.08 103.745 5.95333 103.745 5.74V4.88H108.285V5.74C108.285 5.95333 108.185 6.08 107.985 6.12C107.892 6.14667 107.752 6.17333 107.565 6.2C107.379 6.22667 107.152 6.26667 106.885 6.32L109.025 11.76C109.132 12.04 109.252 12.52 109.385 13.2C109.572 12.4533 109.705 11.9733 109.785 11.76L111.945 6.32L110.805 6.1C110.605 6.06 110.505 5.93333 110.505 5.72V4.88H115.005V5.76ZM120.172 4.72C120.759 4.72 121.312 4.82 121.832 5.02C122.365 5.22 122.805 5.50667 123.152 5.88C123.552 6.30667 123.845 6.78 124.032 7.3C124.245 7.9 124.352 8.54 124.352 9.22C124.352 9.52667 124.325 9.71333 124.272 9.78C124.205 9.87333 124.085 9.92 123.912 9.92H117.192C117.192 10.56 117.272 11.12 117.432 11.6C117.565 12.0133 117.792 12.4 118.112 12.76C118.405 13.0933 118.739 13.3333 119.112 13.48C119.512 13.64 119.939 13.72 120.392 13.72C120.872 13.72 121.259 13.6733 121.552 13.58C121.832 13.4867 122.112 13.3733 122.392 13.24C122.685 13.0933 122.885 12.9867 122.992 12.92C123.165 12.8133 123.299 12.76 123.392 12.76C123.539 12.76 123.652 12.82 123.732 12.94L124.232 13.6C124.045 13.84 123.779 14.0667 123.432 14.28C123.032 14.5333 122.705 14.7 122.452 14.78C122.052 14.9133 121.692 15.0067 121.372 15.06C120.972 15.1267 120.605 15.16 120.272 15.16C119.579 15.16 118.932 15.04 118.332 14.8C117.759 14.5733 117.245 14.22 116.792 13.74C116.365 13.3 116.032 12.7333 115.792 12.04C115.552 11.36 115.432 10.5867 115.432 9.72C115.432 9.02667 115.545 8.37333 115.772 7.76C115.999 7.13333 116.312 6.6 116.712 6.16C117.125 5.70667 117.625 5.35333 118.212 5.1C118.799 4.84667 119.452 4.72 120.172 4.72ZM120.212 6.02C119.345 6.02 118.672 6.26667 118.192 6.76C117.699 7.28 117.392 7.97333 117.272 8.84H122.772C122.772 8.42667 122.712 8.05333 122.592 7.72C122.445 7.30667 122.285 7.00667 122.112 6.82C121.885 6.58 121.612 6.38667 121.292 6.24C120.985 6.10667 120.619 6.04 120.192 6.04L120.212 6.02Z" fill="#2E2E2E"/>
</svg>
