<svg width="76" height="16" viewBox="0 0 76 16" fill="none" xmlns="http://www.w3.org/2000/svg">
<path d="M5.3 3.94H2.94V7.54H5.1C6.4 7.54 7.46 7.06 7.46 5.66C7.46 4.38 6.4 3.94 5.3 3.94ZM5.86 9.38H2.94V13.06H5.86C7.02 13.06 8.14 12.58 8.14 11.2C8.14 9.94 7.16 9.38 5.86 9.38ZM0.7 15V2H5.28C8.06 2 9.74 3.34 9.74 5.34C9.74 6.72 9.06 7.78 7.62 8.3C9.56 8.72 10.4 9.88 10.4 11.36C10.4 13.58 8.76 15 6.04 15H0.7ZM14.5252 9.64V15H12.3252V5.2H14.3452V7.2C14.8652 5.7 15.9252 4.96 17.2452 4.96C17.6852 4.96 18.0452 5.04 18.3052 5.18L17.9252 7.28C17.5852 7.2 17.2452 7.16 16.9252 7.16C15.5652 7.16 14.5252 7.66 14.5252 9.64ZM22.7223 13.56C24.1623 13.56 25.4223 12.68 25.4223 11.24V10.94H22.5423C21.4623 10.94 21.0423 11.44 21.0423 12.18C21.0423 13.06 21.7023 13.56 22.7223 13.56ZM25.5623 15V13.46C24.8423 14.7 23.5823 15.24 22.2823 15.24C20.3023 15.24 18.8823 14.06 18.8823 12.24C18.8823 10.56 20.1023 9.44 22.1223 9.44H24.9623C25.3223 9.44 25.4223 9.32 25.4223 9.02V8.86C25.4223 7.46 24.6423 6.74 23.5023 6.74C22.3623 6.74 21.6823 7.36 21.2623 8.4L19.2623 7.88C19.9423 6.02 21.4823 4.96 23.5023 4.96C26.1223 4.96 27.6023 6.5 27.6023 9.1V15H25.5623ZM31.0236 3.42C30.2436 3.42 29.6036 2.8 29.6036 2.04C29.6036 1.28 30.2436 0.68 31.0236 0.68C31.8236 0.68 32.4636 1.28 32.4636 2.04C32.4636 2.8 31.8236 3.42 31.0236 3.42ZM32.1236 5.2V15H29.9236V5.2H32.1236ZM36.8213 9.42V15H34.6213V5.2H36.6813V6.98C37.2813 5.62 38.4213 4.96 39.8413 4.96C42.5813 4.96 43.6213 6.78 43.6213 9.22V15H41.4213V9.32C41.4213 7.8 40.7013 6.92 39.2013 6.92C37.7013 6.92 36.8213 7.84 36.8213 9.42ZM50.8 3.94H48.44V7.54H50.6C51.9 7.54 52.96 7.06 52.96 5.66C52.96 4.38 51.9 3.94 50.8 3.94ZM51.36 9.38H48.44V13.06H51.36C52.52 13.06 53.64 12.58 53.64 11.2C53.64 9.94 52.66 9.38 51.36 9.38ZM46.2 15V2H50.78C53.56 2 55.24 3.34 55.24 5.34C55.24 6.72 54.56 7.78 53.12 8.3C55.06 8.72 55.9 9.88 55.9 11.36C55.9 13.58 54.26 15 51.54 15H46.2ZM62.0852 15.24C59.1852 15.24 57.2052 12.96 57.2052 10.1C57.2052 7.24 59.1852 4.96 62.0852 4.96C65.0052 4.96 66.9652 7.24 66.9652 10.1C66.9652 12.96 65.0052 15.24 62.0852 15.24ZM62.0852 13.36C63.6052 13.36 64.7252 12.14 64.7252 10.1C64.7252 8.06 63.6052 6.84 62.0852 6.84C60.5852 6.84 59.4452 8.06 59.4452 10.1C59.4452 12.14 60.5852 13.36 62.0852 13.36ZM74.5528 7H71.5128V11.74C71.5128 12.82 72.0328 13.32 72.7928 13.32C73.3328 13.32 73.7728 13.12 74.3328 12.7L75.2528 14.24C74.3928 14.94 73.4728 15.24 72.4728 15.24C70.6128 15.24 69.3128 14.1 69.3128 11.74V7H67.6328V5.2H69.4128L69.8728 2.9H71.5128V5.2H74.5528V7Z" fill="#2E2E2E"/>
</svg>
