<svg width="83" height="20" viewBox="0 0 83 20" fill="none" xmlns="http://www.w3.org/2000/svg">
<path d="M3.44336 4.92383C3.30664 4.92383 3.20247 4.77734 3.13086 4.48438C3.10482 4.39323 3.06901 4.29232 3.02344 4.18164C2.84766 3.75846 2.75977 3.39062 2.75977 3.07812C2.75977 2.81771 2.91276 2.55404 3.21875 2.28711C3.53125 2.01367 3.8763 1.87695 4.25391 1.87695C4.44271 1.87695 4.6543 1.95182 4.88867 2.10156C5.12305 2.24479 5.24023 2.38477 5.24023 2.52148C5.24023 2.73633 5.15885 3.10091 4.99609 3.61523C4.83984 4.12956 4.58594 4.47786 4.23438 4.66016C3.88932 4.83594 3.62565 4.92383 3.44336 4.92383ZM2.16406 15.832C2.16406 16.3268 2.23242 16.8835 2.36914 17.502C2.39518 17.6191 2.4082 17.7168 2.4082 17.7949C2.4082 17.9121 2.30078 18.0618 2.08594 18.2441C1.87109 18.4329 1.64323 18.5273 1.40234 18.5273C0.770833 18.5273 0.455078 17.9479 0.455078 16.7891C0.455078 15.5911 0.702474 13.6966 1.19727 11.1055C1.36654 10.2005 1.45117 9.64388 1.45117 9.43555C1.45117 9.02539 1.52604 8.67708 1.67578 8.39062C1.82552 8.09766 2.03711 7.95117 2.31055 7.95117C2.64258 7.95117 2.90299 8.03255 3.0918 8.19531C3.28711 8.35156 3.38477 8.52734 3.38477 8.72266C3.38477 8.91797 3.33919 9.17513 3.24805 9.49414C2.75977 11.2129 2.45703 12.4434 2.33984 13.1855C2.22266 13.9277 2.16406 14.8099 2.16406 15.832ZM12.1305 10.4902C11.7919 10.4902 11.4208 10.7116 11.0172 11.1543C10.6201 11.597 10.0113 12.5898 9.19102 14.1328C8.11029 16.2031 7.41042 17.3815 7.09141 17.668C6.77891 17.9544 6.51849 18.0977 6.31016 18.0977C5.54193 18.0977 5.15781 17.7266 5.15781 16.9844C5.15781 16.6719 5.2099 16.2292 5.31406 15.6562C5.67214 13.6901 5.85117 11.6165 5.85117 9.43555C5.85117 9.18815 5.95534 8.91471 6.16367 8.61523C6.37852 8.30924 6.58034 8.15625 6.76914 8.15625C7.10768 8.15625 7.34857 8.26042 7.4918 8.46875C7.63503 8.67708 7.70664 9.09701 7.70664 9.72852C7.70664 10.3861 7.51133 11.7402 7.1207 13.791C6.99049 14.4681 6.92539 14.8978 6.92539 15.0801C6.92539 15.1842 6.95143 15.2363 7.00352 15.2363C7.10117 15.2363 7.55365 14.4583 8.36094 12.9023C9.17474 11.3203 9.88763 10.207 10.4996 9.5625C11.1116 8.91797 11.7854 8.5957 12.5211 8.5957C13.107 8.5957 13.5823 8.86263 13.9469 9.39648C14.318 9.93034 14.5882 10.9036 14.7574 12.3164C14.9397 13.9245 15.1025 14.9271 15.2457 15.3242C15.3954 15.7148 15.6298 15.9102 15.9488 15.9102C16.1507 15.9102 16.4046 15.8385 16.7105 15.6953C16.7626 15.6693 16.8017 15.6562 16.8277 15.6562C17.1077 15.6562 17.2477 15.819 17.2477 16.1445C17.2477 16.431 17.0556 16.737 16.6715 17.0625C16.2874 17.3815 15.8251 17.541 15.2848 17.541C14.7314 17.541 14.3017 17.3229 13.9957 16.8867C13.6962 16.444 13.4586 15.2689 13.2828 13.3613C13.1005 11.4473 12.7164 10.4902 12.1305 10.4902ZM20.0852 18.4492C20.0396 18.612 19.9159 18.7487 19.7141 18.8594C19.5122 18.9701 19.3104 19.0254 19.1086 19.0254C18.4445 19.0254 18.1125 18.5404 18.1125 17.5703C18.1125 17.1081 18.2655 15.7995 18.5715 13.6445C18.7603 12.3229 18.8547 11.3203 18.8547 10.6367C18.8547 10.5195 18.718 10.3665 18.4445 10.1777C18.1646 9.99544 18.0246 9.81641 18.0246 9.64062C18.0246 9.36068 18.2362 9.05794 18.6594 8.73242C18.9849 8.47852 19.1835 8.19531 19.2551 7.88281C19.3332 7.57031 19.4211 7.13737 19.5187 6.58398C19.8508 4.56576 20.3684 3.11068 21.0715 2.21875C21.7811 1.32682 22.6828 0.880859 23.7766 0.880859C24.356 0.880859 24.8475 1.07943 25.2512 1.47656C25.6548 1.86719 25.8566 2.35547 25.8566 2.94141C25.8566 3.41667 25.7427 3.95703 25.5148 4.5625C25.2935 5.16146 25.0396 5.46094 24.7531 5.46094C24.5383 5.46094 24.4309 5.35352 24.4309 5.13867L24.4992 4.19141C24.4992 2.9349 24.1477 2.30664 23.4445 2.30664C22.6828 2.30664 22.0513 3.05534 21.55 4.55273C21.0487 6.04362 20.798 7.25781 20.798 8.19531C20.798 8.49479 20.9934 8.64453 21.384 8.64453C23.0832 8.64453 24.0826 8.63802 24.382 8.625C24.688 8.61198 24.841 8.73893 24.841 9.00586C24.841 9.27279 24.675 9.47786 24.343 9.62109C24.0174 9.75781 23.3013 9.88151 22.1945 9.99219C21.2505 10.0898 20.7167 10.1712 20.593 10.2363C20.1568 12.6582 19.9387 14.8164 19.9387 16.7109C19.9387 17.2773 19.9647 17.6973 20.0168 17.9707C20.0624 18.2246 20.0852 18.3841 20.0852 18.4492ZM28.4207 1.4668C28.8895 1.4668 29.1238 1.76628 29.1238 2.36523C29.1238 2.89909 28.8406 4.16862 28.2742 6.17383C27.9161 7.43685 27.6395 8.83008 27.4441 10.3535C27.2488 11.877 27.1512 13.0716 27.1512 13.9375C27.1512 15.0117 27.2195 16.0794 27.3563 17.1406C27.3823 17.3424 27.3953 17.4889 27.3953 17.5801C27.3953 17.9056 27.2846 18.1855 27.0633 18.4199C26.8419 18.6543 26.6076 18.7715 26.3602 18.7715C26.0151 18.7715 25.7742 18.5566 25.6375 18.127C25.5073 17.6973 25.4422 17.0039 25.4422 16.0469C25.4422 13.8659 25.7026 11.1641 26.2234 7.94141C26.7508 4.71875 27.1674 2.83398 27.4734 2.28711C27.7859 1.74023 28.1017 1.4668 28.4207 1.4668ZM37.0199 13.752C36.1866 15.1517 35.3337 16.2357 34.4613 17.0039C33.5889 17.7721 32.7784 18.1562 32.0297 18.1562C31.6 18.1562 31.1605 17.9056 30.7113 17.4043C30.2686 16.903 30.0473 16.1315 30.0473 15.0898C30.0473 14.237 30.2523 12.9805 30.6625 11.3203C31.0076 9.93359 31.1801 8.96029 31.1801 8.40039C31.3689 8.00977 31.6651 7.81445 32.0688 7.81445C32.3422 7.81445 32.5603 7.91211 32.723 8.10742C32.8858 8.29622 32.9672 8.49479 32.9672 8.70312C32.9672 9.15885 32.8077 9.80664 32.4887 10.6465C31.8832 12.2806 31.5805 13.6836 31.5805 14.8555C31.5805 15.9232 31.8279 16.457 32.3227 16.457C32.9542 16.457 33.7582 15.9199 34.7348 14.8457C35.7113 13.7715 36.5479 12.2741 37.2445 10.3535C37.518 9.58529 37.7393 9.08724 37.9086 8.85938C38.0844 8.625 38.3188 8.50781 38.6117 8.50781C39.0544 8.50781 39.2758 8.80078 39.2758 9.38672C39.2758 9.45833 39.2139 9.69596 39.0902 10.0996C38.6996 11.5254 38.5043 12.873 38.5043 14.1426C38.5043 15.666 38.7549 16.6523 39.2563 17.1016C39.5167 17.3424 39.6469 17.5378 39.6469 17.6875C39.6469 17.8698 39.5134 18.0358 39.2465 18.1855C38.9861 18.3353 38.7484 18.4102 38.5336 18.4102C38.0779 18.4102 37.71 18.0716 37.4301 17.3945C37.1501 16.7174 37.0102 15.7181 37.0102 14.3965V14.0742C37.0102 13.9701 37.0134 13.8626 37.0199 13.752ZM50.0918 14.6895C50.0918 15.3535 49.5026 16.1543 48.3242 17.0918C47.1523 18.0293 45.9414 18.498 44.6914 18.498C43.6432 18.498 42.8327 18.1888 42.2598 17.5703C41.6934 16.9518 41.4102 16.0892 41.4102 14.9824C41.4102 13.1204 42.0384 11.3496 43.2949 9.66992C44.5514 7.99023 45.9251 7.15039 47.416 7.15039C47.9043 7.15039 48.3014 7.3099 48.6074 7.62891C48.9199 7.94792 49.0762 8.33203 49.0762 8.78125C49.0762 9.78385 48.5846 10.7441 47.6016 11.6621C46.6185 12.5801 45.3034 13.4818 43.6562 14.3672C43.3177 14.543 43.1484 14.7708 43.1484 15.0508C43.1484 15.5911 43.3047 16.0241 43.6172 16.3496C43.9297 16.6751 44.3919 16.8379 45.0039 16.8379C46.4036 16.8379 47.8327 16.0632 49.291 14.5137C49.5059 14.2988 49.6686 14.1914 49.7793 14.1914C49.9876 14.1914 50.0918 14.3574 50.0918 14.6895ZM43.3047 13.166C46.0651 11.5254 47.4453 10.207 47.4453 9.21094C47.4453 8.82031 47.2695 8.625 46.918 8.625C46.319 8.625 45.6419 9.06445 44.8867 9.94336C44.138 10.8223 43.6107 11.8965 43.3047 13.166ZM58.193 10.4902C57.8544 10.4902 57.4833 10.7116 57.0797 11.1543C56.6826 11.597 56.0738 12.5898 55.2535 14.1328C54.1728 16.2031 53.4729 17.3815 53.1539 17.668C52.8414 17.9544 52.581 18.0977 52.3727 18.0977C51.6044 18.0977 51.2203 17.7266 51.2203 16.9844C51.2203 16.6719 51.2724 16.2292 51.3766 15.6562C51.7346 13.6901 51.9137 11.6165 51.9137 9.43555C51.9137 9.18815 52.0178 8.91471 52.2262 8.61523C52.441 8.30924 52.6428 8.15625 52.8316 8.15625C53.1702 8.15625 53.4111 8.26042 53.5543 8.46875C53.6975 8.67708 53.7691 9.09701 53.7691 9.72852C53.7691 10.3861 53.5738 11.7402 53.1832 13.791C53.053 14.4681 52.9879 14.8978 52.9879 15.0801C52.9879 15.1842 53.0139 15.2363 53.066 15.2363C53.1637 15.2363 53.6161 14.4583 54.4234 12.9023C55.2372 11.3203 55.9501 10.207 56.5621 9.5625C57.1741 8.91797 57.8479 8.5957 58.5836 8.5957C59.1695 8.5957 59.6448 8.86263 60.0094 9.39648C60.3805 9.93034 60.6507 10.9036 60.8199 12.3164C61.0022 13.9245 61.165 14.9271 61.3082 15.3242C61.4579 15.7148 61.6923 15.9102 62.0113 15.9102C62.2132 15.9102 62.4671 15.8385 62.773 15.6953C62.8251 15.6693 62.8642 15.6562 62.8902 15.6562C63.1702 15.6562 63.3102 15.819 63.3102 16.1445C63.3102 16.431 63.1181 16.737 62.734 17.0625C62.3499 17.3815 61.8876 17.541 61.3473 17.541C60.7939 17.541 60.3642 17.3229 60.0582 16.8867C59.7587 16.444 59.5211 15.2689 59.3453 13.3613C59.163 11.4473 58.7789 10.4902 58.193 10.4902ZM72.4953 17.8926C72.326 17.821 72.1633 17.7428 72.007 17.6582C71.4341 17.3717 70.6594 17.2285 69.6828 17.2285C69.1164 17.2285 68.1724 17.3392 66.8508 17.5605C65.5292 17.7754 64.6275 18.1074 64.1457 18.5566C63.8137 18.8496 63.4654 18.9961 63.1008 18.9961C62.899 18.9961 62.6743 18.9375 62.427 18.8203C62.173 18.7031 62.0396 18.5436 62.0266 18.3418C62.3326 18.0033 62.7557 17.5605 63.2961 17.0137C66.2323 14.0319 68.4654 11.5579 69.9953 9.5918C69.9693 9.5332 69.8651 9.50391 69.6828 9.50391C69.3378 9.50391 68.6021 9.58529 67.4758 9.74805C66.968 9.82617 66.4406 9.86523 65.8937 9.86523C64.5591 9.86523 63.8918 9.51367 63.8918 8.81055C63.8918 8.27669 64.188 8.00977 64.7805 8.00977C64.813 8.00977 64.8749 8.02604 64.966 8.05859C65.4348 8.25391 66.0012 8.35156 66.6652 8.35156C67.5441 8.35156 68.537 8.27995 69.6437 8.13672C69.7544 8.11719 69.8846 8.09766 70.0344 8.07812C70.1776 8.0651 70.3436 8.03906 70.5324 8C70.91 7.9349 71.2095 7.90234 71.4309 7.90234C71.6522 7.90234 71.8768 7.96094 72.1047 8.07812C72.3391 8.19531 72.44 8.38411 72.4074 8.64453L72.3977 8.68359C72.2544 9.25 70.5324 11.2943 67.2316 14.8164C66.4374 15.6693 66.0109 16.1738 65.9523 16.3301C65.9784 16.3952 66.0435 16.4277 66.1477 16.4277C66.2388 16.4277 66.6945 16.3398 67.5148 16.1641C69.0513 15.832 70.2167 15.666 71.0109 15.666C72.2544 15.666 72.8762 16.0436 72.8762 16.7988C72.8762 17.2741 72.7492 17.6387 72.4953 17.8926ZM76.5145 18.4883C75.6225 18.4883 74.8868 18.1497 74.3074 17.4727C73.728 16.7956 73.4383 15.959 73.4383 14.9629C73.4383 13.2832 74.0014 11.6296 75.1277 10.002C76.2605 8.36784 77.6147 7.55078 79.1902 7.55078C80.2319 7.55078 81.075 7.95117 81.7195 8.75195C82.3706 9.55273 82.6961 10.5065 82.6961 11.6133C82.6961 13.306 82.0255 14.875 80.6844 16.3203C79.3497 17.7656 77.9598 18.4883 76.5145 18.4883ZM75.157 14.709C75.157 15.3665 75.2937 15.9036 75.5672 16.3203C75.8471 16.737 76.215 16.9453 76.6707 16.9453C77.6408 16.9453 78.6141 16.4147 79.5906 15.3535C80.5672 14.2858 81.0555 13.1009 81.0555 11.7988C81.0555 10.998 80.8667 10.3503 80.4891 9.85547C80.118 9.35417 79.6167 9.10352 78.9852 9.10352C77.937 9.10352 77.0353 9.74805 76.2801 11.0371C75.5314 12.3197 75.157 13.5436 75.157 14.709Z" fill="#2E2E2E"/>
</svg>
