<svg width="56" height="15" viewBox="0 0 56 15" fill="none" xmlns="http://www.w3.org/2000/svg">
<path d="M1.4 14H2.98023e-08V0.999999H1.4V14ZM6.59063 14H5.19063V0.999999H5.79063L6.29063 2.3C6.93063 1.23333 7.81729 0.7 8.95063 0.7C10.9106 0.7 11.8906 1.63333 11.8906 3.5V14H10.4906V3.5C10.4906 2.99333 10.3773 2.6 10.1506 2.32C9.93729 2.04 9.53729 1.9 8.95063 1.9C8.36396 1.9 7.82396 2.12667 7.33063 2.58C6.83729 3.03333 6.59063 3.47333 6.59063 3.9V14ZM21.8584 11.5C21.8584 13.3667 20.7318 14.3 18.4784 14.3C16.2251 14.3 15.0984 13.3667 15.0984 11.5V9.8H16.4984V11.58C16.4984 12.06 16.6651 12.4333 16.9984 12.7C17.3318 12.9667 17.8251 13.1 18.4784 13.1C19.1318 13.1 19.6251 12.9667 19.9584 12.7C20.2918 12.4333 20.4584 12.0733 20.4584 11.62C20.4584 11.1533 20.4051 10.7867 20.2984 10.52C20.2051 10.24 20.0051 9.94667 19.6984 9.64L16.1784 6.2C15.7651 5.78667 15.4784 5.38667 15.3184 5C15.1718 4.6 15.0984 4.1 15.0984 3.5C15.0984 2.60667 15.3718 1.92 15.9184 1.44C16.4784 0.946666 17.3184 0.7 18.4384 0.7C20.5851 0.7 21.6584 1.63333 21.6584 3.5V5.2H20.2584V3.42C20.2584 2.94 20.0984 2.56667 19.7784 2.3C19.4718 2.03333 19.0051 1.9 18.3784 1.9C17.7518 1.9 17.2784 2.03333 16.9584 2.3C16.6518 2.56667 16.4984 2.93333 16.4984 3.4C16.4984 3.86667 16.5451 4.23333 16.6384 4.5C16.7318 4.76667 16.9384 5.04667 17.2584 5.34L20.8384 8.78C21.2251 9.20667 21.4918 9.62 21.6384 10.02C21.7851 10.4067 21.8584 10.9 21.8584 11.5ZM26.6594 14H25.2594V0.999999H26.6594V14ZM33.11 8.6V7.4H36.75V11.5C36.75 12.3933 36.4767 13.0867 35.93 13.58C35.3833 14.06 34.5633 14.3 33.47 14.3C32.3767 14.3 31.55 14.06 30.99 13.58C30.43 13.0867 30.15 12.3933 30.15 11.5V3.5C30.15 2.60667 30.4233 1.92 30.97 1.44C31.5167 0.946666 32.3367 0.7 33.43 0.7C34.5233 0.7 35.35 0.946666 35.91 1.44C36.47 1.92 36.75 2.60667 36.75 3.5V4.6H35.35V3.5C35.35 2.43333 34.7167 1.9 33.45 1.9C32.1833 1.9 31.55 2.43333 31.55 3.5V11.5C31.55 12.5667 32.1833 13.1 33.45 13.1C34.7167 13.1 35.35 12.5667 35.35 11.5V8.6H33.11ZM41.65 14H40.25V0.999999H41.65V6.8H45.59V0.999999H46.99V14H45.59V8H41.65V14ZM50.4922 0.999999H54.8922V2.2H51.8922V11.78C51.8922 12.1533 51.9855 12.4667 52.1722 12.72C52.3722 12.9733 52.6455 13.1 52.9922 13.1C53.3522 13.1 53.6255 12.98 53.8122 12.74C53.9989 12.4867 54.0922 12.1667 54.0922 11.78V9.4H55.4922V11.7C55.4922 12.54 55.2655 13.1867 54.8122 13.64C54.3722 14.08 53.7722 14.3 53.0122 14.3C52.2522 14.3 51.6389 14.08 51.1722 13.64C50.7189 13.1867 50.4922 12.54 50.4922 11.7V0.999999Z" fill="#2E2E2E"/>
</svg>
