<svg width="101" height="21" viewBox="0 0 101 21" fill="none" xmlns="http://www.w3.org/2000/svg">
<path d="M3.672 16.192C2.448 16.192 1.56 15.352 1.56 13.36C1.56 10.744 1.728 5.656 1.728 3.376C1.728 1.336 0.744 1.84 0.744 1.216C0.744 0.615999 1.968 0.303999 2.808 0.303999C3.816 0.303999 4.296 0.951999 4.296 2.44C4.296 4.576 4.08 11.224 4.08 12.904C4.08 15.04 5.472 14.392 5.472 15.088C5.472 15.688 4.608 16.192 3.672 16.192ZM11.2583 16.264C8.33025 16.264 6.31425 14.152 6.31425 10.816C6.31425 7.264 8.57025 4.984 11.7622 4.984C14.5703 4.984 15.8903 6.4 15.8903 8.128C15.8903 10.312 13.7303 11.56 9.21825 11.56C9.05025 11.56 8.97825 11.632 8.97825 11.752C8.97825 13.552 10.2983 14.536 11.8343 14.536C13.8983 14.536 14.6903 13.264 15.2423 13.264C15.5063 13.264 15.6503 13.408 15.6503 13.696C15.6503 14.512 14.1623 16.264 11.2583 16.264ZM9.26625 10.456C12.3142 10.456 13.3223 9.544 13.3223 8.152C13.3223 7.024 12.8423 6.232 11.5942 6.232C10.0583 6.232 8.95425 7.624 8.95425 9.952C8.95425 10.336 9.05025 10.456 9.26625 10.456ZM26.2785 16.144C24.6225 16.144 24.9585 14.008 24.6465 14.008C24.3585 14.008 23.6625 16.192 21.0705 16.192C18.4545 16.192 16.9905 13.936 16.9905 10.624C16.9905 7.288 18.9585 4.984 21.5025 4.984C23.7585 4.984 24.5025 6.688 24.7425 6.688C24.9825 6.688 25.5345 5.032 26.3265 5.032C26.8545 5.032 27.0705 5.368 27.0705 5.92C27.0705 6.568 26.7345 9.04 26.7345 11.08C26.7345 15.28 28.1505 14.368 28.1505 15.064C28.1505 15.736 27.0225 16.144 26.2785 16.144ZM21.8385 14.608C23.4225 14.608 24.2385 12.616 24.2385 10.12C24.2385 8.224 23.5665 6.328 22.0305 6.328C20.4945 6.328 19.6305 8.2 19.6305 10.576C19.6305 12.952 20.3985 14.608 21.8385 14.608ZM31.0672 16.12C30.0832 16.12 29.7232 15.808 29.7232 15.352C29.7232 15.064 29.9152 11.536 29.9152 9.904C29.9152 6.064 28.4992 6.784 28.4992 6.16C28.4992 5.488 29.8192 5.104 30.5392 5.104C32.3632 5.104 31.8832 7.768 32.1952 7.768C32.5072 7.768 33.0592 5.08 35.2912 5.08C36.2272 5.08 36.7073 5.464 36.7073 5.992C36.7073 6.784 36.4672 7.936 35.9632 7.936C35.4112 7.936 35.0993 7.288 34.4512 7.288C33.5152 7.288 32.3392 8.536 32.3392 12.088C32.3392 13.552 32.4112 14.992 32.4112 15.28C32.4112 15.592 32.3392 16.12 31.0672 16.12ZM39.8423 16.12C38.9543 16.12 38.5463 15.808 38.5463 15.352C38.5463 14.896 38.8103 11.92 38.8103 9.568C38.8103 6.16 37.3943 6.784 37.3943 6.16C37.3943 5.488 38.7143 5.104 39.4343 5.104C41.1383 5.104 40.7543 7.192 41.0663 7.192C41.3543 7.192 42.1223 4.984 44.7863 4.984C47.1383 4.984 47.9543 6.832 47.9543 8.536C47.9543 9.832 47.6423 11.488 47.6423 12.664C47.6423 15.064 49.0583 14.44 49.0583 15.064C49.0583 15.688 48.2183 16.192 47.2823 16.192C46.0583 16.192 45.1703 15.328 45.1703 13.216C45.1703 11.68 45.4103 9.88 45.4103 8.632C45.4103 7.336 44.8823 6.592 43.9463 6.592C42.5543 6.592 41.2343 8.176 41.2343 12.304V15.304C41.2343 15.808 40.9703 16.12 39.8423 16.12ZM55.1653 16.264C51.9733 16.264 49.9333 14.104 49.9333 10.648C49.9333 7.168 51.9733 5.008 55.1653 5.008C58.3573 5.008 60.3973 7.168 60.3973 10.624C60.3973 14.104 58.3573 16.264 55.1653 16.264ZM55.1653 14.992C56.7973 14.992 57.6853 13.504 57.6853 10.624C57.6853 7.72 56.8213 6.28 55.1653 6.28C53.5093 6.28 52.6213 7.72 52.6213 10.624C52.6213 13.504 53.5333 14.992 55.1653 14.992ZM64.4717 16.192C63.2477 16.192 62.3597 15.352 62.3597 13.36C62.3597 10.744 62.5277 5.656 62.5277 3.376C62.5277 1.336 61.5437 1.84 61.5437 1.216C61.5437 0.615999 62.7677 0.303999 63.6077 0.303999C64.6157 0.303999 65.0957 0.951999 65.0957 2.44C65.0957 4.576 64.8797 11.224 64.8797 12.904C64.8797 15.04 66.2717 14.392 66.2717 15.088C66.2717 15.688 65.4077 16.192 64.4717 16.192ZM72.3459 16.264C69.1539 16.264 67.1139 14.104 67.1139 10.648C67.1139 7.168 69.1539 5.008 72.3459 5.008C75.5379 5.008 77.5779 7.168 77.5779 10.624C77.5779 14.104 75.5379 16.264 72.3459 16.264ZM72.3459 14.992C73.9779 14.992 74.8659 13.504 74.8659 10.624C74.8659 7.72 74.0019 6.28 72.3459 6.28C70.6899 6.28 69.8019 7.72 69.8019 10.624C69.8019 13.504 70.7139 14.992 72.3459 14.992ZM83.8363 20.392C81.4123 20.392 79.6363 19.024 79.6363 18.28C79.6363 17.536 80.0923 16.624 80.5723 16.624C81.3643 16.624 81.9643 19.072 84.0283 19.072C86.0203 19.072 86.3323 17.944 86.4043 15.976C86.4283 15.64 86.4283 14.728 86.4283 14.56C86.4283 14.272 86.4043 14.224 86.3083 14.224C86.0923 14.224 85.4683 15.88 83.0923 15.88C80.7643 15.88 78.8683 13.96 78.8683 10.576C78.8683 7.288 80.7643 4.984 83.4283 4.984C85.6363 4.984 86.3803 6.688 86.6203 6.688C86.8603 6.688 87.4123 5.032 88.2283 5.032C88.7323 5.032 88.9483 5.368 88.9483 5.92C88.9483 6.544 88.7083 8.368 88.7083 11.2V15.544C88.7083 18.208 87.6283 20.392 83.8363 20.392ZM83.7643 14.464C85.3003 14.464 86.1883 12.664 86.1883 10.288C86.1883 8.416 85.5163 6.328 83.9323 6.328C82.3483 6.328 81.5083 8.152 81.5083 10.456C81.5083 12.784 82.2523 14.464 83.7643 14.464ZM95.5404 20.392C93.0684 20.392 91.3404 19.024 91.3404 18.28C91.3404 17.536 91.7964 16.624 92.2764 16.624C93.0684 16.624 93.6684 19.072 95.7324 19.072C97.5564 19.072 98.0604 18.136 98.0604 15.472V14.296C98.0604 14.008 98.0604 13.96 97.9884 13.96C97.7484 13.96 96.9084 15.784 94.6044 15.784C92.0604 15.784 91.3404 14.056 91.3404 12.256C91.3404 10.912 91.4844 9.784 91.4844 8.512C91.4844 6.256 90.5004 6.784 90.5004 6.136C90.5004 5.536 91.6044 5.128 92.4684 5.128C93.4284 5.128 94.0284 5.944 94.0284 7.576C94.0284 9.448 93.8604 10.864 93.8604 12.184C93.8604 13.576 94.3884 14.296 95.3244 14.296C96.7164 14.296 97.9164 12.688 97.9164 9.352V5.968C97.9164 5.464 98.2044 5.152 99.3084 5.152C100.22 5.152 100.604 5.464 100.604 5.92C100.604 6.376 100.364 9.064 100.364 11.416V15.328C100.364 18.112 99.3324 20.392 95.5404 20.392Z" fill="#2E2E2E"/>
</svg>
