<svg width="99" height="14" viewBox="0 0 99 14" fill="none" xmlns="http://www.w3.org/2000/svg">
<path d="M4.32 2.074H0.414V0.399999H10.332V2.074H6.444V13H4.32V2.074ZM15.4107 13C13.8867 13 12.7767 12.676 12.0807 12.028C11.3847 11.368 11.0367 10.402 11.0367 9.13V4.27C11.0367 2.998 11.3847 2.038 12.0807 1.39C12.7767 0.729999 13.8867 0.399999 15.4107 0.399999H19.6587V2.074H15.4107C14.6427 2.074 14.0727 2.254 13.7007 2.614C13.3407 2.962 13.1607 3.514 13.1607 4.27V5.872H18.8307V7.528H13.1607V9.13C13.1607 9.886 13.3407 10.444 13.7007 10.804C14.0727 11.152 14.6427 11.326 15.4107 11.326H19.7307V13H15.4107ZM25.4393 13C23.9153 13 22.8053 12.676 22.1093 12.028C21.4133 11.368 21.0653 10.402 21.0653 9.13V4.27C21.0653 2.998 21.4133 2.038 22.1093 1.39C22.8053 0.729999 23.9153 0.399999 25.4393 0.399999H29.6873V2.074H25.4393C24.6713 2.074 24.1013 2.254 23.7293 2.614C23.3693 2.962 23.1893 3.514 23.1893 4.27V5.872H28.8593V7.528H23.1893V9.13C23.1893 9.886 23.3693 10.444 23.7293 10.804C24.1013 11.152 24.6713 11.326 25.4393 11.326H29.7593V13H25.4393ZM41.822 0.399999V10.39C41.822 11.254 41.642 11.908 41.282 12.352C40.934 12.784 40.376 13 39.608 13H38.114L33.668 3.73V13H31.67V0.399999H34.1L39.23 11.182H39.32C39.512 11.182 39.644 11.104 39.716 10.948C39.788 10.78 39.824 10.492 39.824 10.084V0.399999H41.822ZM51.6157 2.074H47.7097V0.399999H57.6277V2.074H53.7397V13H51.6157V2.074ZM64.577 9.688H59.411L58.421 13H56.297L59.447 2.794C59.651 2.122 59.861 1.6 60.077 1.228C60.305 0.855999 60.569 0.591999 60.869 0.436C61.169 0.268 61.547 0.184 62.003 0.184C62.447 0.184 62.819 0.268 63.119 0.436C63.419 0.591999 63.683 0.855999 63.911 1.228C64.139 1.6 64.355 2.122 64.559 2.794L67.691 13H65.567L64.577 9.688ZM64.109 8.104L62.543 2.83C62.471 2.59 62.393 2.416 62.309 2.308C62.237 2.2 62.135 2.146 62.003 2.146C61.871 2.146 61.763 2.2 61.679 2.308C61.595 2.416 61.517 2.59 61.445 2.83L59.879 8.104H64.109ZM72.7698 13C71.2818 13 70.2018 12.676 69.5298 12.028C68.8698 11.368 68.5398 10.402 68.5398 9.13V0.399999H70.6638V9.13C70.6638 9.886 70.8318 10.444 71.1678 10.804C71.5158 11.152 72.0498 11.326 72.7698 11.326H76.8018V13H72.7698ZM84.2858 5.35C84.8498 5.47 85.3118 5.662 85.6718 5.926C86.0318 6.19 86.3378 6.55 86.5898 7.006C86.8538 7.462 87.1178 8.068 87.3818 8.824L88.7678 13H86.6258L85.2938 9.022C85.1258 8.518 84.9578 8.128 84.7898 7.852C84.6218 7.576 84.3938 7.354 84.1058 7.186C83.8178 7.018 83.4158 6.904 82.8998 6.844L80.6678 9.274V13H78.5438V0.399999H80.6678V6.646L86.3198 0.399999H88.8578L84.2858 5.35ZM93.7266 13.216C92.8986 13.216 92.1966 13.132 91.6206 12.964C91.0566 12.784 90.5706 12.526 90.1626 12.19C89.7546 11.854 89.3406 11.41 88.9206 10.858L90.3606 9.652C90.8526 10.336 91.3446 10.822 91.8366 11.11C92.3406 11.398 92.9646 11.542 93.7086 11.542C94.7166 11.542 95.4666 11.38 95.9586 11.056C96.4506 10.732 96.6966 10.234 96.6966 9.562C96.6966 9.19 96.5886 8.89 96.3726 8.662C96.1686 8.422 95.8026 8.218 95.2746 8.05C94.7586 7.87 93.9846 7.672 92.9526 7.456C91.7766 7.216 90.9006 6.796 90.3246 6.196C89.7486 5.596 89.4606 4.798 89.4606 3.802C89.4606 3.07 89.6466 2.434 90.0186 1.894C90.3906 1.342 90.9186 0.921999 91.6026 0.633999C92.2866 0.334 93.0906 0.184 94.0146 0.184C95.1426 0.184 96.0606 0.358 96.7686 0.705999C97.4886 1.054 98.0586 1.57 98.4786 2.254L97.0746 3.406C96.6066 2.866 96.1446 2.476 95.6886 2.236C95.2446 1.984 94.6806 1.858 93.9966 1.858C93.2286 1.858 92.6346 2.032 92.2146 2.38C91.7946 2.716 91.5846 3.196 91.5846 3.82C91.5846 4.384 91.8186 4.816 92.2866 5.116C92.7546 5.404 93.4026 5.638 94.2306 5.818C95.2986 6.034 96.1506 6.274 96.7866 6.538C97.4226 6.79 97.9206 7.156 98.2806 7.636C98.6406 8.116 98.8206 8.758 98.8206 9.562C98.8206 11.998 97.1226 13.216 93.7266 13.216Z" fill="#2E2E2E"/>
</svg>
