<svg width="62" height="16" viewBox="0 0 62 16" fill="none" xmlns="http://www.w3.org/2000/svg">
<path d="M4.16016 0.15625C4.10807 0.826823 4.06576 1.48763 4.0332 2.13867C4.00065 2.7832 3.9681 3.43099 3.93555 4.08203C4.22201 4.06901 4.50521 4.05924 4.78516 4.05273C5.0651 4.03971 5.35156 4.02344 5.64453 4.00391L5.68359 6.50391C5.37109 6.45182 5.06185 6.40951 4.75586 6.37695C4.44987 6.3444 4.15039 6.31836 3.85742 6.29883C3.83789 6.85221 3.82487 7.39909 3.81836 7.93945C3.81836 8.47982 3.81836 9.02669 3.81836 9.58008C3.81836 10.5697 3.82812 11.5527 3.84766 12.5293C3.8737 13.5059 3.91276 14.4889 3.96484 15.4785L1.41602 15.4395C1.50065 13.9095 1.56901 12.3828 1.62109 10.8594C1.67969 9.32943 1.71875 7.78971 1.73828 6.24023C1.46484 6.25326 1.19141 6.26953 0.917969 6.28906C0.644531 6.30208 0.364583 6.31836 0.078125 6.33789L0.15625 4.02344C0.423177 4.04297 0.686849 4.05924 0.947266 4.07227C1.21419 4.07878 1.47786 4.08854 1.73828 4.10156C1.73828 3.45052 1.73177 2.80273 1.71875 2.1582C1.70573 1.50716 1.69271 0.852865 1.67969 0.195312L4.16016 0.15625ZM13.218 12.9004C13.218 13.2845 13.1301 13.6458 12.9543 13.9844C12.7785 14.3229 12.5409 14.6159 12.2414 14.8633C11.9419 15.1107 11.5904 15.306 11.1867 15.4492C10.7831 15.5924 10.3534 15.6641 9.89766 15.6641C9.59167 15.6641 9.28242 15.6217 8.96992 15.5371C8.65742 15.4525 8.35794 15.3125 8.07148 15.1172C7.78503 14.9219 7.51484 14.6647 7.26094 14.3457C7.00703 14.0267 6.78568 13.6361 6.59688 13.1738C6.41458 12.7116 6.2681 12.1712 6.15742 11.5527C6.05326 10.9277 6.00117 10.2116 6.00117 9.4043C6.00117 8.64258 6.05326 7.96875 6.15742 7.38281C6.2681 6.79688 6.41458 6.28581 6.59688 5.84961C6.78568 5.41341 7.00378 5.04883 7.25117 4.75586C7.49857 4.45638 7.76224 4.21549 8.04219 4.0332C8.32865 3.8444 8.62161 3.71094 8.92109 3.63281C9.22708 3.55469 9.52656 3.51562 9.81953 3.51562C10.2557 3.51562 10.6691 3.58724 11.0598 3.73047C11.4504 3.86719 11.7922 4.07227 12.0852 4.3457C12.3781 4.61914 12.6092 4.95768 12.7785 5.36133C12.9543 5.75846 13.0422 6.21745 13.0422 6.73828C13.0422 7.20703 12.9445 7.68229 12.7492 8.16406C12.5604 8.63932 12.2772 9.0918 11.8996 9.52148C11.522 9.94466 11.0533 10.332 10.4934 10.6836C9.93997 11.0286 9.30195 11.3021 8.5793 11.5039C8.61836 11.9076 8.6737 12.2754 8.74531 12.6074C8.82344 12.9395 8.91784 13.2227 9.02852 13.457C9.1457 13.6914 9.27917 13.8737 9.42891 14.0039C9.58516 14.1341 9.76419 14.1992 9.96602 14.1992C10.0962 14.1927 10.2199 14.1699 10.3371 14.1309C10.4413 14.0983 10.5454 14.0462 10.6496 13.9746C10.7603 13.903 10.8514 13.7988 10.923 13.6621C10.7538 13.584 10.6236 13.4831 10.5324 13.3594C10.4413 13.2357 10.3729 13.1185 10.3273 13.0078C10.2753 12.8776 10.246 12.7409 10.2395 12.5977C10.2395 12.2852 10.3013 12.0312 10.425 11.8359C10.5487 11.6406 10.6952 11.4876 10.8645 11.377C11.0337 11.2663 11.2063 11.1914 11.382 11.1523C11.5578 11.1068 11.6978 11.084 11.802 11.084C11.9126 11.084 12.0461 11.1068 12.2023 11.1523C12.3651 11.1979 12.5214 11.2858 12.6711 11.416C12.8208 11.5462 12.9478 11.7318 13.052 11.9727C13.1626 12.207 13.218 12.5163 13.218 12.9004ZM10.8059 6.75781C10.8059 6.52344 10.7831 6.30208 10.7375 6.09375C10.6984 5.87891 10.6366 5.69336 10.552 5.53711C10.4738 5.38086 10.3729 5.25716 10.2492 5.16602C10.132 5.06836 9.99531 5.01953 9.83906 5.01953C9.57214 5.01953 9.35404 5.14323 9.18477 5.39062C9.01549 5.63151 8.87878 5.95378 8.77461 6.35742C8.67044 6.76107 8.59883 7.22656 8.55977 7.75391C8.5207 8.28125 8.50117 8.83138 8.50117 9.4043V10.1172C8.8332 9.94141 9.13919 9.73307 9.41914 9.49219C9.7056 9.2513 9.94974 8.98763 10.1516 8.70117C10.3599 8.4082 10.5194 8.09896 10.6301 7.77344C10.7473 7.44792 10.8059 7.10938 10.8059 6.75781ZM21.0453 12.9004C21.0453 13.2845 20.9574 13.6458 20.7816 13.9844C20.6059 14.3229 20.3682 14.6159 20.0688 14.8633C19.7693 15.1107 19.4177 15.306 19.0141 15.4492C18.6104 15.5924 18.1807 15.6641 17.725 15.6641C17.419 15.6641 17.1098 15.6217 16.7973 15.5371C16.4848 15.4525 16.1853 15.3125 15.8988 15.1172C15.6124 14.9219 15.3422 14.6647 15.0883 14.3457C14.8344 14.0267 14.613 13.6361 14.4242 13.1738C14.2419 12.7116 14.0954 12.1712 13.9848 11.5527C13.8806 10.9277 13.8285 10.2116 13.8285 9.4043C13.8285 8.64258 13.8806 7.96875 13.9848 7.38281C14.0954 6.79688 14.2419 6.28581 14.4242 5.84961C14.613 5.41341 14.8311 5.04883 15.0785 4.75586C15.3259 4.45638 15.5896 4.21549 15.8695 4.0332C16.156 3.8444 16.449 3.71094 16.7484 3.63281C17.0544 3.55469 17.3539 3.51562 17.6469 3.51562C18.0831 3.51562 18.4965 3.58724 18.8871 3.73047C19.2777 3.86719 19.6195 4.07227 19.9125 4.3457C20.2055 4.61914 20.4366 4.95768 20.6059 5.36133C20.7816 5.75846 20.8695 6.21745 20.8695 6.73828C20.8695 7.20703 20.7719 7.68229 20.5766 8.16406C20.3878 8.63932 20.1046 9.0918 19.727 9.52148C19.3493 9.94466 18.8806 10.332 18.3207 10.6836C17.7673 11.0286 17.1293 11.3021 16.4066 11.5039C16.4457 11.9076 16.501 12.2754 16.5727 12.6074C16.6508 12.9395 16.7452 13.2227 16.8559 13.457C16.973 13.6914 17.1065 13.8737 17.2563 14.0039C17.4125 14.1341 17.5915 14.1992 17.7934 14.1992C17.9236 14.1927 18.0473 14.1699 18.1645 14.1309C18.2686 14.0983 18.3728 14.0462 18.477 13.9746C18.5876 13.903 18.6788 13.7988 18.7504 13.6621C18.5811 13.584 18.4509 13.4831 18.3598 13.3594C18.2686 13.2357 18.2003 13.1185 18.1547 13.0078C18.1026 12.8776 18.0733 12.7409 18.0668 12.5977C18.0668 12.2852 18.1286 12.0312 18.2523 11.8359C18.376 11.6406 18.5225 11.4876 18.6918 11.377C18.8611 11.2663 19.0336 11.1914 19.2094 11.1523C19.3852 11.1068 19.5251 11.084 19.6293 11.084C19.74 11.084 19.8734 11.1068 20.0297 11.1523C20.1924 11.1979 20.3487 11.2858 20.4984 11.416C20.6482 11.5462 20.7751 11.7318 20.8793 11.9727C20.99 12.207 21.0453 12.5163 21.0453 12.9004ZM18.6332 6.75781C18.6332 6.52344 18.6104 6.30208 18.5648 6.09375C18.5258 5.87891 18.4639 5.69336 18.3793 5.53711C18.3012 5.38086 18.2003 5.25716 18.0766 5.16602C17.9594 5.06836 17.8227 5.01953 17.6664 5.01953C17.3995 5.01953 17.1814 5.14323 17.0121 5.39062C16.8428 5.63151 16.7061 5.95378 16.602 6.35742C16.4978 6.76107 16.4262 7.22656 16.3871 7.75391C16.348 8.28125 16.3285 8.83138 16.3285 9.4043V10.1172C16.6605 9.94141 16.9665 9.73307 17.2465 9.49219C17.5329 9.2513 17.7771 8.98763 17.9789 8.70117C18.1872 8.4082 18.3467 8.09896 18.4574 7.77344C18.5746 7.44792 18.6332 7.10938 18.6332 6.75781ZM24.4781 4.17969L24.4195 4.98047C24.6344 4.6224 24.8622 4.34896 25.1031 4.16016C25.3505 3.97135 25.5784 3.83789 25.7867 3.75977C25.9951 3.68164 26.1676 3.63932 26.3043 3.63281C26.4475 3.6263 26.5257 3.62305 26.5387 3.62305C27.0204 3.62305 27.4404 3.73372 27.7984 3.95508C28.1565 4.17643 28.4527 4.4987 28.6871 4.92188C28.9215 5.33854 29.094 5.84961 29.2047 6.45508C29.3219 7.05404 29.3805 7.73438 29.3805 8.49609C29.3805 9.05599 29.3707 9.62891 29.3512 10.2148C29.3382 10.7943 29.3056 11.3737 29.2535 11.9531C29.2079 12.526 29.1428 13.0859 29.0582 13.6328C28.9801 14.1797 28.8727 14.7005 28.7359 15.1953L26.4605 14.9219C26.6103 14.1471 26.7275 13.4245 26.8121 12.7539C26.8967 12.0833 26.9586 11.4974 26.9977 10.9961C27.0432 10.4102 27.0693 9.87305 27.0758 9.38477C27.0758 8.76628 27.0562 8.22917 27.0172 7.77344C26.9781 7.3112 26.9065 6.93034 26.8023 6.63086C26.7047 6.32487 26.568 6.09701 26.3922 5.94727C26.2164 5.79753 25.9918 5.72266 25.7184 5.72266C25.5361 5.76172 25.3538 5.89193 25.1715 6.11328C25.0152 6.30208 24.8492 6.60482 24.6734 7.02148C24.4977 7.43164 24.3447 8.01107 24.2145 8.75977C24.1949 9.26758 24.1819 9.77214 24.1754 10.2734C24.1754 10.7682 24.1754 11.2956 24.1754 11.8555C24.1754 12.3307 24.1754 12.8418 24.1754 13.3887C24.1754 13.9355 24.1819 14.554 24.1949 15.2441L21.9781 15.1953C21.9977 14.5312 22.0107 13.8281 22.0172 13.0859C22.0302 12.3372 22.0367 11.5072 22.0367 10.5957C22.0367 9.69076 22.0302 8.71094 22.0172 7.65625C22.0042 6.60156 21.9781 5.42969 21.9391 4.14062L24.4781 4.17969ZM37.5887 6.69922C37.5887 7.14844 37.5268 7.50651 37.4031 7.77344C37.2859 8.03385 37.1427 8.23242 36.9734 8.36914C36.8107 8.49935 36.6414 8.58398 36.4656 8.62305C36.2964 8.66211 36.1564 8.68164 36.0457 8.68164C35.935 8.68164 35.8016 8.66536 35.6453 8.63281C35.4891 8.59375 35.3361 8.52214 35.1863 8.41797C35.0431 8.30729 34.9194 8.1543 34.8152 7.95898C34.7176 7.75716 34.6688 7.49674 34.6688 7.17773C34.6753 7.00195 34.7078 6.82943 34.7664 6.66016C34.8185 6.51693 34.8966 6.37044 35.0008 6.2207C35.1049 6.07096 35.2547 5.94401 35.45 5.83984C35.3393 5.59245 35.2156 5.40365 35.0789 5.27344C34.9487 5.14323 34.8217 5.04557 34.698 4.98047C34.5548 4.90885 34.4116 4.86328 34.2684 4.84375C34.0275 4.84375 33.8094 4.95443 33.6141 5.17578C33.4188 5.39714 33.2527 5.70964 33.116 6.11328C32.9793 6.51042 32.8719 6.98893 32.7938 7.54883C32.7221 8.10872 32.6863 8.72721 32.6863 9.4043C32.6863 10.0749 32.7091 10.7031 32.7547 11.2891C32.8068 11.8685 32.8882 12.3763 32.9988 12.8125C33.1095 13.2422 33.2592 13.5807 33.448 13.8281C33.6368 14.0755 33.8712 14.1992 34.1512 14.1992C34.3009 14.1927 34.4507 14.1569 34.6004 14.0918C34.7306 14.0397 34.8673 13.9551 35.0105 13.8379C35.1603 13.7142 35.2938 13.5417 35.4109 13.3203C35.1831 13.2096 35.0073 13.0762 34.8836 12.9199C34.7664 12.7572 34.6818 12.6009 34.6297 12.4512C34.5646 12.2754 34.5288 12.0931 34.5223 11.9043C34.5223 11.5918 34.5841 11.3379 34.7078 11.1426C34.8315 10.9473 34.978 10.7943 35.1473 10.6836C35.3165 10.5664 35.4891 10.4883 35.6648 10.4492C35.8406 10.4036 35.9806 10.3809 36.0848 10.3809C36.1954 10.3809 36.3322 10.4036 36.4949 10.4492C36.6577 10.4948 36.8139 10.5827 36.9637 10.7129C37.1134 10.8431 37.2404 11.0286 37.3445 11.2695C37.4552 11.5039 37.5105 11.8132 37.5105 12.1973C37.5105 12.5814 37.4161 12.9785 37.2273 13.3887C37.0451 13.7988 36.7944 14.1732 36.4754 14.5117C36.1629 14.8503 35.7983 15.127 35.3816 15.3418C34.9715 15.5566 34.5385 15.6641 34.0828 15.6641C33.7768 15.6641 33.4676 15.6217 33.1551 15.5371C32.8426 15.4525 32.5431 15.3125 32.2566 15.1172C31.9702 14.9219 31.7 14.6647 31.4461 14.3457C31.1922 14.0267 30.9708 13.6361 30.782 13.1738C30.5997 12.7116 30.4533 12.1712 30.3426 11.5527C30.2384 10.9277 30.1863 10.2116 30.1863 9.4043C30.1863 8.59701 30.2449 7.89062 30.3621 7.28516C30.4793 6.67318 30.6388 6.14909 30.8406 5.71289C31.049 5.27669 31.2866 4.91536 31.5535 4.62891C31.8204 4.34245 32.1036 4.11458 32.4031 3.94531C32.7091 3.77604 33.0216 3.65885 33.3406 3.59375C33.6596 3.52865 33.9689 3.49609 34.2684 3.49609C34.7111 3.49609 35.1342 3.58073 35.5379 3.75C35.9415 3.91276 36.2931 4.14062 36.5926 4.43359C36.8986 4.72005 37.1395 5.05859 37.3152 5.44922C37.4975 5.83984 37.5887 6.25651 37.5887 6.69922ZM41.8711 15.5566C41.2266 15.5566 40.6699 15.4167 40.2012 15.1367C39.7389 14.8568 39.3548 14.4661 39.0488 13.9648C38.7493 13.4635 38.528 12.8678 38.3848 12.1777C38.2415 11.4876 38.1699 10.7357 38.1699 9.92188C38.1699 8.97786 38.2546 8.11198 38.4238 7.32422C38.5931 6.53646 38.8405 5.85938 39.166 5.29297C39.498 4.72656 39.9049 4.28711 40.3867 3.97461C40.875 3.6556 41.4349 3.49609 42.0664 3.49609C42.7044 3.49609 43.2546 3.62956 43.7168 3.89648C44.179 4.16341 44.5599 4.53776 44.8594 5.01953C45.1654 5.5013 45.39 6.07747 45.5332 6.74805C45.6764 7.41862 45.748 8.15755 45.748 8.96484C45.748 9.38151 45.722 9.83398 45.6699 10.3223C45.6243 10.8105 45.543 11.2988 45.4258 11.7871C45.3151 12.2754 45.1654 12.7474 44.9766 13.2031C44.7878 13.6523 44.5501 14.0527 44.2637 14.4043C43.9772 14.7559 43.6354 15.0358 43.2383 15.2441C42.8477 15.4525 42.3919 15.5566 41.8711 15.5566ZM43.3945 8.24219C43.3945 7.7474 43.3717 7.30469 43.3262 6.91406C43.2806 6.51693 43.2057 6.18164 43.1016 5.9082C43.0039 5.63477 42.877 5.42643 42.7207 5.2832C42.571 5.13346 42.3887 5.05859 42.1738 5.05859C41.9395 5.05859 41.7214 5.18229 41.5195 5.42969C41.3177 5.67708 41.1387 6.03516 40.9824 6.50391C40.8327 6.97266 40.7122 7.54557 40.6211 8.22266C40.5365 8.89323 40.4941 9.65169 40.4941 10.498C40.4941 11.0449 40.5202 11.5365 40.5723 11.9727C40.6243 12.4023 40.7025 12.7702 40.8066 13.0762C40.9108 13.3757 41.0378 13.6068 41.1875 13.7695C41.3438 13.9258 41.526 14.0039 41.7344 14.0039C41.9427 14.0039 42.1283 13.9193 42.291 13.75C42.4538 13.5742 42.5938 13.3398 42.7109 13.0469C42.8346 12.7539 42.9388 12.4154 43.0234 12.0312C43.1146 11.6406 43.1862 11.2337 43.2383 10.8105C43.2904 10.3809 43.3294 9.94466 43.3555 9.50195C43.3815 9.05924 43.3945 8.63932 43.3945 8.24219ZM54.2102 4.16016C53.8977 5.13021 53.6047 6.07096 53.3312 6.98242C53.0578 7.89388 52.8007 8.80534 52.5598 9.7168C52.3189 10.6217 52.091 11.5365 51.8762 12.4609C51.6613 13.3854 51.4595 14.3457 51.2707 15.3418L48.4484 15.4004C48.2727 14.4303 48.0936 13.4928 47.9113 12.5879C47.7355 11.6764 47.5467 10.7715 47.3449 9.87305C47.1496 8.97461 46.9413 8.06966 46.7199 7.1582C46.4986 6.24674 46.2609 5.30599 46.007 4.33594L48.8098 4.21875C48.9595 5.61198 49.1255 7.03451 49.3078 8.48633C49.4901 9.93815 49.7049 11.3639 49.9523 12.7637C50.2714 11.3509 50.5285 9.91211 50.7238 8.44727C50.9257 6.97591 51.0819 5.53385 51.1926 4.12109L54.2102 4.16016ZM61.432 12.9004C61.432 13.2845 61.3441 13.6458 61.1684 13.9844C60.9926 14.3229 60.7549 14.6159 60.4555 14.8633C60.156 15.1107 59.8044 15.306 59.4008 15.4492C58.9971 15.5924 58.5674 15.6641 58.1117 15.6641C57.8057 15.6641 57.4965 15.6217 57.184 15.5371C56.8715 15.4525 56.572 15.3125 56.2855 15.1172C55.9991 14.9219 55.7289 14.6647 55.475 14.3457C55.2211 14.0267 54.9997 13.6361 54.8109 13.1738C54.6286 12.7116 54.4822 12.1712 54.3715 11.5527C54.2673 10.9277 54.2152 10.2116 54.2152 9.4043C54.2152 8.64258 54.2673 7.96875 54.3715 7.38281C54.4822 6.79688 54.6286 6.28581 54.8109 5.84961C54.9997 5.41341 55.2178 5.04883 55.4652 4.75586C55.7126 4.45638 55.9763 4.21549 56.2562 4.0332C56.5427 3.8444 56.8357 3.71094 57.1352 3.63281C57.4411 3.55469 57.7406 3.51562 58.0336 3.51562C58.4698 3.51562 58.8832 3.58724 59.2738 3.73047C59.6645 3.86719 60.0062 4.07227 60.2992 4.3457C60.5922 4.61914 60.8233 4.95768 60.9926 5.36133C61.1684 5.75846 61.2562 6.21745 61.2562 6.73828C61.2562 7.20703 61.1586 7.68229 60.9633 8.16406C60.7745 8.63932 60.4913 9.0918 60.1137 9.52148C59.7361 9.94466 59.2673 10.332 58.7074 10.6836C58.154 11.0286 57.516 11.3021 56.7934 11.5039C56.8324 11.9076 56.8878 12.2754 56.9594 12.6074C57.0375 12.9395 57.1319 13.2227 57.2426 13.457C57.3598 13.6914 57.4932 13.8737 57.643 14.0039C57.7992 14.1341 57.9783 14.1992 58.1801 14.1992C58.3103 14.1927 58.434 14.1699 58.5512 14.1309C58.6553 14.0983 58.7595 14.0462 58.8637 13.9746C58.9743 13.903 59.0655 13.7988 59.1371 13.6621C58.9678 13.584 58.8376 13.4831 58.7465 13.3594C58.6553 13.2357 58.587 13.1185 58.5414 13.0078C58.4893 12.8776 58.46 12.7409 58.4535 12.5977C58.4535 12.2852 58.5154 12.0312 58.6391 11.8359C58.7628 11.6406 58.9092 11.4876 59.0785 11.377C59.2478 11.2663 59.4203 11.1914 59.5961 11.1523C59.7719 11.1068 59.9118 11.084 60.016 11.084C60.1267 11.084 60.2602 11.1068 60.4164 11.1523C60.5792 11.1979 60.7354 11.2858 60.8852 11.416C61.0349 11.5462 61.1618 11.7318 61.266 11.9727C61.3767 12.207 61.432 12.5163 61.432 12.9004ZM59.0199 6.75781C59.0199 6.52344 58.9971 6.30208 58.9516 6.09375C58.9125 5.87891 58.8506 5.69336 58.766 5.53711C58.6879 5.38086 58.587 5.25716 58.4633 5.16602C58.3461 5.06836 58.2094 5.01953 58.0531 5.01953C57.7862 5.01953 57.5681 5.14323 57.3988 5.39062C57.2296 5.63151 57.0928 5.95378 56.9887 6.35742C56.8845 6.76107 56.8129 7.22656 56.7738 7.75391C56.7348 8.28125 56.7152 8.83138 56.7152 9.4043V10.1172C57.0473 9.94141 57.3533 9.73307 57.6332 9.49219C57.9197 9.2513 58.1638 8.98763 58.3656 8.70117C58.574 8.4082 58.7335 8.09896 58.8441 7.77344C58.9613 7.44792 59.0199 7.10938 59.0199 6.75781Z" fill="#2E2E2E"/>
</svg>
