<svg width="60" height="17" viewBox="0 0 60 17" fill="none" xmlns="http://www.w3.org/2000/svg">
<path d="M12.5 15.9023L9.19922 16L9.00391 14.6035C8.60677 14.9616 8.06641 15.3164 7.38281 15.668C6.69922 16.0195 6.00586 16.1953 5.30273 16.1953C4.23503 16.1953 3.43424 15.8828 2.90039 15.2578C2.36654 14.6328 2.09961 13.7539 2.09961 12.6211V6.99609L0.400391 6.5957V5.50195L4.10156 5.4043V12.416C4.10156 13.1257 4.24154 13.6497 4.52148 13.9883C4.80143 14.3268 5.26042 14.4961 5.89844 14.4961C6.40625 14.4961 6.87174 14.3822 7.29492 14.1543C7.72461 13.9199 8.08268 13.6628 8.36914 13.3828C8.6556 13.1029 8.79883 12.9499 8.79883 12.9238V6.99609L7.09961 6.5957V5.50195L10.8008 5.4043V14.3984L12.5 14.7988V15.9023ZM18.9109 9.30078L21.3035 5.50195L24.2039 5.4043V6.5957L22.5047 6.89844L20.0047 10.5996L22.5633 14.4375L24.409 14.8965V16H19.5262V14.8965L20.327 14.6621L18.6863 12.0156L16.2059 16H13.3055V14.8965L15.0633 14.4375L17.6121 10.6973L15.0437 6.87891L13.5105 6.5957V5.50195L18.0711 5.4043V6.5957L17.368 6.72266L18.9109 9.30078ZM28.4176 6.36133C29.4007 5.58659 30.4 5.19922 31.4156 5.19922C32.8154 5.19922 33.8635 5.66471 34.5602 6.5957C35.2633 7.52018 35.6148 8.78971 35.6148 10.4043C35.6148 11.5501 35.4033 12.5592 34.9801 13.4316C34.5634 14.304 33.9417 14.9844 33.1148 15.4727C32.288 15.9544 31.2887 16.1953 30.1168 16.1953C29.4658 16.1953 28.8668 16.1595 28.3199 16.0879C27.773 16.0163 27.3368 15.9414 27.0113 15.8633C26.6923 15.7786 26.4937 15.7233 26.4156 15.6973V2.20117L24.8141 1.80078V0.697266L28.4176 0.599609V6.36133ZM28.4176 14.3984C28.4176 14.4115 28.5966 14.4505 28.9547 14.5156C29.3128 14.5742 29.801 14.6035 30.4195 14.6035C31.5133 14.6035 32.301 14.2357 32.7828 13.5C33.2711 12.7643 33.5152 11.7975 33.5152 10.5996C33.5152 9.42773 33.3102 8.50326 32.9 7.82617C32.4964 7.14258 31.8681 6.80078 31.0152 6.80078C30.4814 6.80078 30.0191 6.89844 29.6285 7.09375C29.2444 7.28255 28.9449 7.48763 28.7301 7.70898C28.5217 7.93034 28.4176 8.06055 28.4176 8.09961V14.3984ZM42.6117 5.19922C44.0896 5.19922 45.2419 5.67773 46.0687 6.63477C46.8956 7.58529 47.309 8.87435 47.309 10.502C47.309 11.6217 47.1006 12.6146 46.684 13.4805C46.2738 14.3464 45.6879 15.0169 44.9262 15.4922C44.171 15.9609 43.2986 16.1953 42.309 16.1953C40.7921 16.1953 39.6137 15.7396 38.7738 14.8281C37.934 13.9167 37.5141 12.5755 37.5141 10.8047C37.5141 9.6849 37.7289 8.70182 38.1586 7.85547C38.5948 7.0026 39.197 6.34831 39.9652 5.89258C40.7335 5.43034 41.6156 5.19922 42.6117 5.19922ZM42.5141 6.80078C41.5245 6.80078 40.7921 7.1263 40.3168 7.77734C39.848 8.42188 39.6137 9.39518 39.6137 10.6973C39.6137 13.2949 40.5479 14.597 42.4164 14.6035C43.393 14.6035 44.1026 14.2715 44.5453 13.6074C44.988 12.9368 45.2094 11.9342 45.2094 10.5996C45.2094 8.06706 44.3109 6.80078 42.5141 6.80078ZM54.0227 9.30078L56.4152 5.50195L59.3156 5.4043V6.5957L57.6164 6.89844L55.1164 10.5996L57.675 14.4375L59.5207 14.8965V16H54.6379V14.8965L55.4387 14.6621L53.798 12.0156L51.3176 16H48.4172V14.8965L50.175 14.4375L52.7238 10.6973L50.1555 6.87891L48.6223 6.5957V5.50195L53.1828 5.4043V6.5957L52.4797 6.72266L54.0227 9.30078Z" fill="#2E2E2E"/>
</svg>
