<svg width="27" height="24" viewBox="0 0 27 24" fill="none" xmlns="http://www.w3.org/2000/svg">
<g clip-path="url(#clip0_5_46)">
<path d="M6.40673 21.0383C5.36586 21.0538 4.35705 20.6783 3.57961 19.9861C3.36153 19.785 3.10375 19.6317 2.82286 19.5362C2.54197 19.4407 2.2442 19.405 1.9487 19.4315C1.41655 19.4981 0.928962 19.7626 0.582931 20.1723C0.2369 20.582 0.0577827 21.1069 0.0812094 21.6426C0.104636 22.1784 0.32889 22.6857 0.709362 23.0636C1.08983 23.4416 1.59864 23.6624 2.13458 23.6823C2.67498 23.6899 3.19802 23.4916 3.5976 23.1278C4.3738 22.4358 5.38198 22.0612 6.42172 22.0785C7.46209 22.0628 8.47065 22.4371 9.24884 23.1278C9.46562 23.3272 9.72144 23.4794 10.0001 23.5749C10.2788 23.6703 10.5742 23.7069 10.8678 23.6823C11.3872 23.6319 11.8706 23.3947 12.2285 23.0149C12.5863 22.6351 12.7941 22.1383 12.8135 21.6169C12.8262 21.1969 12.7145 20.7825 12.4924 20.4258C12.2703 20.0692 11.9478 19.7861 11.5653 19.6121C11.1828 19.4382 10.7574 19.3812 10.3426 19.4482C9.92776 19.5153 9.54203 19.7035 9.23384 19.9891C8.45642 20.681 7.44735 21.0555 6.40673 21.0383Z" fill="#333342"/>
<path d="M23.2615 17.7678C22.7407 16.8602 22.5833 15.7891 22.8208 14.77C22.8921 14.4815 22.9023 14.1812 22.8506 13.8885C22.799 13.5957 22.6867 13.3171 22.521 13.0703C22.2129 12.6146 21.7407 12.2955 21.203 12.1794C20.6653 12.0633 20.1035 12.1594 19.6348 12.4474C19.1662 12.7355 18.8268 13.1933 18.6876 13.7255C18.5483 14.2576 18.6199 14.823 18.8874 15.3036C19.1462 15.7756 19.575 16.1314 20.0866 16.2989C21.0667 16.6456 21.8803 17.3488 22.3651 18.2684C22.8854 19.1761 23.0439 20.2467 22.8088 21.2662C22.7358 21.5541 22.7248 21.8542 22.7765 22.1467C22.8282 22.4392 22.9414 22.7174 23.1086 22.9629C23.4105 23.4297 23.8827 23.7603 24.4247 23.8844C24.9667 24.0084 25.5357 23.9161 26.0107 23.6271C26.4856 23.3381 26.8291 22.8752 26.9679 22.3368C27.1068 21.7985 27.0301 21.2272 26.7542 20.7445C26.4943 20.2741 26.0658 19.9195 25.555 19.7523C24.568 19.4028 23.7491 18.6942 23.2615 17.7678Z" fill="#333342"/>
<path d="M12.2498 6.11244C12.7463 5.1988 13.5665 4.50378 14.5493 4.1639C14.8318 4.07264 15.0922 3.92338 15.3136 3.72566C15.5351 3.52795 15.7129 3.28615 15.8354 3.01577C16.0477 2.5375 16.079 1.99843 15.9235 1.49883C15.7679 0.999229 15.4362 0.57313 14.99 0.299802C14.6296 0.0824557 14.2129 -0.0234882 13.7924 -0.00470973C13.3719 0.0140687 12.9664 0.156731 12.6268 0.405341C12.2871 0.653951 12.0286 0.997411 11.8837 1.39254C11.7387 1.78767 11.7138 2.21683 11.8121 2.62606C12.0333 3.64225 11.8654 4.70444 11.3414 5.60282C10.8466 6.51778 10.0258 7.21329 9.04197 7.55136C8.75967 7.64128 8.49935 7.78939 8.27782 7.98611C8.05629 8.18284 7.87847 8.42382 7.75583 8.69351C7.52473 9.19543 7.4973 9.76741 7.67931 10.2891C7.86133 10.8109 8.2386 11.2417 8.73177 11.491C9.22495 11.7403 9.79559 11.7886 10.3237 11.6258C10.8518 11.463 11.2961 11.1018 11.5633 10.6181C11.8267 10.151 11.9038 9.60171 11.7791 9.08022C11.5594 8.06691 11.7273 7.00804 12.2498 6.11244Z" fill="#333342"/>
<path d="M17.3884 19.1167C17.0605 19.1052 16.7337 19.1599 16.4274 19.2774C16.1211 19.395 15.8416 19.573 15.6056 19.8008C15.3696 20.0287 15.1819 20.3017 15.0537 20.6037C14.9255 20.9057 14.8595 21.2304 14.8595 21.5584C14.8595 21.8864 14.9255 22.2111 15.0537 22.5131C15.1819 22.8151 15.3696 23.0881 15.6056 23.316C15.8416 23.5438 16.1211 23.7218 16.4274 23.8394C16.7337 23.9569 17.0605 24.0116 17.3884 24.0001C17.5648 23.9994 17.7406 23.9803 17.9131 23.9431C18.4984 23.811 19.0146 23.4682 19.3634 22.98C19.7122 22.4918 19.8691 21.8923 19.8043 21.2959C19.7395 20.6994 19.4574 20.1476 19.0118 19.7457C18.5663 19.3439 17.9884 19.12 17.3884 19.1167Z" fill="#666666"/>
<path d="M15.023 12.4318C14.6143 12.2402 14.1677 12.1429 13.7164 12.1471C13.265 12.1513 12.8204 12.2568 12.4153 12.4559C12.0102 12.655 11.655 12.9425 11.376 13.2973C11.0969 13.652 10.9012 14.0649 10.8032 14.5055C10.7051 14.9461 10.7074 15.403 10.8097 15.8426C10.912 16.2822 11.1118 16.6932 11.3943 17.0452C11.6768 17.3972 12.0348 17.6813 12.4418 17.8764C12.8488 18.0715 13.2945 18.1727 13.7458 18.1725C14.084 18.1728 14.4196 18.115 14.7382 18.0016C15.3091 17.8113 15.8095 17.4537 16.1744 16.9752C16.5392 16.4968 16.7517 15.9195 16.784 15.3187C16.8163 14.7179 16.6671 14.1212 16.3557 13.6063C16.0443 13.0914 15.5852 12.6822 15.038 12.4318H15.023Z" stroke="#666666" stroke-miterlimit="10"/>
<path d="M6.97036 12.9381C6.78574 12.8936 6.59663 12.8705 6.40673 12.8691C5.75871 12.8691 5.13723 13.1265 4.67901 13.5847C4.22079 14.0429 3.96336 14.6643 3.96336 15.3123C3.96336 15.9603 4.22079 16.5817 4.67901 17.0399C5.13723 17.4981 5.75871 17.7555 6.40673 17.7555C6.49362 17.7599 6.58067 17.7599 6.66756 17.7555C7.23745 17.691 7.76643 17.4279 8.16166 17.0124C8.5569 16.5968 8.79313 16.0553 8.82891 15.483C8.86468 14.9106 8.69771 14.3439 8.3573 13.8824C8.01689 13.4209 7.52479 13.094 6.96736 12.9591L6.97036 12.9381Z" fill="#666666"/>
<path d="M18.6985 7.01754C18.243 6.72304 17.7024 6.58866 17.162 6.63564C16.6217 6.68262 16.1123 6.90828 15.7145 7.27697C15.3167 7.64566 15.0531 8.13637 14.9652 8.67158C14.8774 9.2068 14.9704 9.75602 15.2296 10.2325C15.4887 10.7089 15.8993 11.0855 16.3963 11.3027C16.8933 11.5198 17.4486 11.5652 17.9743 11.4317C18.5 11.2981 18.9662 10.9933 19.2994 10.5652C19.6325 10.1372 19.8135 9.61038 19.8138 9.06801C19.814 8.66027 19.7121 8.25898 19.5172 7.90079C19.3224 7.54261 19.0409 7.23894 18.6985 7.01754Z" fill="#666666"/>
</g>
<defs>
<clipPath id="clip0_5_46">
<rect width="27" height="24" fill="white"/>
</clipPath>
</defs>
</svg>
