<svg width="40" height="40" viewBox="0 0 40 40" fill="none" xmlns="http://www.w3.org/2000/svg">
<g clip-path="url(#clip0_26_99)">
<path d="M40 26.5587V9.27048C40 5.51332 36.9068 2.48047 33.1488 2.48047H6.84075C3.08359 2.47959 0 5.51332 0 9.27048V26.5587C0 28.855 1.15645 30.8923 2.90251 32.1266L2.69256 32.1301H2.68381C1.9812 32.1292 1.30691 32.407 0.808854 32.9026C0.310803 33.3982 0.0296657 34.0711 0.0271181 34.7737C0.0263117 35.1218 0.0942334 35.4666 0.226987 35.7884C0.359741 36.1101 0.554715 36.4025 0.800726 36.6488C1.04674 36.8951 1.33894 37.0903 1.66059 37.2234C1.98223 37.3565 2.32698 37.4247 2.67506 37.4243L37.2103 37.5196H37.2208C37.5683 37.521 37.9127 37.4539 38.2343 37.3222C38.5559 37.1905 38.8484 36.9967 39.0951 36.752C39.3418 36.5072 39.5378 36.2163 39.6721 35.8958C39.8064 35.5752 39.8762 35.2314 39.8775 34.8839C39.8783 34.5354 39.8105 34.1902 39.6778 33.8679C39.5452 33.5456 39.3504 33.2527 39.1045 33.0057C38.8586 32.7588 38.5664 32.5627 38.2447 32.4286C37.923 32.2946 37.5781 32.2253 37.2296 32.2246L36.9357 32.2263C38.7683 31.0069 40 28.9232 40 26.5587ZM3.45099 9.27048C3.45099 7.4282 4.99759 5.93058 6.84075 5.93058H33.1488C34.9902 5.93058 36.4423 7.4282 36.4423 9.27048V26.5587C36.4423 28.4001 34.9919 29.8662 33.1488 29.8662H6.84075C4.99759 29.8662 3.45099 28.4001 3.45099 26.5587V9.27048Z" fill="white"/>
<path d="M10.0678 25.3322C10.5557 25.3321 11.0355 25.2088 11.463 24.9737C11.8904 24.7386 12.2516 24.3994 12.5129 23.9874C12.7742 23.5755 12.9273 23.1043 12.9578 22.6174C12.9884 22.1305 12.8955 21.6438 12.6878 21.2024L16.0294 17.4365C16.4698 17.5968 16.9425 17.6475 17.4068 17.5844C17.8712 17.5213 18.3132 17.3463 18.6949 17.0744L22.6392 19.7625C22.5855 20.195 22.6301 20.6341 22.7698 21.0469C22.9094 21.4598 23.1404 21.8358 23.4456 22.1469C23.7507 22.4581 24.1222 22.6963 24.5323 22.8439C24.9424 22.9914 25.3805 23.0445 25.8139 22.9992C26.2474 22.9538 26.665 22.8112 27.0357 22.582C27.4063 22.3527 27.7205 22.0428 27.9546 21.6752C28.1888 21.3077 28.337 20.892 28.3882 20.4592C28.4393 20.0264 28.3921 19.5876 28.25 19.1756L31.9573 14.5086C32.1758 14.2334 32.2759 13.8826 32.2357 13.5335C32.1955 13.1844 32.0183 12.8656 31.743 12.6471C31.4677 12.4287 31.117 12.3286 30.7679 12.3687C30.4188 12.4089 30.0999 12.5862 29.8815 12.8614L26.3247 17.3403C25.5924 17.1257 24.805 17.2093 24.1342 17.573L19.9134 14.6976C19.9103 14.2859 19.8195 13.8796 19.647 13.5058C19.4745 13.132 19.2242 12.7993 18.9129 12.5299C18.6016 12.2605 18.2365 12.0605 17.8418 11.9434C17.4471 11.8263 17.032 11.7946 16.6241 11.8506C16.2163 11.9066 15.825 12.049 15.4765 12.2681C15.128 12.4873 14.8303 12.7783 14.6031 13.1216C14.376 13.465 14.2247 13.8528 14.1593 14.2593C14.0939 14.6658 14.1159 15.0815 14.2239 15.4788L10.5787 19.5867C10.1824 19.5143 9.77542 19.5253 9.38366 19.619C8.9919 19.7128 8.624 19.8873 8.30348 20.1313C7.98295 20.3752 7.71685 20.6834 7.52216 21.0361C7.32748 21.3887 7.2085 21.7781 7.17282 22.1794C7.13714 22.5806 7.18556 22.9849 7.31496 23.3663C7.44437 23.7478 7.65193 24.0981 7.92438 24.3948C8.19683 24.6915 8.52817 24.9282 8.89724 25.0896C9.26632 25.251 9.665 25.3336 10.0678 25.3322Z" fill="white"/>
</g>
<defs>
<clipPath id="clip0_26_99">
<rect width="40" height="40" fill="white"/>
</clipPath>
</defs>
</svg>
