<svg width="39" height="36" viewBox="0 0 39 36" fill="none" xmlns="http://www.w3.org/2000/svg">
<g id="Asset 22 1" clip-path="url(#clip0_27_107)">
<g id="Group">
<g id="Layer 2">
<g id="OBJECTS">
<path id="Vector" d="M27.8397 1.69635C27.6743 1.27287 27.4261 0.888399 27.1104 0.566492C26.9074 0.368215 26.6662 0.215429 26.4022 0.117895C26.1382 0.020361 25.8573 -0.0197777 25.5773 4.28194e-05H18.2661L20.6089 7.17812H29.6913L27.8397 1.69635Z" fill="white" fill-opacity="0.5"/>
<path id="Vector_2" d="M38.7976 34.1089L30.3968 9.26428C27.6849 9.26428 23.2851 9.29474 21.2936 9.26428L29.1733 33.445L29.599 34.718C29.6956 35.0442 29.8778 35.3371 30.1259 35.5646C30.4117 35.857 30.889 36.0031 31.5578 36.0031H37.8926C38.1853 36 38.4652 35.8796 38.6722 35.6678C38.8792 35.456 38.9969 35.1697 39 34.8702C38.9748 34.6066 38.9063 34.3492 38.7976 34.1089Z" fill="white" fill-opacity="0.5"/>
<path id="Vector_3" d="M0.202159 34.1088L11.16 1.69635C11.3254 1.27287 11.5736 0.888399 11.8894 0.566492C12.0924 0.368215 12.3335 0.215429 12.5975 0.117895C12.8615 0.020361 13.1425 -0.0197777 13.4224 4.28194e-05H14.2351L17.5097 10.1322L13.4224 22.4753H21.5463L24.4101 31.24C24.2869 31.0035 24.1034 30.8056 23.8791 30.6672C23.6547 30.5289 23.3979 30.4553 23.136 30.4543H11.8536C11.549 30.4541 11.252 30.552 11.0046 30.734C10.7573 30.916 10.5721 31.1729 10.4753 31.4684L9.40069 34.7179C9.30173 35.043 9.11985 35.3353 8.87379 35.5645C8.5761 35.8691 8.11171 36.0031 7.43893 36.0031H1.10713C0.961557 36.0054 0.817097 35.9768 0.68286 35.9192C0.548622 35.8615 0.427519 35.776 0.327187 35.6681C0.221751 35.5648 0.13826 35.4403 0.0819204 35.3025C0.0255811 35.1647 -0.00239696 35.0165 -0.000268539 34.8671C0.0252978 34.6046 0.0937224 34.3483 0.202159 34.1088Z" fill="white" fill-opacity="0.8"/>
<g id="Group_2" style="mix-blend-mode:multiply">
<path id="Vector_4" d="M31.8525 13.5156C29.9884 13.8676 28.2451 14.7069 26.7918 15.952C25.8814 16.7883 25.0755 17.7365 24.3925 18.7751L29.1733 33.4449L29.599 34.7179C29.6956 35.0441 29.8778 35.337 30.1259 35.5645C30.4117 35.8569 30.889 36.0031 31.5578 36.0031H37.8926C38.1853 35.9999 38.4652 35.8795 38.6722 35.6677C38.8792 35.456 38.9969 35.1696 39 34.8702C38.9757 34.6034 38.9073 34.3429 38.7976 34.0997L31.8525 13.5156Z" fill="white"/>
<path id="Vector_5" d="M7.97189 26.9886C6.31659 26.5599 4.73326 25.8803 3.27438 24.9726L0.20225 34.1088C0.0938132 34.3483 0.0253887 34.6046 -0.000177633 34.8672C-0.00189621 35.016 0.0262809 35.1636 0.0826078 35.3009C0.138935 35.4381 0.222212 35.5621 0.327278 35.6651C0.42761 35.773 0.548713 35.8585 0.682951 35.9161C0.817188 35.9738 0.961648 36.0024 1.10722 36.0001H7.442C8.11478 36.0001 8.59107 35.8539 8.87685 35.5615C9.12139 35.3327 9.30219 35.0416 9.40078 34.7179L10.4754 31.4624C10.5732 31.168 10.7588 30.9123 11.0061 30.7315C11.2533 30.5507 11.5498 30.4537 11.8537 30.4543H23.1361C23.398 30.4553 23.6548 30.5289 23.8792 30.6672C24.1035 30.8056 24.287 31.0035 24.4102 31.24L21.6357 22.7524C21.3627 23.1022 21.0716 23.4366 20.7635 23.7544C17.5157 27.0709 12.4283 28.1185 7.97189 26.9886Z" fill="white"/>
</g>
</g>
</g>
</g>
</g>
<defs>
<clipPath id="clip0_27_107">
<rect width="39" height="36" fill="white"/>
</clipPath>
</defs>
</svg>
