<svg width="115" height="24" viewBox="0 0 115 24" fill="none" xmlns="http://www.w3.org/2000/svg">
<path d="M6.976 23H0.096V21.912C0.672 21.912 1.14133 21.8267 1.504 21.656C1.86667 21.464 2.208 21.1013 2.528 20.568C2.848 20.0133 3.232 19.1813 3.68 18.072L10.528 1.816H12.48L19.84 19C20.3093 20.0453 20.768 20.792 21.216 21.24C21.664 21.688 22.2933 21.912 23.104 21.912V23H13.984V21.912C14.2827 21.912 14.592 21.8907 14.912 21.848C15.2533 21.8053 15.5307 21.7093 15.744 21.56C15.9787 21.3893 16.096 21.1227 16.096 20.76C16.096 20.5253 16.0427 20.2373 15.936 19.896C15.8507 19.5333 15.712 19.1173 15.52 18.648L14.272 15.736L14.048 15.032L10.592 6.04H10.496L6.88 15.032L6.624 15.736L5.216 19.128C5.13067 19.384 5.04533 19.6507 4.96 19.928C4.87467 20.2053 4.832 20.4933 4.832 20.792C4.832 21.2613 5.00267 21.5707 5.344 21.72C5.68533 21.848 6.22933 21.912 6.976 21.912V23ZM14.816 16.088H6.112L6.624 14.68H14.304L14.816 16.088ZM33.7133 23H24.0493V21.912C25.0093 21.912 25.7026 21.8373 26.1293 21.688C26.5773 21.5173 26.8546 21.208 26.9613 20.76C27.0893 20.2907 27.1533 19.5973 27.1533 18.68V6.328C27.1533 5.496 27.0999 4.84533 26.9933 4.376C26.8866 3.88533 26.6199 3.544 26.1933 3.352C25.7666 3.16 25.0519 3.064 24.0493 3.064V1.976H33.7453V3.064C32.7639 3.064 32.0493 3.16 31.6013 3.352C31.1746 3.544 30.9079 3.88533 30.8013 4.376C30.7159 4.84533 30.6733 5.496 30.6733 6.328V18.68C30.6733 19.5973 30.7266 20.2907 30.8333 20.76C30.9613 21.208 31.2386 21.5173 31.6653 21.688C32.1133 21.8373 32.7959 21.912 33.7133 21.912V23ZM35.8595 23.288L35.7635 17.624H36.7875C37.1075 19.224 37.5875 20.3653 38.2275 21.048C38.8675 21.7307 39.7742 22.072 40.9475 22.072C41.7368 22.072 42.3768 21.912 42.8675 21.592C43.3795 21.2507 43.6355 20.7387 43.6355 20.056C43.6355 19.5867 43.5395 19.192 43.3475 18.872C43.1768 18.552 42.8248 18.2213 42.2915 17.88C41.7795 17.5387 41.0222 17.1227 40.0195 16.632C39.0595 16.1627 38.2702 15.704 37.6515 15.256C37.0328 14.808 36.5635 14.296 36.2435 13.72C35.9448 13.144 35.7955 12.44 35.7955 11.608C35.7955 10.2853 36.2648 9.272 37.2035 8.568C38.1635 7.84267 39.3902 7.48 40.8835 7.48C41.7368 7.48 42.4302 7.58667 42.9635 7.8C43.4968 8.01333 43.9448 8.216 44.3075 8.408H44.3715L44.9155 7.672H45.7475L45.8435 12.664H44.8195C44.4568 11.1493 43.9662 10.1147 43.3475 9.56C42.7288 8.984 41.9395 8.696 40.9795 8.696C40.2542 8.696 39.6675 8.86667 39.2195 9.208C38.7715 9.54933 38.5475 10.04 38.5475 10.68C38.5475 11.32 38.8355 11.864 39.4115 12.312C40.0088 12.7387 40.9368 13.272 42.1955 13.912C43.1555 14.4027 43.9768 14.8827 44.6595 15.352C45.3422 15.8213 45.8648 16.344 46.2275 16.92C46.5902 17.496 46.7715 18.2107 46.7715 19.064C46.7715 20.1093 46.5048 20.952 45.9715 21.592C45.4595 22.232 44.7662 22.6907 43.8915 22.968C43.0382 23.224 42.1102 23.352 41.1075 23.352C40.1688 23.352 39.4222 23.256 38.8675 23.064C38.3342 22.872 37.8542 22.6907 37.4275 22.52H37.3315L36.6595 23.288H35.8595ZM60.8253 18.04L61.4973 18.52C61.0919 19.3947 60.6226 20.2053 60.0893 20.952C59.5559 21.6773 58.8839 22.2533 58.0733 22.68C57.2626 23.1067 56.2386 23.32 55.0013 23.32C53.6359 23.32 52.4519 23.0107 51.4493 22.392C50.4679 21.7733 49.6999 20.8987 49.1453 19.768C48.6119 18.6373 48.3453 17.304 48.3453 15.768C48.3453 14.104 48.6333 12.6533 49.2093 11.416C49.7853 10.1787 50.6279 9.21867 51.7373 8.536C52.8679 7.832 54.2439 7.48 55.8653 7.48C57.4866 7.48 58.7559 7.81067 59.6733 8.472C60.5906 9.13333 61.0493 9.944 61.0493 10.904C61.0493 11.4373 60.8999 11.8427 60.6013 12.12C60.3026 12.3973 59.9079 12.536 59.4173 12.536C58.9053 12.536 58.5106 12.408 58.2333 12.152C57.9773 11.896 57.7746 11.5867 57.6253 11.224C57.4759 10.84 57.3266 10.4667 57.1773 10.104C57.0279 9.72 56.8039 9.4 56.5053 9.144C56.2279 8.888 55.8013 8.76 55.2253 8.76C54.0306 8.76 53.1133 9.22933 52.4733 10.168C51.8546 11.1067 51.5453 12.472 51.5453 14.264C51.5453 16.1627 51.9079 17.6987 52.6333 18.872C53.3586 20.024 54.5533 20.6 56.2173 20.6C57.2839 20.6 58.1479 20.3973 58.8093 19.992C59.4706 19.5653 60.1426 18.9147 60.8253 18.04ZM71.2233 23H62.5833V21.976C63.2873 21.976 63.7993 21.9227 64.1193 21.816C64.4606 21.688 64.6739 21.464 64.7593 21.144C64.8659 20.824 64.9193 20.3653 64.9193 19.768V11.288C64.9193 10.712 64.8553 10.2747 64.7273 9.976C64.6206 9.67733 64.2899 9.528 63.7353 9.528C63.4153 9.528 63.1699 9.53867 62.9993 9.56C62.8286 9.58133 62.7433 9.592 62.7433 9.592V8.536L67.0313 7.576H68.1193V10.872H68.2473C68.8019 10.104 69.2819 9.464 69.6873 8.952C70.0926 8.44 70.4979 8.056 70.9033 7.8C71.3299 7.52267 71.8206 7.384 72.3753 7.384C73.0793 7.384 73.5913 7.56533 73.9113 7.928C74.2526 8.29067 74.4233 8.792 74.4233 9.432C74.4233 10.136 74.2633 10.648 73.9433 10.968C73.6233 11.288 73.2606 11.448 72.8553 11.448C72.4713 11.448 72.1299 11.352 71.8313 11.16C71.5539 10.9467 71.3086 10.744 71.0953 10.552C70.9033 10.36 70.7326 10.264 70.5833 10.264C70.2419 10.264 69.8473 10.4987 69.3993 10.968C68.9726 11.4373 68.5673 11.96 68.1833 12.536V19.608C68.1833 20.2693 68.2686 20.7707 68.4393 21.112C68.6313 21.4533 68.9513 21.688 69.3993 21.816C69.8473 21.9227 70.4553 21.976 71.2233 21.976V23ZM83.1063 23H75.2023V21.976C75.9063 21.976 76.4183 21.912 76.7383 21.784C77.0583 21.656 77.2609 21.4213 77.3463 21.08C77.4316 20.7387 77.4743 20.2693 77.4743 19.672V11C77.4743 10.296 77.3463 9.86933 77.0903 9.72C76.8556 9.54933 76.4929 9.464 76.0023 9.464C75.7889 9.464 75.5969 9.47467 75.4263 9.496C75.2769 9.51733 75.2023 9.528 75.2023 9.528V8.472L79.4903 7.576H80.7383V19.64C80.7383 20.2587 80.7809 20.7387 80.8663 21.08C80.9729 21.4213 81.1969 21.656 81.5383 21.784C81.8796 21.912 82.4023 21.976 83.1063 21.976V23ZM79.1063 5.24C78.5089 5.24 78.0183 5.048 77.6343 4.664C77.2503 4.25867 77.0583 3.768 77.0583 3.192C77.0583 2.616 77.2396 2.136 77.6023 1.752C77.9863 1.368 78.4876 1.176 79.1063 1.176C79.7676 1.176 80.2796 1.368 80.6423 1.752C81.0049 2.136 81.1863 2.616 81.1863 3.192C81.1863 3.768 81.0049 4.25867 80.6423 4.664C80.2796 5.048 79.7676 5.24 79.1063 5.24ZM88.1888 0.407999H89.2768V10.168H89.4048C89.9594 9.50667 90.6421 8.89867 91.4528 8.344C92.2634 7.768 93.2128 7.48 94.3008 7.48C95.3888 7.48 96.3274 7.77867 97.1168 8.376C97.9274 8.952 98.5461 9.77333 98.9728 10.84C99.4208 11.8853 99.6448 13.1333 99.6448 14.584C99.6448 16.5253 99.3034 18.1467 98.6208 19.448C97.9381 20.7493 96.9888 21.72 95.7728 22.36C94.5781 23 93.1914 23.32 91.6128 23.32C90.1834 23.32 88.9994 23.16 88.0608 22.84C87.1221 22.52 86.4394 22.2533 86.0128 22.04V4.216C86.0128 3.49067 85.9274 3.032 85.7568 2.84C85.6074 2.62667 85.2341 2.52 84.6368 2.52C84.3594 2.52 84.1354 2.53067 83.9648 2.552C83.7941 2.57333 83.7088 2.584 83.7088 2.584V1.528L88.1888 0.407999ZM89.2768 11.736V20.408C89.5541 20.7707 89.9274 21.112 90.3968 21.432C90.8874 21.752 91.5168 21.912 92.2848 21.912C93.2234 21.912 93.9701 21.6347 94.5248 21.08C95.0794 20.504 95.4741 19.736 95.7088 18.776C95.9648 17.7947 96.0928 16.7173 96.0928 15.544C96.0928 14.4987 95.9861 13.5493 95.7728 12.696C95.5808 11.8427 95.2394 11.1707 94.7488 10.68C94.2581 10.168 93.5754 9.912 92.7008 9.912C91.9328 9.912 91.2394 10.1253 90.6208 10.552C90.0234 10.9787 89.5754 11.3733 89.2768 11.736ZM108.448 23.32C107.083 23.32 105.867 23.0213 104.8 22.424C103.755 21.8267 102.934 20.9413 102.336 19.768C101.76 18.5733 101.472 17.1227 101.472 15.416C101.472 13.624 101.792 12.1413 102.432 10.968C103.072 9.79467 103.926 8.92 104.992 8.344C106.059 7.768 107.243 7.48 108.544 7.48C110.379 7.48 111.851 8.088 112.96 9.304C114.07 10.52 114.656 12.28 114.72 14.584H104.416L104.384 13.304H111.104C111.083 12.472 110.966 11.7147 110.752 11.032C110.539 10.3493 110.208 9.80533 109.76 9.4C109.334 8.99467 108.768 8.792 108.064 8.792C106.912 8.792 106.059 9.26133 105.504 10.2C104.971 11.1387 104.704 12.5147 104.704 14.328C104.704 15.7787 104.918 16.9733 105.344 17.912C105.771 18.8293 106.347 19.512 107.072 19.96C107.798 20.3867 108.608 20.6 109.504 20.6C110.358 20.6 111.062 20.4933 111.616 20.28C112.192 20.0667 112.672 19.7787 113.056 19.416C113.462 19.0533 113.835 18.648 114.176 18.2L114.848 18.712C114.55 19.3093 114.219 19.896 113.856 20.472C113.494 21.0267 113.067 21.5173 112.576 21.944C112.107 22.3707 111.531 22.712 110.848 22.968C110.187 23.2027 109.387 23.32 108.448 23.32Z" fill="white"/>
</svg>
