<svg width="155" height="34" viewBox="0 0 155 34" fill="none" xmlns="http://www.w3.org/2000/svg">
<path d="M0.00800002 26L7.24 4.368H11.928L19.16 26H15.784L13.896 20H5.304L3.4 26H0.00800002ZM5.864 17.792H13.336L9.624 6.304H9.576L5.864 17.792ZM21.9985 26V4.4H25.2625V26H21.9985ZM28.2608 26L34.5328 16.528L28.4848 7.04H32.1808L36.9168 15.184L41.6048 7.04H45.2688L39.2048 16.528L45.4288 26H41.7328L36.7888 17.856L31.9248 26H28.2608ZM53.9725 26.16C51.0605 26.16 48.9538 25.3333 47.6525 23.68C46.3512 22.016 45.7005 19.6373 45.7005 16.544C45.7005 13.28 46.3512 10.8533 47.6525 9.264C48.9538 7.67467 51.0605 6.88 53.9725 6.88C56.6392 6.88 58.5325 7.56267 59.6525 8.928C60.7832 10.2827 61.4018 11.792 61.5085 13.456L58.6125 14.416C58.5698 12.8267 58.1485 11.552 57.3485 10.592C56.5592 9.632 55.4338 9.152 53.9725 9.152C52.4792 9.152 51.2738 9.69067 50.3565 10.768C49.4498 11.8453 48.9965 13.7707 48.9965 16.544C48.9965 19.136 49.4552 21.0133 50.3725 22.176C51.2898 23.328 52.4898 23.904 53.9725 23.904C55.4232 23.904 56.5485 23.3867 57.3485 22.352C58.1485 21.3067 58.5698 20.08 58.6125 18.672L61.5085 19.664C61.4018 21.1467 60.7832 22.6027 59.6525 24.032C58.5218 25.4507 56.6285 26.16 53.9725 26.16ZM64.4923 26V0.879999H67.7243V26H64.4923ZM76.4283 26V15.184C76.4283 12.976 76.0816 11.4133 75.3883 10.496C74.7056 9.57867 73.6976 9.12 72.3643 9.12C71.0309 9.12 69.9163 9.616 69.0203 10.608C68.1243 11.5893 67.6763 12.8267 67.6763 14.32L66.1243 13.312C66.1243 11.7653 66.8069 10.304 68.1723 8.928C69.5376 7.54133 71.3296 6.848 73.5483 6.848C75.7349 6.848 77.2976 7.57333 78.2363 9.024C79.1856 10.464 79.6603 12.4747 79.6603 15.056V26H76.4283ZM88.9565 26.176C88.2738 26.176 87.6072 26.128 86.9565 26.032C86.3165 25.9467 85.7192 25.7867 85.1645 25.552C84.6098 25.3173 84.1192 24.9867 83.6925 24.56C83.2765 24.1227 82.9512 23.568 82.7165 22.896C82.4818 22.224 82.3645 21.408 82.3645 20.448C82.3645 19.52 82.4818 18.7307 82.7165 18.08C82.9512 17.4293 83.2712 16.896 83.6765 16.48C84.0925 16.0533 84.5725 15.7227 85.1165 15.488C85.6712 15.2533 86.2632 15.0933 86.8925 15.008C87.5218 14.912 88.1725 14.864 88.8445 14.864H95.0365V13.792C95.0365 12.6507 94.8392 11.7387 94.4445 11.056C94.0605 10.3627 93.5165 9.86133 92.8125 9.552C92.1192 9.24267 91.3138 9.088 90.3965 9.088C89.5538 9.088 88.8072 9.232 88.1565 9.52C87.5058 9.808 86.9725 10.272 86.5565 10.912C86.1405 11.552 85.8632 12.3947 85.7245 13.44L82.5565 12.592C82.7058 11.5573 82.9938 10.6773 83.4205 9.952C83.8472 9.22667 84.4018 8.64 85.0845 8.192C85.7672 7.73333 86.5512 7.39733 87.4365 7.184C88.3325 6.97067 89.3138 6.864 90.3805 6.864C92.0232 6.864 93.4312 7.09333 94.6045 7.552C95.7885 8.01067 96.6952 8.75733 97.3245 9.792C97.9645 10.816 98.2845 12.1973 98.2845 13.936V26H95.5645L95.2925 23.6C95.1858 23.8667 94.9672 24.1493 94.6365 24.448C94.3165 24.7467 93.8898 25.0293 93.3565 25.296C92.8338 25.5627 92.2045 25.776 91.4685 25.936C90.7325 26.096 89.8952 26.176 88.9565 26.176ZM89.6605 24.096C90.3752 24.096 91.0365 24.0267 91.6445 23.888C92.2525 23.7493 92.7912 23.5627 93.2605 23.328C93.7298 23.0827 94.1138 22.8107 94.4125 22.512C94.7218 22.2027 94.9298 21.8827 95.0365 21.552L95.1005 16.72H89.5805C89.0578 16.72 88.5618 16.768 88.0925 16.864C87.6232 16.96 87.2018 17.136 86.8285 17.392C86.4658 17.648 86.1778 18.016 85.9645 18.496C85.7618 18.976 85.6605 19.6 85.6605 20.368C85.6605 21.136 85.7672 21.7653 85.9805 22.256C86.1938 22.736 86.4872 23.1093 86.8605 23.376C87.2445 23.6427 87.6765 23.8293 88.1565 23.936C88.6365 24.0427 89.1378 24.096 89.6605 24.096ZM101.446 26V7.04H103.974L104.678 10.72V26H101.446ZM113.334 26V15.184C113.334 12.976 113.003 11.4133 112.342 10.496C111.691 9.57867 110.699 9.12 109.366 9.12C108.022 9.12 106.886 9.616 105.958 10.608C105.041 11.5893 104.582 12.8267 104.582 14.32L103.014 13.312C103.014 11.7653 103.713 10.304 105.11 8.928C106.518 7.54133 108.326 6.848 110.534 6.848C112.731 6.848 114.283 7.58933 115.19 9.072C116.107 10.544 116.566 12.5707 116.566 15.152V26H113.334ZM127.16 33.424C125.08 33.424 123.33 32.9547 121.912 32.016C120.504 31.088 119.714 29.4827 119.544 27.2H122.728C122.802 28.2027 123.026 29.0027 123.4 29.6C123.784 30.208 124.306 30.6507 124.968 30.928C125.64 31.2053 126.402 31.344 127.256 31.344C128.674 31.344 129.81 30.96 130.664 30.192C131.517 29.424 131.944 27.9467 131.944 25.76V10.912L132.776 7.04H135.192V25.456C135.192 27.4827 134.824 29.0773 134.088 30.24C133.362 31.4133 132.434 32.2347 131.304 32.704C130.184 33.184 128.802 33.424 127.16 33.424ZM125.976 26.128C123.704 26.128 121.992 25.328 120.84 23.728C119.698 22.128 119.128 19.712 119.128 16.48C119.128 13.248 119.693 10.8373 120.824 9.248C121.965 7.65867 123.672 6.864 125.944 6.864C128.024 6.864 129.778 7.39733 131.208 8.464C132.637 9.53067 133.352 10.624 133.352 11.744L131.96 13.392C131.96 12.2933 131.474 11.3067 130.504 10.432C129.544 9.55733 128.386 9.12 127.032 9.12C125.613 9.12 124.488 9.64267 123.656 10.688C122.824 11.7227 122.408 13.6587 122.408 16.496C122.408 19.3333 122.824 21.2747 123.656 22.32C124.488 23.3547 125.613 23.872 127.032 23.872C128.386 23.872 129.544 23.44 130.504 22.576C131.474 21.7013 131.96 20.7093 131.96 19.6L133.368 21.328C133.368 22.4907 132.653 23.584 131.224 24.608C129.805 25.6213 128.056 26.128 125.976 26.128ZM146.316 26.16C143.372 26.16 141.249 25.3067 139.948 23.6C138.657 21.8933 138.012 19.52 138.012 16.48C138.012 13.28 138.673 10.88 139.996 9.28C141.319 7.66933 143.409 6.864 146.268 6.864C149.201 6.864 151.297 7.66933 152.556 9.28C153.825 10.88 154.46 13.264 154.46 16.432C154.46 16.8053 154.439 17.152 154.396 17.472H140.796V15.456H151.42L151.244 15.808C151.244 13.3333 150.807 11.584 149.932 10.56C149.057 9.52533 147.836 9.008 146.268 9.008C144.743 9.008 143.505 9.54667 142.556 10.624C141.617 11.7013 141.148 13.6533 141.148 16.48C141.148 19.1573 141.601 21.088 142.508 22.272C143.425 23.4453 144.695 24.032 146.316 24.032V26.16ZM146.316 24.032C147.244 24.032 148.049 23.8773 148.732 23.568C149.425 23.248 149.959 22.7147 150.332 21.968C150.716 21.2213 150.999 20.384 151.18 19.456L154.092 20.24C153.911 21.5413 153.489 22.6453 152.828 23.552C152.167 24.4587 151.313 25.12 150.268 25.536C149.233 25.952 147.916 26.16 146.316 26.16V24.032Z" fill="white"/>
</svg>
