<svg width="28" height="32" viewBox="0 0 28 32" fill="none" xmlns="http://www.w3.org/2000/svg">
<g clip-path="url(#clip0_18_7)">
<path d="M14 15.5896V14.7645C14 10.2267 7.73222 6.55927 0 6.55927V23.7948C0 28.3326 6.26778 32 14 32C21.7322 32 28 28.3244 28 23.7948C28 19.2652 21.7322 15.5896 14 15.5896Z" fill="white" fill-opacity="0.5"/>
<path d="M14 23.7948V24.6198C18.8815 24.6198 23.1869 26.0884 25.7155 28.3326C27.151 27.1396 27.9794 25.5205 28.0244 23.8195C28.0244 19.2817 21.7566 15.6143 14.0244 15.6143V14.7892C14.0244 10.2514 7.75663 6.58398 0.0244141 6.58398V15.5895C7.73222 15.5895 14 19.2611 14 23.7948Z" fill="white" fill-opacity="0.5"/>
<path d="M28 0C20.2678 0 14 3.67152 14 8.20523V23.7948C14 26.831 11.1834 29.4794 7 30.8985C9.22966 31.6373 11.6052 32.011 14 32C21.7322 32 28 28.3244 28 23.7948V0Z" fill="white"/>
</g>
<defs>
<clipPath id="clip0_18_7">
<rect width="28" height="32" fill="white"/>
</clipPath>
</defs>
</svg>
