<svg width="40" height="36" viewBox="0 0 40 36" fill="none" xmlns="http://www.w3.org/2000/svg">
<g clip-path="url(#clip0_18_22)">
<path d="M9.49146 31.5574C7.94943 31.5806 6.45489 31.0174 5.30314 29.979C4.98005 29.6773 4.59815 29.4475 4.18202 29.3042C3.76589 29.1609 3.32475 29.1074 2.88697 29.1472C2.0986 29.247 1.37624 29.6437 0.863606 30.2583C0.350968 30.8728 0.085609 31.6602 0.120315 32.4638C0.155021 33.2675 0.487249 34.0284 1.05091 34.5953C1.61457 35.1622 2.36837 35.4935 3.16234 35.5234C3.96294 35.5347 4.73782 35.2373 5.32979 34.6915C6.4797 33.6536 7.9733 33.0917 9.51366 33.1177C11.0549 33.0941 12.5491 33.6556 13.702 34.6915C14.0231 34.9906 14.4021 35.219 14.815 35.3622C15.2278 35.5054 15.6655 35.5603 16.1004 35.5234C16.8699 35.4477 17.5861 35.092 18.1162 34.5222C18.6463 33.9525 18.9543 33.2074 18.9829 32.4252C19.0018 31.7952 18.8363 31.1737 18.5073 30.6386C18.1783 30.1036 17.7004 29.679 17.1338 29.418C16.5671 29.1571 15.9369 29.0716 15.3223 29.1722C14.7078 29.2728 14.1363 29.5551 13.6798 29.9835C12.528 31.0214 11.0331 31.5831 9.49146 31.5574Z" fill="white" fill-opacity="0.8"/>
<path d="M34.4615 26.6515C33.69 25.2902 33.4567 23.6835 33.8086 22.1549C33.9142 21.7221 33.9293 21.2717 33.8528 20.8326C33.7763 20.3935 33.61 19.9755 33.3644 19.6053C32.908 18.9218 32.2085 18.4431 31.4118 18.269C30.6152 18.0949 29.7829 18.2389 29.0886 18.671C28.3943 19.1031 27.8916 19.7898 27.6853 20.5881C27.479 21.3863 27.5851 22.2343 27.9813 22.9553C28.3648 23.6633 29 24.197 29.7579 24.4482C31.21 24.9682 32.4152 26.0231 33.1335 27.4025C33.9044 28.764 34.1391 30.3699 33.7908 31.8991C33.6827 32.331 33.6664 32.7812 33.743 33.2199C33.8195 33.6587 33.9872 34.076 34.235 34.4442C34.6823 35.1445 35.3818 35.6404 36.1848 35.8265C36.9877 36.0125 37.8307 35.8741 38.5343 35.4405C39.238 35.007 39.7468 34.3126 39.9525 33.5051C40.1582 32.6976 40.0446 31.8407 39.6358 31.1167C39.2508 30.411 38.616 29.8792 37.8592 29.6283C36.3971 29.1041 35.1838 28.0412 34.4615 26.6515Z" fill="white" fill-opacity="0.8"/>
<path d="M18.1479 9.16866C18.8835 7.79819 20.0985 6.75567 21.5545 6.24586C21.9731 6.10897 22.3588 5.88506 22.6869 5.58849C23.015 5.29192 23.2783 4.92923 23.4599 4.52365C23.7744 3.80625 23.8207 2.99764 23.5903 2.24824C23.3599 1.49884 22.8685 0.859694 22.2074 0.449703C21.6734 0.123684 21.0562 -0.0352322 20.4332 -0.0070646C19.8103 0.021103 19.2095 0.235097 18.7063 0.608012C18.2032 0.980927 17.8202 1.49612 17.6054 2.08881C17.3907 2.6815 17.3538 3.32524 17.4995 3.93909C17.8272 5.46337 17.5784 7.05666 16.8021 8.40424C16.069 9.77667 14.853 10.8199 13.3955 11.327C12.9773 11.4619 12.5916 11.6841 12.2634 11.9792C11.9353 12.2743 11.6718 12.6357 11.4901 13.0403C11.1477 13.7931 11.1071 14.6511 11.3768 15.4337C11.6464 16.2163 12.2053 16.8625 12.936 17.2365C13.6666 17.6104 14.512 17.6829 15.2943 17.4387C16.0767 17.1945 16.735 16.6526 17.1308 15.9271C17.521 15.2265 17.6352 14.4026 17.4506 13.6203C17.125 12.1004 17.3738 10.5121 18.1479 9.16866Z" fill="white" fill-opacity="0.8"/>
<path d="M25.7606 28.675C25.2749 28.6577 24.7907 28.7397 24.3369 28.916C23.8832 29.0923 23.4691 29.3593 23.1195 29.7011C22.7698 30.0429 22.4917 30.4525 22.3018 30.9054C22.1119 31.3584 22.014 31.8454 22.014 32.3375C22.014 32.8295 22.1119 33.3166 22.3018 33.7695C22.4917 34.2225 22.7698 34.632 23.1195 34.9738C23.4691 35.3156 23.8832 35.5826 24.3369 35.7589C24.7907 35.9352 25.2749 36.0172 25.7606 36C26.0219 35.999 26.2824 35.9703 26.5379 35.9145C27.405 35.7165 28.1698 35.2022 28.6866 34.4699C29.2033 33.7376 29.4358 32.8384 29.3397 31.9437C29.2437 31.049 28.8258 30.2213 28.1657 29.6185C27.5056 29.0157 26.6495 28.6798 25.7606 28.675Z" fill="white" fill-opacity="0.5"/>
<path d="M22.2563 18.6475C21.6508 18.3602 20.9893 18.2143 20.3206 18.2205C19.6519 18.2268 18.9932 18.3851 18.393 18.6837C17.7929 18.9823 17.2667 19.4136 16.8533 19.9458C16.4399 20.4779 16.1499 21.0973 16.0047 21.7581C15.8595 22.419 15.8628 23.1044 16.0144 23.7638C16.1659 24.4232 16.4619 25.0397 16.8804 25.5677C17.2989 26.0957 17.8293 26.5218 18.4323 26.8145C19.0353 27.1072 19.6955 27.2589 20.3642 27.2586C20.8651 27.2591 21.3624 27.1724 21.8343 27.0022C22.6801 26.7169 23.4215 26.1805 23.962 25.4627C24.5026 24.745 24.8173 23.8792 24.8652 22.9779C24.9131 22.0767 24.692 21.1817 24.2307 20.4093C23.7694 19.637 23.0891 19.0231 22.2785 18.6475H22.2563Z" stroke="white" stroke-opacity="0.5" stroke-miterlimit="10"/>
<path d="M10.3265 19.4075C10.0529 19.3408 9.77278 19.3061 9.49145 19.3041C8.53142 19.3041 7.61071 19.6902 6.93186 20.3775C6.25301 21.0647 5.87164 21.9969 5.87164 22.9688C5.87164 23.9408 6.25301 24.8729 6.93186 25.5602C7.61071 26.2475 8.53142 26.6336 9.49145 26.6336C9.62017 26.6403 9.74914 26.6403 9.87786 26.6336C10.7221 26.5369 11.5058 26.1423 12.0914 25.5189C12.6769 24.8956 13.0269 24.0834 13.0799 23.2248C13.1329 22.3663 12.8855 21.5163 12.3812 20.824C11.8769 20.1317 11.1478 19.6413 10.322 19.439L10.3265 19.4075Z" fill="white" fill-opacity="0.5"/>
<path d="M27.7015 10.5267C27.0267 10.0849 26.2258 9.88336 25.4253 9.95382C24.6247 10.0243 23.8701 10.3628 23.2808 10.9158C22.6914 11.4689 22.3008 12.2049 22.1707 13.0077C22.0406 13.8106 22.1784 14.6344 22.5624 15.3491C22.9463 16.0638 23.5545 16.6286 24.2908 16.9544C25.0272 17.2801 25.8497 17.3482 26.6286 17.1479C27.4074 16.9476 28.0982 16.4903 28.5917 15.8482C29.0852 15.2062 29.3533 14.4159 29.3538 13.6024C29.3541 12.9908 29.2031 12.3888 28.9144 11.8516C28.6258 11.3143 28.2088 10.8588 27.7015 10.5267Z" fill="white" fill-opacity="0.5"/>
</g>
<defs>
<clipPath id="clip0_18_22">
<rect width="40" height="36" fill="white"/>
</clipPath>
</defs>
</svg>
