<svg width="118" height="24" viewBox="0 0 118 24" fill="none" xmlns="http://www.w3.org/2000/svg">
<path d="M8.08 5.304H4.304V11.064H7.76C9.84 11.064 11.536 10.296 11.536 8.056C11.536 6.008 9.84 5.304 8.08 5.304ZM8.976 14.008H4.304V19.896H8.976C10.832 19.896 12.624 19.128 12.624 16.92C12.624 14.904 11.056 14.008 8.976 14.008ZM0.72 23V2.2H8.048C12.496 2.2 15.184 4.344 15.184 7.544C15.184 9.752 14.096 11.448 11.792 12.28C14.896 12.952 16.24 14.808 16.24 17.176C16.24 20.728 13.616 23 9.264 23H0.72ZM22.5203 14.424V23H19.0003V7.32H22.2323V10.52C23.0643 8.12 24.7603 6.936 26.8723 6.936C27.5763 6.936 28.1523 7.064 28.5683 7.288L27.9603 10.648C27.4163 10.52 26.8723 10.456 26.3603 10.456C24.1843 10.456 22.5203 11.256 22.5203 14.424ZM35.3158 20.696C37.6198 20.696 39.6358 19.288 39.6358 16.984V16.504H35.0278C33.2998 16.504 32.6277 17.304 32.6277 18.488C32.6277 19.896 33.6838 20.696 35.3158 20.696ZM39.8598 23V20.536C38.7078 22.52 36.6918 23.384 34.6118 23.384C31.4438 23.384 29.1717 21.496 29.1717 18.584C29.1717 15.896 31.1237 14.104 34.3558 14.104H38.8998C39.4758 14.104 39.6358 13.912 39.6358 13.432V13.176C39.6358 10.936 38.3878 9.784 36.5638 9.784C34.7398 9.784 33.6518 10.776 32.9798 12.44L29.7797 11.608C30.8678 8.632 33.3318 6.936 36.5638 6.936C40.7558 6.936 43.1238 9.4 43.1238 13.56V23H39.8598ZM48.2777 4.472C47.0297 4.472 46.0057 3.48 46.0057 2.264C46.0057 1.048 47.0297 0.0879993 48.2777 0.0879993C49.5577 0.0879993 50.5817 1.048 50.5817 2.264C50.5817 3.48 49.5577 4.472 48.2777 4.472ZM50.0377 7.32V23H46.5177V7.32H50.0377ZM57.234 14.072V23H53.714V7.32H57.01V10.168C57.97 7.992 59.794 6.936 62.066 6.936C66.45 6.936 68.114 9.848 68.114 13.752V23H64.594V13.912C64.594 11.48 63.442 10.072 61.042 10.072C58.642 10.072 57.234 11.544 57.234 14.072ZM79.28 5.304H75.504V11.064H78.96C81.04 11.064 82.736 10.296 82.736 8.056C82.736 6.008 81.04 5.304 79.28 5.304ZM80.176 14.008H75.504V19.896H80.176C82.032 19.896 83.824 19.128 83.824 16.92C83.824 14.904 82.256 14.008 80.176 14.008ZM71.92 23V2.2H79.248C83.696 2.2 86.384 4.344 86.384 7.544C86.384 9.752 85.296 11.448 82.992 12.28C86.096 12.952 87.44 14.808 87.44 17.176C87.44 20.728 84.816 23 80.464 23H71.92ZM97.0162 23.384C92.3762 23.384 89.2082 19.736 89.2082 15.16C89.2082 10.584 92.3762 6.936 97.0162 6.936C101.688 6.936 104.824 10.584 104.824 15.16C104.824 19.736 101.688 23.384 97.0162 23.384ZM97.0162 20.376C99.4482 20.376 101.24 18.424 101.24 15.16C101.24 11.896 99.4482 9.944 97.0162 9.944C94.6162 9.944 92.7922 11.896 92.7922 15.16C92.7922 18.424 94.6162 20.376 97.0162 20.376ZM116.644 10.2H111.78V17.784C111.78 19.512 112.612 20.312 113.828 20.312C114.692 20.312 115.396 19.992 116.292 19.32L117.764 21.784C116.388 22.904 114.916 23.384 113.316 23.384C110.34 23.384 108.26 21.56 108.26 17.784V10.2H105.572V7.32H108.42L109.156 3.64H111.78V7.32H116.644V10.2Z" fill="white"/>
</svg>
