<svg width="149" height="33" viewBox="0 0 149 33" fill="none" xmlns="http://www.w3.org/2000/svg">
<path d="M5.99805 7.46289C5.75195 7.46289 5.56445 7.19922 5.43555 6.67188C5.38867 6.50781 5.32422 6.32617 5.24219 6.12695C4.92578 5.36523 4.76758 4.70312 4.76758 4.14062C4.76758 3.67188 5.04297 3.19727 5.59375 2.7168C6.15625 2.22461 6.77734 1.97852 7.45703 1.97852C7.79688 1.97852 8.17773 2.11328 8.59961 2.38281C9.02148 2.64062 9.23242 2.89258 9.23242 3.13867C9.23242 3.52539 9.08594 4.18164 8.79297 5.10742C8.51172 6.0332 8.05469 6.66016 7.42188 6.98828C6.80078 7.30469 6.32617 7.46289 5.99805 7.46289ZM3.69531 27.0977C3.69531 27.9883 3.81836 28.9902 4.06445 30.1035C4.11133 30.3145 4.13477 30.4902 4.13477 30.6309C4.13477 30.8418 3.94141 31.1113 3.55469 31.4395C3.16797 31.7793 2.75781 31.9492 2.32422 31.9492C1.1875 31.9492 0.619141 30.9062 0.619141 28.8203C0.619141 26.6641 1.06445 23.2539 1.95508 18.5898C2.25977 16.9609 2.41211 15.959 2.41211 15.584C2.41211 14.8457 2.54688 14.2188 2.81641 13.7031C3.08594 13.1758 3.4668 12.9121 3.95898 12.9121C4.55664 12.9121 5.02539 13.0586 5.36523 13.3516C5.7168 13.6328 5.89258 13.9492 5.89258 14.3008C5.89258 14.6523 5.81055 15.1152 5.64648 15.6895C4.76758 18.7832 4.22266 20.998 4.01172 22.334C3.80078 23.6699 3.69531 25.2578 3.69531 27.0977ZM21.6348 17.4824C21.0255 17.4824 20.3575 17.8809 19.6309 18.6777C18.9161 19.4746 17.8204 21.2617 16.3438 24.0391C14.3985 27.7656 13.1388 29.8867 12.5645 30.4023C12.002 30.918 11.5333 31.1758 11.1583 31.1758C9.77547 31.1758 9.08406 30.5078 9.08406 29.1719C9.08406 28.6094 9.17781 27.8125 9.36531 26.7812C10.0098 23.2422 10.3321 19.5098 10.3321 15.584C10.3321 15.1387 10.5196 14.6465 10.8946 14.1074C11.2813 13.5566 11.6446 13.2812 11.9845 13.2812C12.5938 13.2812 13.0274 13.4688 13.2852 13.8438C13.543 14.2188 13.672 14.9746 13.672 16.1113C13.672 17.2949 13.3204 19.7324 12.6173 23.4238C12.3829 24.6426 12.2657 25.416 12.2657 25.7441C12.2657 25.9316 12.3126 26.0254 12.4063 26.0254C12.5821 26.0254 13.3966 24.625 14.8497 21.8242C16.3145 18.9766 17.5977 16.9727 18.6993 15.8125C19.8009 14.6523 21.0138 14.0723 22.338 14.0723C23.3927 14.0723 24.2481 14.5527 24.9044 15.5137C25.5723 16.4746 26.0587 18.2266 26.3634 20.7695C26.6915 23.6641 26.9845 25.4688 27.2423 26.1836C27.5118 26.8867 27.9337 27.2383 28.5079 27.2383C28.8712 27.2383 29.3282 27.1094 29.879 26.8516C29.9727 26.8047 30.043 26.7812 30.0899 26.7812C30.5938 26.7812 30.8458 27.0742 30.8458 27.6602C30.8458 28.1758 30.5001 28.7266 29.8087 29.3125C29.1173 29.8867 28.2852 30.1738 27.3126 30.1738C26.3165 30.1738 25.543 29.7812 24.9923 28.9961C24.4532 28.1992 24.0255 26.084 23.7091 22.6504C23.3809 19.2051 22.6895 17.4824 21.6348 17.4824ZM35.9533 31.8086C35.8713 32.1016 35.6486 32.3477 35.2853 32.5469C34.922 32.7461 34.5588 32.8457 34.1955 32.8457C33.0002 32.8457 32.4025 31.9727 32.4025 30.2266C32.4025 29.3945 32.6779 27.0391 33.2287 23.1602C33.5685 20.7812 33.7384 18.9766 33.7384 17.7461C33.7384 17.5352 33.4923 17.2598 33.0002 16.9199C32.4963 16.5918 32.2443 16.2695 32.2443 15.9531C32.2443 15.4492 32.6252 14.9043 33.3869 14.3184C33.9728 13.8613 34.3302 13.3516 34.4591 12.7891C34.5998 12.2266 34.758 11.4473 34.9338 10.4512C35.5314 6.81836 36.463 4.19922 37.7287 2.59375C39.006 0.988281 40.6291 0.185547 42.5978 0.185547C43.6408 0.185547 44.5255 0.542969 45.2521 1.25781C45.9787 1.96094 46.342 2.83984 46.342 3.89453C46.342 4.75 46.1369 5.72266 45.7267 6.8125C45.3283 7.89062 44.8713 8.42969 44.3556 8.42969C43.9689 8.42969 43.7755 8.23633 43.7755 7.84961L43.8986 6.14453C43.8986 3.88281 43.2658 2.75195 42.0002 2.75195C40.6291 2.75195 39.4923 4.09961 38.59 6.79492C37.6877 9.47852 37.2365 11.6641 37.2365 13.3516C37.2365 13.8906 37.588 14.1602 38.2912 14.1602C41.3498 14.1602 43.1486 14.1484 43.6877 14.125C44.2384 14.1016 44.5138 14.3301 44.5138 14.8105C44.5138 15.291 44.215 15.6602 43.6173 15.918C43.0314 16.1641 41.7423 16.3867 39.7502 16.5859C38.0509 16.7617 37.09 16.9082 36.8673 17.0254C36.0822 21.3848 35.6896 25.2695 35.6896 28.6797C35.6896 29.6992 35.7365 30.4551 35.8302 30.9473C35.9123 31.4043 35.9533 31.6914 35.9533 31.8086ZM50.9573 1.24023C51.801 1.24023 52.2229 1.7793 52.2229 2.85742C52.2229 3.81836 51.7131 6.10352 50.6936 9.71289C50.0491 11.9863 49.551 14.4941 49.1995 17.2363C48.8479 19.9785 48.6721 22.1289 48.6721 23.6875C48.6721 25.6211 48.7952 27.543 49.0412 29.4531C49.0881 29.8164 49.1116 30.0801 49.1116 30.2441C49.1116 30.8301 48.9123 31.334 48.5139 31.7559C48.1155 32.1777 47.6936 32.3887 47.2483 32.3887C46.6272 32.3887 46.1936 32.002 45.9475 31.2285C45.7131 30.4551 45.5959 29.207 45.5959 27.4844C45.5959 23.5586 46.0647 18.6953 47.0022 12.8945C47.9514 7.09375 48.7014 3.70117 49.2522 2.7168C49.8147 1.73242 50.383 1.24023 50.9573 1.24023ZM66.4359 23.3535C64.9359 25.873 63.4007 27.8242 61.8304 29.207C60.2601 30.5898 58.8011 31.2812 57.4534 31.2812C56.68 31.2812 55.889 30.8301 55.0804 29.9277C54.2835 29.0254 53.8851 27.6367 53.8851 25.7617C53.8851 24.2266 54.2542 21.9648 54.9925 18.9766C55.6136 16.4805 55.9241 14.7285 55.9241 13.7207C56.264 13.0176 56.7972 12.666 57.5238 12.666C58.0159 12.666 58.4085 12.8418 58.7015 13.1934C58.9945 13.5332 59.1409 13.8906 59.1409 14.2656C59.1409 15.0859 58.8538 16.252 58.2796 17.7637C57.1898 20.7051 56.6448 23.2305 56.6448 25.3398C56.6448 27.2617 57.0902 28.2227 57.9808 28.2227C59.1175 28.2227 60.5648 27.2559 62.3226 25.3223C64.0804 23.3887 65.5863 20.6934 66.8402 17.2363C67.3323 15.8535 67.7308 14.957 68.0355 14.5469C68.3519 14.125 68.7738 13.9141 69.3011 13.9141C70.098 13.9141 70.4964 14.4414 70.4964 15.4961C70.4964 15.625 70.3851 16.0527 70.1624 16.7793C69.4593 19.3457 69.1077 21.7715 69.1077 24.0566C69.1077 26.7988 69.5589 28.5742 70.4613 29.3828C70.93 29.8164 71.1644 30.168 71.1644 30.4375C71.1644 30.7656 70.9241 31.0645 70.4437 31.334C69.9749 31.6035 69.5472 31.7383 69.1605 31.7383C68.3402 31.7383 67.678 31.1289 67.1741 29.9102C66.6702 28.6914 66.4183 26.8926 66.4183 24.5137V23.9336C66.4183 23.7461 66.4241 23.5527 66.4359 23.3535ZM89.9652 25.041C89.9652 26.2363 88.9047 27.6777 86.7836 29.3652C84.6742 31.0527 82.4945 31.8965 80.2445 31.8965C78.3578 31.8965 76.8988 31.3398 75.8676 30.2266C74.848 29.1133 74.3383 27.5605 74.3383 25.5684C74.3383 22.2168 75.4691 19.0293 77.7309 16.0059C79.9926 12.9824 82.4652 11.4707 85.1488 11.4707C86.0277 11.4707 86.7426 11.7578 87.2934 12.332C87.8559 12.9062 88.1371 13.5977 88.1371 14.4062C88.1371 16.2109 87.2523 17.9395 85.4828 19.5918C83.7133 21.2441 81.3461 22.8672 78.3812 24.4609C77.7719 24.7773 77.4672 25.1875 77.4672 25.6914C77.4672 26.6641 77.7484 27.4434 78.3109 28.0293C78.8734 28.6152 79.7055 28.9082 80.807 28.9082C83.3266 28.9082 85.8988 27.5137 88.5238 24.7246C88.9105 24.3379 89.2035 24.1445 89.4027 24.1445C89.7777 24.1445 89.9652 24.4434 89.9652 25.041ZM77.7484 22.2988C82.7172 19.3457 85.2016 16.9727 85.2016 15.1797C85.2016 14.4766 84.8852 14.125 84.2523 14.125C83.1742 14.125 81.9555 14.916 80.5961 16.498C79.2484 18.0801 78.2992 20.0137 77.7484 22.2988ZM104.547 17.4824C103.938 17.4824 103.27 17.8809 102.543 18.6777C101.829 19.4746 100.733 21.2617 99.2563 24.0391C97.311 27.7656 96.0512 29.8867 95.477 30.4023C94.9145 30.918 94.4458 31.1758 94.0708 31.1758C92.688 31.1758 91.9966 30.5078 91.9966 29.1719C91.9966 28.6094 92.0903 27.8125 92.2778 26.7812C92.9223 23.2422 93.2446 19.5098 93.2446 15.584C93.2446 15.1387 93.4321 14.6465 93.8071 14.1074C94.1938 13.5566 94.5571 13.2812 94.8969 13.2812C95.5063 13.2812 95.9399 13.4688 96.1977 13.8438C96.4555 14.2188 96.5844 14.9746 96.5844 16.1113C96.5844 17.2949 96.2329 19.7324 95.5298 23.4238C95.2954 24.6426 95.1782 25.416 95.1782 25.7441C95.1782 25.9316 95.2251 26.0254 95.3188 26.0254C95.4946 26.0254 96.3091 24.625 97.7622 21.8242C99.227 18.9766 100.51 16.9727 101.612 15.8125C102.713 14.6523 103.926 14.0723 105.25 14.0723C106.305 14.0723 107.161 14.5527 107.817 15.5137C108.485 16.4746 108.971 18.2266 109.276 20.7695C109.604 23.6641 109.897 25.4688 110.155 26.1836C110.424 26.8867 110.846 27.2383 111.42 27.2383C111.784 27.2383 112.241 27.1094 112.791 26.8516C112.885 26.8047 112.956 26.7812 113.002 26.7812C113.506 26.7812 113.758 27.0742 113.758 27.6602C113.758 28.1758 113.413 28.7266 112.721 29.3125C112.03 29.8867 111.198 30.1738 110.225 30.1738C109.229 30.1738 108.456 29.7812 107.905 28.9961C107.366 28.1992 106.938 26.084 106.622 22.6504C106.293 19.2051 105.602 17.4824 104.547 17.4824ZM130.292 30.8066C129.987 30.6777 129.694 30.5371 129.413 30.3848C128.381 29.8691 126.987 29.6113 125.229 29.6113C124.21 29.6113 122.51 29.8105 120.131 30.209C117.753 30.5957 116.129 31.1934 115.262 32.002C114.665 32.5293 114.038 32.793 113.381 32.793C113.018 32.793 112.614 32.6875 112.169 32.4766C111.711 32.2656 111.471 31.9785 111.448 31.6152C111.999 31.0059 112.76 30.209 113.733 29.2246C119.018 23.8574 123.038 19.4043 125.792 15.8652C125.745 15.7598 125.557 15.707 125.229 15.707C124.608 15.707 123.284 15.8535 121.256 16.1465C120.342 16.2871 119.393 16.3574 118.409 16.3574C116.006 16.3574 114.805 15.7246 114.805 14.459C114.805 13.498 115.338 13.0176 116.405 13.0176C116.463 13.0176 116.575 13.0469 116.739 13.1055C117.583 13.457 118.602 13.6328 119.797 13.6328C121.379 13.6328 123.167 13.5039 125.159 13.2461C125.358 13.2109 125.592 13.1758 125.862 13.1406C126.12 13.1172 126.419 13.0703 126.758 13C127.438 12.8828 127.977 12.8242 128.376 12.8242C128.774 12.8242 129.178 12.9297 129.588 13.1406C130.01 13.3516 130.192 13.6914 130.133 14.1602L130.116 14.2305C129.858 15.25 126.758 18.9297 120.817 25.2695C119.387 26.8047 118.62 27.7129 118.514 27.9941C118.561 28.1113 118.678 28.1699 118.866 28.1699C119.03 28.1699 119.85 28.0117 121.327 27.6953C124.092 27.0977 126.19 26.7988 127.62 26.7988C129.858 26.7988 130.977 27.4785 130.977 28.8379C130.977 29.6934 130.749 30.3496 130.292 30.8066ZM137.526 31.8789C135.921 31.8789 134.596 31.2695 133.553 30.0508C132.51 28.832 131.989 27.3262 131.989 25.5332C131.989 22.5098 133.003 19.5332 135.03 16.6035C137.069 13.6621 139.506 12.1914 142.342 12.1914C144.217 12.1914 145.735 12.9121 146.895 14.3535C148.067 15.7949 148.653 17.5117 148.653 19.5039C148.653 22.5508 147.446 25.375 145.032 27.9766C142.63 30.5781 140.128 31.8789 137.526 31.8789ZM135.083 25.0762C135.083 26.2598 135.329 27.2266 135.821 27.9766C136.325 28.7266 136.987 29.1016 137.807 29.1016C139.553 29.1016 141.305 28.1465 143.063 26.2363C144.821 24.3145 145.7 22.1816 145.7 19.8379C145.7 18.3965 145.36 17.2305 144.68 16.3398C144.012 15.4375 143.11 14.9863 141.973 14.9863C140.087 14.9863 138.464 16.1465 137.104 18.4668C135.756 20.7754 135.083 22.9785 135.083 25.0762Z" fill="#F5F5F5"/>
</svg>
