<svg width="199" height="32" viewBox="0 0 199 32" fill="none" xmlns="http://www.w3.org/2000/svg">
<path d="M0.113636 15.4091V13.7045C1.39394 13.7045 2.28788 13.4432 2.79545 12.9205C3.30303 12.3902 3.55682 11.5152 3.55682 10.2955V7.03409C3.55682 5.875 3.68561 4.90151 3.94318 4.11364C4.20833 3.31818 4.60985 2.68182 5.14773 2.20454C5.68561 1.72727 6.36742 1.38258 7.19318 1.17045C8.01894 0.958333 8.99242 0.852272 10.1136 0.852272V3.54545C9.23485 3.54545 8.54924 3.67424 8.05682 3.93182C7.56439 4.18939 7.2197 4.59091 7.02273 5.13636C6.83333 5.67424 6.73864 6.36364 6.73864 7.20454V11.3409C6.73864 11.9242 6.65152 12.4659 6.47727 12.9659C6.30303 13.4583 5.98106 13.8864 5.51136 14.25C5.04167 14.6136 4.37121 14.8977 3.5 15.1023C2.62879 15.3068 1.5 15.4091 0.113636 15.4091ZM10.1136 29.8409C8.99242 29.8409 8.01894 29.7348 7.19318 29.5227C6.36742 29.3106 5.68561 28.9659 5.14773 28.4886C4.60985 28.0114 4.20833 27.375 3.94318 26.5795C3.68561 25.7917 3.55682 24.8182 3.55682 23.6591V20.3864C3.55682 19.1742 3.30303 18.303 2.79545 17.7727C2.28788 17.2424 1.39394 16.9773 0.113636 16.9773V15.2841C1.5 15.2841 2.62879 15.3864 3.5 15.5909C4.37121 15.7879 5.04167 16.072 5.51136 16.4432C5.98106 16.8068 6.30303 17.2386 6.47727 17.7386C6.65152 18.2311 6.73864 18.7689 6.73864 19.3523V23.4886C6.73864 24.322 6.83333 25.0076 7.02273 25.5455C7.2197 26.0909 7.56439 26.4924 8.05682 26.75C8.54924 27.0152 9.23485 27.1477 10.1136 27.1477V29.8409ZM0.113636 16.9773V13.7045H3.26136V16.9773H0.113636ZM19.2866 25V7.54545H22.6843V25H19.2866ZM21.0025 4.85227C20.4116 4.85227 19.904 4.6553 19.4798 4.26136C19.0631 3.85985 18.8548 3.38257 18.8548 2.82954C18.8548 2.26894 19.0631 1.79167 19.4798 1.39773C19.904 0.996211 20.4116 0.795454 21.0025 0.795454C21.5934 0.795454 22.0972 0.996211 22.5139 1.39773C22.9381 1.79167 23.1502 2.26894 23.1502 2.82954C23.1502 3.38257 22.9381 3.85985 22.5139 4.26136C22.0972 4.6553 21.5934 4.85227 21.0025 4.85227ZM29.3731 14.6364V25H25.9753V7.54545H29.2367V10.3864H29.4526C29.8541 9.46212 30.4829 8.7197 31.339 8.15909C32.2026 7.59848 33.2897 7.31818 34.6003 7.31818C35.7897 7.31818 36.8314 7.56818 37.7253 8.06818C38.6193 8.56061 39.3125 9.29545 39.8049 10.2727C40.2973 11.25 40.5435 12.4583 40.5435 13.8977V25H37.1458V14.3068C37.1458 13.0417 36.8163 12.053 36.1572 11.3409C35.4981 10.6212 34.5928 10.2614 33.4412 10.2614C32.6534 10.2614 31.9526 10.4318 31.339 10.7727C30.7329 11.1136 30.2519 11.6136 29.8958 12.2727C29.5473 12.9242 29.3731 13.7121 29.3731 14.6364ZM47.2181 14.6364V25H43.8203V7.54545H47.0817V10.3864H47.2976C47.6991 9.46212 48.3279 8.7197 49.184 8.15909C50.0476 7.59848 51.1347 7.31818 52.4453 7.31818C53.6347 7.31818 54.6764 7.56818 55.5703 8.06818C56.4643 8.56061 57.1575 9.29545 57.6499 10.2727C58.1423 11.25 58.3885 12.4583 58.3885 13.8977V25H54.9908V14.3068C54.9908 13.0417 54.6613 12.053 54.0022 11.3409C53.3431 10.6212 52.4378 10.2614 51.2863 10.2614C50.4984 10.2614 49.7976 10.4318 49.184 10.7727C48.5779 11.1136 48.0969 11.6136 47.7408 12.2727C47.3923 12.9242 47.2181 13.7121 47.2181 14.6364ZM69.0176 25.3523C67.3812 25.3523 65.9532 24.9773 64.7335 24.2273C63.5138 23.4773 62.5669 22.428 61.8926 21.0795C61.2184 19.7311 60.8812 18.1553 60.8812 16.3523C60.8812 14.5417 61.2184 12.9583 61.8926 11.6023C62.5669 10.2462 63.5138 9.19318 64.7335 8.44318C65.9532 7.69318 67.3812 7.31818 69.0176 7.31818C70.654 7.31818 72.082 7.69318 73.3017 8.44318C74.5214 9.19318 75.4684 10.2462 76.1426 11.6023C76.8169 12.9583 77.154 14.5417 77.154 16.3523C77.154 18.1553 76.8169 19.7311 76.1426 21.0795C75.4684 22.428 74.5214 23.4773 73.3017 24.2273C72.082 24.9773 70.654 25.3523 69.0176 25.3523ZM69.029 22.5C70.0896 22.5 70.9684 22.2197 71.6653 21.6591C72.3623 21.0985 72.8775 20.3523 73.2108 19.4205C73.5517 18.4886 73.7222 17.4621 73.7222 16.3409C73.7222 15.2273 73.5517 14.2045 73.2108 13.2727C72.8775 12.3333 72.3623 11.5795 71.6653 11.0114C70.9684 10.4432 70.0896 10.1591 69.029 10.1591C67.9608 10.1591 67.0744 10.4432 66.3699 11.0114C65.6729 11.5795 65.154 12.3333 64.8131 13.2727C64.4797 14.2045 64.3131 15.2273 64.3131 16.3409C64.3131 17.4621 64.4797 18.4886 64.8131 19.4205C65.154 20.3523 65.6729 21.0985 66.3699 21.6591C67.0744 22.2197 67.9608 22.5 69.029 22.5ZM79.6666 31.5455V7.54545H82.9848V10.375H83.2689C83.4658 10.0114 83.7499 9.59091 84.1211 9.11364C84.4923 8.63636 85.0075 8.2197 85.6666 7.86364C86.3257 7.5 87.1969 7.31818 88.2802 7.31818C89.6893 7.31818 90.9469 7.67424 92.053 8.38636C93.159 9.09848 94.0264 10.125 94.6552 11.4659C95.2916 12.8068 95.6098 14.4205 95.6098 16.3068C95.6098 18.1932 95.2954 19.8106 94.6666 21.1591C94.0378 22.5 93.1742 23.5341 92.0757 24.2614C90.9772 24.9811 89.7234 25.3409 88.3143 25.3409C87.2537 25.3409 86.3863 25.1629 85.712 24.8068C85.0454 24.4508 84.5227 24.0341 84.1439 23.5568C83.7651 23.0795 83.4734 22.6553 83.2689 22.2841H83.0643V31.5455H79.6666ZM82.9961 16.2727C82.9961 17.5 83.1742 18.5758 83.5302 19.5C83.8863 20.4242 84.4014 21.1477 85.0757 21.6705C85.7499 22.1856 86.5757 22.4432 87.553 22.4432C88.5681 22.4432 89.4166 22.1742 90.0984 21.6364C90.7802 21.0909 91.2954 20.3523 91.6439 19.4205C91.9999 18.4886 92.178 17.4394 92.178 16.2727C92.178 15.1212 92.0037 14.0871 91.6552 13.1705C91.3143 12.2538 90.7992 11.5303 90.1098 11C89.428 10.4697 88.5757 10.2045 87.553 10.2045C86.5681 10.2045 85.7348 10.4583 85.053 10.9659C84.3787 11.4735 83.8673 12.1818 83.5189 13.0909C83.1704 14 82.9961 15.0606 82.9961 16.2727ZM98.1366 25V7.54545H101.421V10.3182H101.603C101.921 9.37879 102.481 8.64015 103.284 8.10227C104.095 7.55682 105.012 7.28409 106.034 7.28409C106.246 7.28409 106.496 7.29167 106.784 7.30682C107.08 7.32197 107.311 7.34091 107.478 7.36364V10.6136C107.341 10.5758 107.099 10.5341 106.75 10.4886C106.402 10.4356 106.053 10.4091 105.705 10.4091C104.902 10.4091 104.186 10.5795 103.557 10.9205C102.936 11.2538 102.443 11.7197 102.08 12.3182C101.716 12.9091 101.534 13.5833 101.534 14.3409V25H98.1366ZM115.865 25.3523C114.229 25.3523 112.801 24.9773 111.581 24.2273C110.361 23.4773 109.414 22.428 108.74 21.0795C108.066 19.7311 107.729 18.1553 107.729 16.3523C107.729 14.5417 108.066 12.9583 108.74 11.6023C109.414 10.2462 110.361 9.19318 111.581 8.44318C112.801 7.69318 114.229 7.31818 115.865 7.31818C117.501 7.31818 118.93 7.69318 120.149 8.44318C121.369 9.19318 122.316 10.2462 122.99 11.6023C123.664 12.9583 124.001 14.5417 124.001 16.3523C124.001 18.1553 123.664 19.7311 122.99 21.0795C122.316 22.428 121.369 23.4773 120.149 24.2273C118.93 24.9773 117.501 25.3523 115.865 25.3523ZM115.876 22.5C116.937 22.5 117.816 22.2197 118.513 21.6591C119.21 21.0985 119.725 20.3523 120.058 19.4205C120.399 18.4886 120.57 17.4621 120.57 16.3409C120.57 15.2273 120.399 14.2045 120.058 13.2727C119.725 12.3333 119.21 11.5795 118.513 11.0114C117.816 10.4432 116.937 10.1591 115.876 10.1591C114.808 10.1591 113.922 10.4432 113.217 11.0114C112.52 11.5795 112.001 12.3333 111.661 13.2727C111.327 14.2045 111.161 15.2273 111.161 16.3409C111.161 17.4621 111.327 18.4886 111.661 19.4205C112.001 20.3523 112.52 21.0985 113.217 21.6591C113.922 22.2197 114.808 22.5 115.876 22.5ZM126.514 25V7.54545H129.775V10.3864H129.991C130.355 9.42424 130.95 8.67424 131.775 8.13636C132.601 7.59091 133.59 7.31818 134.741 7.31818C135.908 7.31818 136.885 7.59091 137.673 8.13636C138.469 8.68182 139.056 9.43182 139.435 10.3864H139.616C140.033 9.45455 140.696 8.71212 141.605 8.15909C142.514 7.59848 143.597 7.31818 144.855 7.31818C146.438 7.31818 147.73 7.81439 148.73 8.80682C149.738 9.79924 150.241 11.2955 150.241 13.2955V25H146.844V13.6136C146.844 12.4318 146.522 11.5758 145.878 11.0455C145.234 10.5152 144.465 10.25 143.571 10.25C142.465 10.25 141.605 10.5909 140.991 11.2727C140.378 11.947 140.071 12.8144 140.071 13.875V25H136.685V13.3977C136.685 12.4508 136.389 11.6894 135.798 11.1136C135.207 10.5379 134.438 10.25 133.491 10.25C132.847 10.25 132.253 10.4205 131.707 10.7614C131.169 11.0947 130.734 11.5606 130.4 12.1591C130.075 12.7576 129.912 13.4508 129.912 14.2386V25H126.514ZM153.515 31.5455V7.54545H156.834V10.375H157.118C157.315 10.0114 157.599 9.59091 157.97 9.11364C158.341 8.63636 158.856 8.2197 159.515 7.86364C160.174 7.5 161.046 7.31818 162.129 7.31818C163.538 7.31818 164.796 7.67424 165.902 8.38636C167.008 9.09848 167.875 10.125 168.504 11.4659C169.14 12.8068 169.459 14.4205 169.459 16.3068C169.459 18.1932 169.144 19.8106 168.515 21.1591C167.887 22.5 167.023 23.5341 165.924 24.2614C164.826 24.9811 163.572 25.3409 162.163 25.3409C161.102 25.3409 160.235 25.1629 159.561 24.8068C158.894 24.4508 158.371 24.0341 157.993 23.5568C157.614 23.0795 157.322 22.6553 157.118 22.2841H156.913V31.5455H153.515ZM156.845 16.2727C156.845 17.5 157.023 18.5758 157.379 19.5C157.735 20.4242 158.25 21.1477 158.924 21.6705C159.599 22.1856 160.424 22.4432 161.402 22.4432C162.417 22.4432 163.265 22.1742 163.947 21.6364C164.629 21.0909 165.144 20.3523 165.493 19.4205C165.849 18.4886 166.027 17.4394 166.027 16.2727C166.027 15.1212 165.852 14.0871 165.504 13.1705C165.163 12.2538 164.648 11.5303 163.959 11C163.277 10.4697 162.424 10.2045 161.402 10.2045C160.417 10.2045 159.584 10.4583 158.902 10.9659C158.227 11.4735 157.716 12.1818 157.368 13.0909C157.019 14 156.845 15.0606 156.845 16.2727ZM180.133 7.54545V10.2727H170.599V7.54545H180.133ZM173.156 3.36364H176.554V19.875C176.554 20.5341 176.652 21.0303 176.849 21.3636C177.046 21.6894 177.3 21.9129 177.61 22.0341C177.929 22.1477 178.273 22.2045 178.644 22.2045C178.917 22.2045 179.156 22.1856 179.36 22.1477C179.565 22.1098 179.724 22.0795 179.838 22.0568L180.451 24.8636C180.254 24.9394 179.974 25.0152 179.61 25.0909C179.247 25.1742 178.792 25.2197 178.247 25.2273C177.353 25.2424 176.519 25.0833 175.747 24.75C174.974 24.4167 174.349 23.9015 173.872 23.2045C173.394 22.5076 173.156 21.6326 173.156 20.5795V3.36364ZM198.494 15.2841V16.9773C197.213 16.9773 196.319 17.2424 195.812 17.7727C195.304 18.303 195.05 19.1742 195.05 20.3864V23.6591C195.05 24.8182 194.918 25.7917 194.653 26.5795C194.395 27.375 193.997 28.0114 193.459 28.4886C192.922 28.9659 192.24 29.3106 191.414 29.5227C190.588 29.7348 189.615 29.8409 188.494 29.8409V27.1477C189.372 27.1477 190.058 27.0152 190.55 26.75C191.043 26.4924 191.384 26.0909 191.573 25.5455C191.77 25.0076 191.869 24.322 191.869 23.4886V19.3523C191.869 18.7689 191.956 18.2311 192.13 17.7386C192.304 17.2386 192.626 16.8068 193.096 16.4432C193.565 16.072 194.236 15.7879 195.107 15.5909C195.978 15.3864 197.107 15.2841 198.494 15.2841ZM188.494 0.852272C189.615 0.852272 190.588 0.958333 191.414 1.17045C192.24 1.38258 192.922 1.72727 193.459 2.20454C193.997 2.68182 194.395 3.31818 194.653 4.11364C194.918 4.90151 195.05 5.875 195.05 7.03409V10.2955C195.05 11.5152 195.304 12.3902 195.812 12.9205C196.319 13.4432 197.213 13.7045 198.494 13.7045V15.4091C197.107 15.4091 195.978 15.3068 195.107 15.1023C194.236 14.8977 193.565 14.6136 193.096 14.25C192.626 13.8864 192.304 13.4583 192.13 12.9659C191.956 12.4659 191.869 11.9242 191.869 11.3409V7.20454C191.869 6.36364 191.77 5.67424 191.573 5.13636C191.384 4.59091 191.043 4.18939 190.55 3.93182C190.058 3.67424 189.372 3.54545 188.494 3.54545V0.852272ZM198.494 13.7045V16.9773H195.346V13.7045H198.494Z" fill="white"/>
</svg>
