<svg width="97" height="24" viewBox="0 0 97 24" fill="none" xmlns="http://www.w3.org/2000/svg">
<path d="M3.50293 12.0781C3.58105 12.957 3.80078 13.6309 4.16211 14.0996C4.82617 14.9492 5.97852 15.374 7.61914 15.374C8.5957 15.374 9.45508 15.1641 10.1973 14.7441C10.9395 14.3145 11.3105 13.6553 11.3105 12.7666C11.3105 12.0928 11.0127 11.5801 10.417 11.2285C10.0361 11.0137 9.28418 10.7646 8.16113 10.4814L6.06641 9.9541C4.72852 9.62207 3.74219 9.25098 3.10742 8.84082C1.97461 8.12793 1.4082 7.1416 1.4082 5.88184C1.4082 4.39746 1.94043 3.19629 3.00488 2.27832C4.0791 1.36035 5.51953 0.901367 7.32617 0.901367C9.68945 0.901367 11.3936 1.59473 12.4385 2.98145C13.0928 3.86035 13.4102 4.80762 13.3906 5.82324H10.9004C10.8516 5.22754 10.6416 4.68555 10.2705 4.19727C9.66504 3.50391 8.61523 3.15723 7.12109 3.15723C6.125 3.15723 5.36816 3.34766 4.85059 3.72852C4.34277 4.10938 4.08887 4.6123 4.08887 5.2373C4.08887 5.9209 4.42578 6.46777 5.09961 6.87793C5.49023 7.12207 6.06641 7.33691 6.82812 7.52246L8.57129 7.94727C10.4658 8.40625 11.7354 8.85059 12.3799 9.28027C13.4053 9.9541 13.918 11.0137 13.918 12.459C13.918 13.8555 13.3857 15.0615 12.3213 16.0771C11.2666 17.0928 9.65527 17.6006 7.4873 17.6006C5.15332 17.6006 3.49805 17.0732 2.52148 16.0186C1.55469 14.9541 1.03711 13.6406 0.96875 12.0781H3.50293ZM16.6355 1.31152H19.1404V3.53809C19.8826 2.62012 20.6687 1.96094 21.4988 1.56055C22.3289 1.16016 23.2518 0.959961 24.2674 0.959961C26.4939 0.959961 27.9979 1.73633 28.7791 3.28906C29.2088 4.13867 29.4236 5.35449 29.4236 6.93652V17H26.743V7.1123C26.743 6.15527 26.6014 5.38379 26.3182 4.79785C25.8494 3.82129 24.9998 3.33301 23.7693 3.33301C23.1443 3.33301 22.6316 3.39648 22.2312 3.52344C21.5086 3.73828 20.8738 4.16797 20.327 4.8125C19.8875 5.33008 19.5994 5.86719 19.4627 6.42383C19.3357 6.9707 19.2723 7.75684 19.2723 8.78223V17H16.6355V1.31152ZM39.2604 15.3008C41.0084 15.3008 42.2047 14.6416 42.8492 13.3232C43.5035 11.9951 43.8307 10.5205 43.8307 8.89941C43.8307 7.43457 43.5963 6.24316 43.1275 5.3252C42.3854 3.87988 41.1061 3.15723 39.2896 3.15723C37.6783 3.15723 36.5064 3.77246 35.774 5.00293C35.0416 6.2334 34.6754 7.71777 34.6754 9.45605C34.6754 11.126 35.0416 12.5176 35.774 13.6309C36.5064 14.7441 37.6686 15.3008 39.2604 15.3008ZM39.3629 0.857422C41.3844 0.857422 43.0934 1.53125 44.4898 2.87891C45.8863 4.22656 46.5846 6.20898 46.5846 8.82617C46.5846 11.3555 45.9693 13.4453 44.7389 15.0957C43.5084 16.7461 41.5992 17.5713 39.0113 17.5713C36.8531 17.5713 35.1393 16.8438 33.8697 15.3887C32.6002 13.9238 31.9654 11.9609 31.9654 9.5C31.9654 6.86328 32.6344 4.76367 33.9723 3.20117C35.3102 1.63867 37.107 0.857422 39.3629 0.857422ZM55.6596 15.3008C57.4076 15.3008 58.6039 14.6416 59.2484 13.3232C59.9027 11.9951 60.2299 10.5205 60.2299 8.89941C60.2299 7.43457 59.9955 6.24316 59.5268 5.3252C58.7846 3.87988 57.5053 3.15723 55.6889 3.15723C54.0775 3.15723 52.9057 3.77246 52.1732 5.00293C51.4408 6.2334 51.0746 7.71777 51.0746 9.45605C51.0746 11.126 51.4408 12.5176 52.1732 13.6309C52.9057 14.7441 54.0678 15.3008 55.6596 15.3008ZM55.7621 0.857422C57.7836 0.857422 59.4926 1.53125 60.8891 2.87891C62.2855 4.22656 62.9838 6.20898 62.9838 8.82617C62.9838 11.3555 62.3686 13.4453 61.1381 15.0957C59.9076 16.7461 57.9984 17.5713 55.4105 17.5713C53.2523 17.5713 51.5385 16.8438 50.2689 15.3887C48.9994 13.9238 48.3646 11.9609 48.3646 9.5C48.3646 6.86328 49.0336 4.76367 50.3715 3.20117C51.7094 1.63867 53.5062 0.857422 55.7621 0.857422ZM72.4543 15.2275C73.6848 15.2275 74.7053 14.7148 75.5158 13.6895C76.3361 12.6543 76.7463 11.1113 76.7463 9.06055C76.7463 7.81055 76.5656 6.73633 76.2043 5.83789C75.5207 4.10938 74.2707 3.24512 72.4543 3.24512C70.6281 3.24512 69.3781 4.1582 68.7043 5.98438C68.343 6.96094 68.1623 8.20117 68.1623 9.70508C68.1623 10.916 68.343 11.9463 68.7043 12.7959C69.3879 14.417 70.6379 15.2275 72.4543 15.2275ZM65.6281 1.38477H68.1916V3.46484C68.7189 2.75195 69.2951 2.2002 69.9201 1.80957C70.8088 1.22363 71.8537 0.930664 73.0549 0.930664C74.8322 0.930664 76.341 1.61426 77.5812 2.98145C78.8215 4.33887 79.4416 6.28223 79.4416 8.81152C79.4416 12.2295 78.548 14.6709 76.7609 16.1357C75.6281 17.0635 74.3098 17.5273 72.8059 17.5273C71.6242 17.5273 70.633 17.2686 69.8322 16.751C69.3635 16.458 68.841 15.9551 68.2648 15.2422V23.2549H65.6281V1.38477ZM84.2539 12.8252C84.2539 13.5869 84.5322 14.1875 85.0889 14.627C85.6455 15.0664 86.3047 15.2861 87.0664 15.2861C87.9941 15.2861 88.8926 15.0713 89.7617 14.6416C91.2266 13.9287 91.959 12.7617 91.959 11.1406V9.0166C91.6367 9.22168 91.2217 9.39258 90.7139 9.5293C90.2061 9.66602 89.708 9.76367 89.2197 9.82227L87.623 10.0273C86.666 10.1543 85.9482 10.3545 85.4697 10.6279C84.6592 11.0869 84.2539 11.8193 84.2539 12.8252ZM90.6406 7.49316C91.2461 7.41504 91.6514 7.16113 91.8564 6.73145C91.9736 6.49707 92.0322 6.16016 92.0322 5.7207C92.0322 4.82227 91.71 4.17285 91.0654 3.77246C90.4307 3.3623 89.5176 3.15723 88.3262 3.15723C86.9492 3.15723 85.9727 3.52832 85.3965 4.27051C85.0742 4.68066 84.8643 5.29102 84.7666 6.10156H82.3057C82.3545 4.16797 82.9795 2.8252 84.1807 2.07324C85.3916 1.31152 86.793 0.930664 88.3848 0.930664C90.2305 0.930664 91.7295 1.28223 92.8818 1.98535C94.0244 2.68848 94.5957 3.78223 94.5957 5.2666V14.3047C94.5957 14.5781 94.6494 14.7979 94.7568 14.9639C94.874 15.1299 95.1133 15.2129 95.4746 15.2129C95.5918 15.2129 95.7236 15.208 95.8701 15.1982C96.0166 15.1787 96.1729 15.1543 96.3389 15.125V17.0732C95.9287 17.1904 95.6162 17.2637 95.4014 17.293C95.1865 17.3223 94.8936 17.3369 94.5225 17.3369C93.6143 17.3369 92.9551 17.0146 92.5449 16.3701C92.3301 16.0283 92.1787 15.5449 92.0908 14.9199C91.5537 15.623 90.7822 16.2334 89.7764 16.751C88.7705 17.2686 87.6621 17.5273 86.4512 17.5273C84.9961 17.5273 83.8047 17.0879 82.877 16.209C81.959 15.3203 81.5 14.2119 81.5 12.8838C81.5 11.4287 81.9541 10.3008 82.8623 9.5C83.7705 8.69922 84.9619 8.20605 86.4365 8.02051L90.6406 7.49316Z" fill="white"/>
</svg>
