<svg width="96" height="26" viewBox="0 0 96 26" fill="none" xmlns="http://www.w3.org/2000/svg">
<path d="M20 24.8438L14.7188 25L14.4062 22.7656C13.7708 23.3385 12.9062 23.9062 11.8125 24.4688C10.7188 25.0312 9.60938 25.3125 8.48438 25.3125C6.77604 25.3125 5.49479 24.8125 4.64062 23.8125C3.78646 22.8125 3.35938 21.4062 3.35938 19.5938V10.5938L0.640625 9.95312V8.20312L6.5625 8.04688V19.2656C6.5625 20.401 6.78646 21.2396 7.23438 21.7812C7.68229 22.3229 8.41667 22.5938 9.4375 22.5938C10.25 22.5938 10.9948 22.4115 11.6719 22.0469C12.3594 21.6719 12.9323 21.2604 13.3906 20.8125C13.849 20.3646 14.0781 20.1198 14.0781 20.0781V10.5938L11.3594 9.95312V8.20312L17.2812 8.04688V22.4375L20 23.0781V24.8438ZM30.2575 14.2812L34.0856 8.20312L38.7262 8.04688V9.95312L36.0075 10.4375L32.0075 16.3594L36.1012 22.5L39.0544 23.2344V25H31.2419V23.2344L32.5231 22.8594L29.8981 18.625L25.9294 25H21.2887V23.2344L24.1012 22.5L28.1794 16.5156L24.07 10.4062L21.6169 9.95312V8.20312L28.9137 8.04688V9.95312L27.7887 10.1562L30.2575 14.2812ZM45.4681 9.57812C47.041 8.33854 48.64 7.71875 50.265 7.71875C52.5046 7.71875 54.1817 8.46354 55.2962 9.95312C56.4212 11.4323 56.9837 13.4635 56.9837 16.0469C56.9837 17.8802 56.6452 19.4948 55.9681 20.8906C55.3015 22.2865 54.3067 23.375 52.9837 24.1562C51.6608 24.9271 50.0619 25.3125 48.1869 25.3125C47.1452 25.3125 46.1869 25.2552 45.3119 25.1406C44.4369 25.026 43.739 24.9062 43.2181 24.7812C42.7077 24.6458 42.39 24.5573 42.265 24.5156V2.92188L39.7025 2.28125V0.515625L45.4681 0.359375V9.57812ZM45.4681 22.4375C45.4681 22.4583 45.7546 22.5208 46.3275 22.625C46.9004 22.7188 47.6817 22.7656 48.6712 22.7656C50.4212 22.7656 51.6817 22.1771 52.4525 21C53.2337 19.8229 53.6244 18.276 53.6244 16.3594C53.6244 14.4844 53.2962 13.0052 52.64 11.9219C51.9942 10.8281 50.989 10.2812 49.6244 10.2812C48.7702 10.2812 48.0306 10.4375 47.4056 10.75C46.791 11.0521 46.3119 11.3802 45.9681 11.7344C45.6348 12.0885 45.4681 12.2969 45.4681 12.3594V22.4375ZM68.1787 7.71875C70.5433 7.71875 72.3871 8.48438 73.71 10.0156C75.0329 11.5365 75.6944 13.599 75.6944 16.2031C75.6944 17.9948 75.361 19.5833 74.6944 20.9688C74.0381 22.3542 73.1006 23.4271 71.8819 24.1875C70.6735 24.9375 69.2777 25.3125 67.6944 25.3125C65.2673 25.3125 63.3819 24.5833 62.0381 23.125C60.6944 21.6667 60.0225 19.5208 60.0225 16.6875C60.0225 14.8958 60.3662 13.3229 61.0537 11.9688C61.7517 10.6042 62.7152 9.55729 63.9444 8.82812C65.1735 8.08854 66.585 7.71875 68.1787 7.71875ZM68.0225 10.2812C66.4392 10.2812 65.2673 10.8021 64.5069 11.8438C63.7569 12.875 63.3819 14.4323 63.3819 16.5156C63.3819 20.6719 64.8767 22.7552 67.8662 22.7656C69.4287 22.7656 70.5642 22.2344 71.2725 21.1719C71.9808 20.099 72.335 18.4948 72.335 16.3594C72.335 12.3073 70.8975 10.2812 68.0225 10.2812ZM86.4362 14.2812L90.2644 8.20312L94.905 8.04688V9.95312L92.1862 10.4375L88.1862 16.3594L92.28 22.5L95.2331 23.2344V25H87.4206V23.2344L88.7019 22.8594L86.0769 18.625L82.1081 25H77.4675V23.2344L80.28 22.5L84.3581 16.5156L80.2487 10.4062L77.7956 9.95312V8.20312L85.0925 8.04688V9.95312L83.9675 10.1562L86.4362 14.2812Z" fill="white"/>
</svg>
