<svg width="196" height="30" viewBox="0 0 196 30" fill="none" xmlns="http://www.w3.org/2000/svg">
<path d="M27.2 9.216C27.2 9.536 27.04 9.728 26.72 9.792C26.656 9.792 26.56 9.81333 26.432 9.856C26.304 9.87733 26.1333 9.90933 25.92 9.952C25.6853 9.99467 25.504 10.0373 25.376 10.08C25.2693 10.1013 25.184 10.112 25.12 10.112L20.608 24H18.368C18.0693 24 17.8773 23.8293 17.792 23.488L14.208 12.48C14.144 12.3093 14.0693 12.0533 13.984 11.712C13.9627 11.6053 13.9413 11.4987 13.92 11.392C13.8987 11.264 13.8667 11.136 13.824 11.008C13.8027 11.136 13.7813 11.264 13.76 11.392C13.7387 11.52 13.7173 11.648 13.696 11.776L13.504 12.48L9.856 23.456C9.728 23.8187 9.51467 24 9.216 24H7.04L2.56 10.08C2.45333 10.08 2.272 10.048 2.016 9.984C1.73867 9.92 1.51467 9.86667 1.344 9.824C1.17333 9.78133 1.04533 9.76 0.96 9.76C0.618667 9.696 0.448 9.49333 0.448 9.152V7.808H7.68V9.152C7.68 9.49333 7.52 9.696 7.2 9.76C6.944 9.824 6.67733 9.87733 6.4 9.92L5.44 10.112L8 18.816C8.04267 19.0293 8.08533 19.2213 8.128 19.392C8.17067 19.5627 8.20267 19.712 8.224 19.84C8.37333 20.544 8.448 20.9387 8.448 21.024C8.512 20.6827 8.72533 19.9467 9.088 18.816L12.48 8.32C12.608 7.936 12.864 7.744 13.248 7.744H14.496C14.9013 7.744 15.168 7.936 15.296 8.32L18.656 18.816L19.232 20.992C19.36 20.224 19.52 19.4987 19.712 18.816L22.336 10.112C22.2293 10.112 21.6107 9.99467 20.48 9.76C20.1387 9.696 19.968 9.49333 19.968 9.152V7.808L27.2 7.84V9.216ZM36.0365 7.552C36.9752 7.552 37.8605 7.712 38.6925 8.032C39.5458 8.352 40.2498 8.81067 40.8045 9.408C41.4445 10.0907 41.9138 10.848 42.2125 11.68C42.5538 12.64 42.7245 13.664 42.7245 14.752C42.7245 15.2427 42.6818 15.5413 42.5965 15.648C42.4898 15.7973 42.2978 15.872 42.0205 15.872H31.2685C31.2685 16.896 31.3965 17.792 31.6525 18.56C31.8658 19.2213 32.2285 19.84 32.7405 20.416C33.2098 20.9493 33.7432 21.3333 34.3405 21.568C34.9805 21.824 35.6632 21.952 36.3885 21.952C37.1565 21.952 37.7752 21.8773 38.2445 21.728C38.6925 21.5787 39.1405 21.3973 39.5885 21.184C40.0578 20.9493 40.3778 20.7787 40.5485 20.672C40.8258 20.5013 41.0392 20.416 41.1885 20.416C41.4232 20.416 41.6045 20.512 41.7325 20.704L42.5325 21.76C42.2338 22.144 41.8072 22.5067 41.2525 22.848C40.6125 23.2533 40.0898 23.52 39.6845 23.648C39.0445 23.8613 38.4685 24.0107 37.9565 24.096C37.3165 24.2027 36.7298 24.256 36.1965 24.256C35.0872 24.256 34.0525 24.064 33.0925 23.68C32.1752 23.3173 31.3538 22.752 30.6285 21.984C29.9458 21.28 29.4125 20.3733 29.0285 19.264C28.6445 18.176 28.4525 16.9387 28.4525 15.552C28.4525 14.4427 28.6338 13.3973 28.9965 12.416C29.3592 11.4133 29.8605 10.56 30.5005 9.856C31.1618 9.13067 31.9618 8.56533 32.9005 8.16C33.8392 7.75467 34.8845 7.552 36.0365 7.552ZM36.1005 9.632C34.7138 9.632 33.6365 10.0267 32.8685 10.816C32.0792 11.648 31.5885 12.7573 31.3965 14.144H40.1965C40.1965 13.4827 40.1005 12.8853 39.9085 12.352C39.6738 11.6907 39.4178 11.2107 39.1405 10.912C38.7778 10.528 38.3405 10.2187 37.8285 9.984C37.3378 9.77067 36.7512 9.664 36.0685 9.664L36.1005 9.632ZM60.9705 15.904C60.9705 17.248 60.7785 18.432 60.3945 19.456C59.9892 20.5227 59.4772 21.3973 58.8585 22.08C58.2398 22.7627 57.4932 23.296 56.6185 23.68C55.7652 24.064 54.8265 24.256 53.8025 24.256C51.9892 24.256 49.5998 23.9573 46.6345 23.36V2.752L45.9305 2.656L44.5865 2.432C44.4372 2.41067 44.3198 2.34667 44.2345 2.24C44.1492 2.112 44.1065 1.97333 44.1065 1.824V0.447998H49.5145V10.144C50.1972 9.35467 50.9652 8.72533 51.8185 8.256C52.6718 7.78667 53.6532 7.552 54.7625 7.552C55.7225 7.552 56.5758 7.72267 57.3225 8.064C58.0692 8.40533 58.7092 8.93867 59.2425 9.664C59.7758 10.4107 60.1812 11.264 60.4585 12.224C60.7572 13.2907 60.9065 14.4853 60.9065 15.808H60.9705V15.904ZM56.7785 20.352C57.1838 19.8187 57.4932 19.1787 57.7065 18.432C57.9198 17.6427 58.0265 16.832 58.0265 16V15.744C58.0265 14.6347 57.9412 13.7387 57.7705 13.056C57.5785 12.3307 57.3012 11.712 56.9385 11.2C56.5545 10.688 56.1278 10.3253 55.6585 10.112C55.1678 9.89867 54.5812 9.792 53.8985 9.792C52.9172 9.792 52.0958 10.0053 51.4345 10.432C50.7305 10.88 50.0905 11.488 49.5145 12.256V21.504C49.8132 21.5893 50.2612 21.696 50.8585 21.824C51.4772 21.9307 52.0958 21.9947 52.7145 22.016H53.5465C54.2505 21.9733 54.8265 21.8453 55.2745 21.632C55.8292 21.376 56.3198 20.9707 56.7465 20.416L56.7785 20.352ZM70.5843 0.831999C71.5443 0.831999 72.4403 0.959999 73.2723 1.216C74.0403 1.45067 74.7443 1.856 75.3843 2.432C75.9816 2.96533 76.4403 3.584 76.7603 4.288C77.1016 5.03467 77.2723 5.824 77.2723 6.656C77.2723 7.38133 77.1763 8.032 76.9843 8.608C76.7923 9.16267 76.5256 9.664 76.1843 10.112C75.8856 10.496 75.4589 10.8587 74.9043 11.2C74.4563 11.4773 73.9016 11.7227 73.2403 11.936C74.7336 12.32 75.8643 12.9813 76.6323 13.92C77.3789 14.816 77.7523 15.9787 77.7523 17.408C77.7523 18.432 77.5496 19.3813 77.1443 20.256C76.7389 21.152 76.2056 21.8667 75.5443 22.4C74.7976 23.0187 73.9869 23.4773 73.1123 23.776C72.1949 24.096 71.2029 24.256 70.1363 24.256C68.8776 24.256 67.8429 24.1067 67.0323 23.808C66.1576 23.488 65.4216 23.0613 64.8243 22.528C64.2269 21.9947 63.7363 21.3653 63.3523 20.64C62.9469 19.8507 62.6163 19.0507 62.3603 18.24L63.5763 17.728C63.7683 17.6427 64.0029 17.6 64.2803 17.6C64.4936 17.6 64.6749 17.6427 64.8243 17.728C64.9949 17.8347 65.1123 17.984 65.1763 18.176C65.1763 18.1973 65.1869 18.2187 65.2083 18.24C65.2296 18.2613 65.2403 18.2827 65.2403 18.304C65.2403 18.3253 65.2509 18.3573 65.2723 18.4C65.2936 18.4213 65.3043 18.4427 65.3043 18.464C65.3469 18.5707 65.5176 18.9227 65.8163 19.52C66.0296 19.9467 66.3176 20.3093 66.6803 20.608C67.0216 20.8853 67.4803 21.1627 68.0563 21.44C68.6109 21.696 69.2723 21.824 70.0403 21.824C70.8509 21.824 71.5549 21.696 72.1523 21.44C72.7923 21.1627 73.3043 20.8213 73.6883 20.416C74.0936 19.968 74.3923 19.4987 74.5843 19.008C74.7976 18.432 74.9043 17.9307 74.9043 17.504C74.9043 16.928 74.8189 16.3627 74.6483 15.808C74.4776 15.2747 74.1789 14.8267 73.7523 14.464C73.3256 14.1013 72.7283 13.824 71.9603 13.632C71.1069 13.4187 70.1256 13.312 69.0163 13.312V11.232C69.8269 11.232 70.6589 11.1147 71.5123 10.88C72.1309 10.7093 72.6856 10.432 73.1763 10.048C73.6456 9.68533 73.9656 9.26933 74.1363 8.8C74.3283 8.288 74.4243 7.744 74.4243 7.168C74.4243 6.528 74.3283 5.952 74.1363 5.44C73.9656 4.992 73.6669 4.58667 73.2403 4.224C72.8563 3.904 72.4296 3.66933 71.9603 3.52C71.4056 3.34933 70.8723 3.264 70.3603 3.264C69.7416 3.264 69.2083 3.34933 68.7603 3.52C68.1843 3.73333 67.7469 3.968 67.4483 4.224C67.0429 4.56533 66.7229 4.928 66.4883 5.312C66.2323 5.73867 66.0403 6.19733 65.9123 6.688C65.8483 7.008 65.7203 7.232 65.5283 7.36C65.3363 7.488 65.1123 7.552 64.8563 7.552H64.4723L63.0003 7.296C63.1283 6.22933 63.4163 5.30133 63.8643 4.512C64.3123 3.72267 64.8563 3.05067 65.4963 2.496C66.1149 1.96267 66.8616 1.54667 67.7363 1.248C68.5469 0.970666 69.4643 0.831999 70.4883 0.831999H70.5843ZM86.017 7.552C87.1263 7.552 88.5343 7.84 90.241 8.416V12.576H88.993C88.6943 12.576 88.513 12.4267 88.449 12.128L88.257 10.016C87.2543 9.78133 86.4223 9.664 85.761 9.664H85.729C84.8543 9.664 84.1183 9.89867 83.521 10.368C82.945 10.816 82.657 11.3067 82.657 11.84C82.657 12.3947 82.785 12.8 83.041 13.056C83.4677 13.5467 84.0863 13.92 84.897 14.176L85.857 14.464C86.0277 14.5067 86.369 14.6133 86.881 14.784L88.417 15.36C88.8437 15.5093 89.2917 15.7867 89.761 16.192C90.6357 16.8747 91.073 17.8133 91.073 19.008C91.073 20.5653 90.5503 21.8027 89.505 22.72C88.3743 23.7227 86.945 24.224 85.217 24.224C83.4463 24.224 81.697 23.936 79.969 23.36V19.136H81.121C81.377 19.136 81.537 19.264 81.601 19.52L81.793 21.568C82.6463 21.9947 83.745 22.208 85.089 22.208C86.113 22.208 86.945 21.9413 87.585 21.408C88.1397 20.9173 88.417 20.3733 88.417 19.776C88.417 19.1573 88.289 18.7093 88.033 18.432C87.7343 18.0907 87.4143 17.8347 87.073 17.664C86.6037 17.4293 86.1557 17.2587 85.729 17.152C84.1503 16.64 83.1583 16.2987 82.753 16.128C82.241 15.8933 81.761 15.5947 81.313 15.232C80.417 14.4853 79.969 13.4827 79.969 12.224C79.969 10.944 80.481 9.856 81.505 8.96C82.5717 8.02133 84.0757 7.552 86.017 7.552ZM97.254 10.304C98.8113 8.42667 100.625 7.488 102.694 7.488C104.593 7.488 106.086 8.192 107.174 9.6C108.283 11.0933 108.838 13.1627 108.838 15.808C108.838 18.24 108.219 20.2347 106.982 21.792C105.681 23.4133 104.038 24.224 102.054 24.224C100.07 24.224 98.5127 23.5947 97.382 22.336V27.136L98.246 27.328L99.174 27.52C99.5153 27.584 99.686 27.7867 99.686 28.128V29.504H92.198V28.128C92.198 27.7867 92.3687 27.584 92.71 27.52L94.502 27.168V10.144C93.5207 9.952 92.9233 9.824 92.71 9.76C92.3687 9.696 92.198 9.49333 92.198 9.152V7.808H96.23C96.614 7.808 96.87 8 96.998 8.384L97.222 10.304H97.254ZM97.382 20.096C98.342 21.376 99.5793 22.016 101.094 22.016C102.673 22.016 103.867 21.4827 104.678 20.416C105.489 19.3493 105.894 17.8133 105.894 15.808C105.894 13.824 105.542 12.3307 104.838 11.328C104.134 10.304 103.099 9.792 101.734 9.792C100.049 9.792 98.598 10.6133 97.382 12.256V20.096ZM118.568 7.552C119.506 7.552 120.392 7.712 121.224 8.032C122.077 8.352 122.781 8.81067 123.336 9.408C123.976 10.0907 124.445 10.848 124.744 11.68C125.085 12.64 125.256 13.664 125.256 14.752C125.256 15.2427 125.213 15.5413 125.128 15.648C125.021 15.7973 124.829 15.872 124.552 15.872H113.8C113.8 16.896 113.928 17.792 114.184 18.56C114.397 19.2213 114.76 19.84 115.272 20.416C115.741 20.9493 116.274 21.3333 116.872 21.568C117.512 21.824 118.194 21.952 118.92 21.952C119.688 21.952 120.306 21.8773 120.776 21.728C121.224 21.5787 121.672 21.3973 122.12 21.184C122.589 20.9493 122.909 20.7787 123.08 20.672C123.357 20.5013 123.57 20.416 123.72 20.416C123.954 20.416 124.136 20.512 124.264 20.704L125.064 21.76C124.765 22.144 124.338 22.5067 123.784 22.848C123.144 23.2533 122.621 23.52 122.216 23.648C121.576 23.8613 121 24.0107 120.488 24.096C119.848 24.2027 119.261 24.256 118.728 24.256C117.618 24.256 116.584 24.064 115.624 23.68C114.706 23.3173 113.885 22.752 113.16 21.984C112.477 21.28 111.944 20.3733 111.56 19.264C111.176 18.176 110.984 16.9387 110.984 15.552C110.984 14.4427 111.165 13.3973 111.528 12.416C111.89 11.4133 112.392 10.56 113.032 9.856C113.693 9.13067 114.493 8.56533 115.432 8.16C116.37 7.75467 117.416 7.552 118.568 7.552ZM118.632 9.632C117.245 9.632 116.168 10.0267 115.4 10.816C114.61 11.648 114.12 12.7573 113.928 14.144H122.728C122.728 13.4827 122.632 12.8853 122.44 12.352C122.205 11.6907 121.949 11.2107 121.672 10.912C121.309 10.528 120.872 10.2187 120.36 9.984C119.869 9.77067 119.282 9.664 118.6 9.664L118.632 9.632ZM140.762 21.728C139.418 23.392 137.412 24.224 134.746 24.224C132.698 24.224 131.012 23.488 129.69 22.016C128.303 20.4587 127.61 18.4107 127.61 15.872C127.61 13.3973 128.26 11.4027 129.562 9.888C130.927 8.33067 132.826 7.552 135.258 7.552C136.474 7.552 138.074 7.936 140.058 8.704V12.928H138.778C138.479 12.928 138.298 12.7787 138.234 12.48C138.212 12.416 138.17 12.0107 138.106 11.264L138.01 10.208C137.775 10.1227 137.54 10.0587 137.306 10.016C137.092 9.97333 136.943 9.94133 136.858 9.92C136.282 9.83467 135.684 9.792 135.066 9.792C134.511 9.792 133.924 9.93067 133.306 10.208C132.73 10.464 132.228 10.8587 131.802 11.392C130.991 12.4587 130.586 13.952 130.586 15.872C130.586 17.792 131.012 19.3067 131.866 20.416C132.698 21.4827 133.839 22.016 135.29 22.016C136.634 22.016 137.818 21.568 138.842 20.672C139.012 20.5013 139.226 20.416 139.482 20.416C139.716 20.416 139.887 20.5013 139.994 20.672L140.762 21.728ZM148.382 24.256C147.144 24.256 146.163 23.8933 145.438 23.168C144.755 22.4853 144.414 21.4613 144.414 20.096V10.176H142.462C142.27 10.176 142.12 10.1333 142.014 10.048C141.907 9.96267 141.854 9.80267 141.854 9.568V8.448L144.51 8.096L145.15 3.072C145.15 2.90133 145.214 2.77333 145.342 2.688C145.448 2.60267 145.598 2.56 145.79 2.56H147.23V8.128H151.87V10.208H147.23V19.936C147.23 20.64 147.39 21.152 147.71 21.472C148.03 21.792 148.467 21.952 149.022 21.952C149.256 21.952 149.523 21.9093 149.822 21.824C150.014 21.76 150.206 21.6747 150.398 21.568C150.462 21.5253 150.526 21.4827 150.59 21.44C150.654 21.3973 150.718 21.3547 150.782 21.312C150.952 21.2267 151.059 21.184 151.102 21.184C151.251 21.184 151.379 21.2693 151.486 21.44L152.318 22.784C151.742 23.2747 151.144 23.6373 150.526 23.872C149.822 24.128 149.107 24.256 148.382 24.256ZM156.391 4.128C156.22 3.95733 156.071 3.744 155.943 3.488C155.836 3.27467 155.783 3.01867 155.783 2.72C155.783 2.4 155.836 2.13333 155.943 1.92C156.092 1.62133 156.241 1.39733 156.391 1.248C156.561 1.07733 156.775 0.927999 157.031 0.799999C157.244 0.693333 157.5 0.639999 157.799 0.639999C158.097 0.639999 158.353 0.693333 158.567 0.799999C158.823 0.927999 159.036 1.07733 159.207 1.248C159.356 1.39733 159.505 1.62133 159.655 1.92C159.783 2.176 159.847 2.44267 159.847 2.72C159.847 2.976 159.783 3.232 159.655 3.488C159.527 3.744 159.377 3.95733 159.207 4.128C159.036 4.29867 158.823 4.448 158.567 4.576C158.353 4.68266 158.097 4.736 157.799 4.736C157.5 4.736 157.244 4.68266 157.031 4.576C156.775 4.448 156.561 4.29867 156.391 4.128ZM161.031 22.016C161.18 22.0373 161.297 22.112 161.383 22.24C161.468 22.3467 161.51 22.4747 161.51 22.624V24H154.055V22.624C154.055 22.4747 154.097 22.3467 154.183 22.24C154.268 22.112 154.385 22.0373 154.535 22.016L156.391 21.664V10.112L154.535 9.76C154.385 9.73867 154.268 9.67467 154.183 9.568C154.097 9.44 154.055 9.30133 154.055 9.152V7.808H159.207V21.664L161.031 22.016ZM180.809 9.216C180.809 9.536 180.649 9.728 180.329 9.792C180.265 9.792 180.169 9.81333 180.041 9.856C179.934 9.87733 179.795 9.89867 179.625 9.92L178.76 10.112L173.097 24.032H170.505L164.841 10.112C164.627 10.048 164.339 9.984 163.977 9.92L163.273 9.792C162.953 9.728 162.793 9.52533 162.793 9.184V7.808H170.057V9.184C170.057 9.52533 169.897 9.728 169.577 9.792C169.427 9.83467 169.203 9.87733 168.905 9.92C168.606 9.96267 168.243 10.0267 167.817 10.112L171.241 18.816C171.411 19.264 171.603 20.032 171.817 21.12C172.115 19.9253 172.329 19.1573 172.457 18.816L175.913 10.112L174.089 9.76C173.769 9.696 173.609 9.49333 173.609 9.152V7.808H180.809V9.216ZM188.755 7.552C189.694 7.552 190.579 7.712 191.411 8.032C192.265 8.352 192.969 8.81067 193.523 9.408C194.163 10.0907 194.633 10.848 194.931 11.68C195.273 12.64 195.443 13.664 195.443 14.752C195.443 15.2427 195.401 15.5413 195.315 15.648C195.209 15.7973 195.017 15.872 194.739 15.872H183.987C183.987 16.896 184.115 17.792 184.371 18.56C184.585 19.2213 184.947 19.84 185.459 20.416C185.929 20.9493 186.462 21.3333 187.059 21.568C187.699 21.824 188.382 21.952 189.107 21.952C189.875 21.952 190.494 21.8773 190.963 21.728C191.411 21.5787 191.859 21.3973 192.307 21.184C192.777 20.9493 193.097 20.7787 193.267 20.672C193.545 20.5013 193.758 20.416 193.907 20.416C194.142 20.416 194.323 20.512 194.451 20.704L195.251 21.76C194.953 22.144 194.526 22.5067 193.971 22.848C193.331 23.2533 192.809 23.52 192.403 23.648C191.763 23.8613 191.187 24.0107 190.675 24.096C190.035 24.2027 189.449 24.256 188.915 24.256C187.806 24.256 186.771 24.064 185.811 23.68C184.894 23.3173 184.073 22.752 183.347 21.984C182.665 21.28 182.131 20.3733 181.747 19.264C181.363 18.176 181.171 16.9387 181.171 15.552C181.171 14.4427 181.353 13.3973 181.715 12.416C182.078 11.4133 182.579 10.56 183.219 9.856C183.881 9.13067 184.681 8.56533 185.619 8.16C186.558 7.75467 187.603 7.552 188.755 7.552ZM188.819 9.632C187.433 9.632 186.355 10.0267 185.587 10.816C184.798 11.648 184.307 12.7573 184.115 14.144H192.915C192.915 13.4827 192.819 12.8853 192.627 12.352C192.393 11.6907 192.137 11.2107 191.859 10.912C191.497 10.528 191.059 10.2187 190.547 9.984C190.057 9.77067 189.47 9.664 188.787 9.664L188.819 9.632Z" fill="white"/>
</svg>
